<svg id="Grupo_13257" data-name="Grupo 13257" xmlns="http://www.w3.org/2000/svg" width="128.143" height="128.143" viewBox="0 0 128.143 128.143">
  <rect id="Rectángulo_3162" data-name="Rectángulo 3162" width="128.143" height="128.143" transform="translate(0 0)" fill="none"/>
  <g id="Grupo_13256" data-name="Grupo 13256" transform="translate(3.471 14.291)">
    <circle id="Elipse_512" data-name="Elipse 512" cx="48.382" cy="48.382" r="48.382" transform="translate(12.218)" fill="#d1d3d4"/>
    <g id="Grupo_13255" data-name="Grupo 13255" transform="translate(0 20.175)">
      <g id="Grupo_13254" data-name="Grupo 13254">
        <g id="Grupo_13253" data-name="Grupo 13253">
          <g id="Grupo_13251" data-name="Grupo 13251" transform="translate(25.113 1.091)">
            <path id="Trazado_19630" data-name="Trazado 19630" d="M-2.9,5068.383c.556,3.869,1.19,7.082,1.19,7.082s-15.076,11.844-35.547,11.9c-20.452-.058-35.528-11.9-35.528-11.9s.635-3.213,1.19-7.082c3.928,2.739,17.258,10.992,34.337,11.05C-20.157,5079.375-6.827,5071.122-2.9,5068.383Z" transform="translate(72.903 -5031.825)" fill="#93dff9"/>
            <path id="Trazado_19631" data-name="Trazado 19631" d="M-72.587,4881.406c-.456-3.512-.853-6.189-.853-6.189,3.471-2.975,14.957-2.718,19.956-3.967,4.424-1.112,9.085-3.928,15.691-3.967,6.606.039,11.287,2.855,15.711,3.967,5,1.25,16.484.992,19.956,3.967,0,0-.477,3.255-.992,7.28-4.285-2.282-14.362-2.162-18.964-3.312-4.424-1.112-9.1-3.929-15.711-3.968-6.606.039-11.268,2.855-15.691,3.968a67.58,67.58,0,0,1-8.37,1.09s-9.939.277-10.276,1.131Z" transform="translate(73.44 -4867.282)" fill="#93dff9"/>
            <path id="Trazado_19632" data-name="Trazado 19632" d="M-67.536,4932.253c.02-.515.04-1.011.04-1.488,0-1.348-.119-3.134-.3-5.079-.238-2.8-.615-5.91-.952-8.568h.456c.337-.854,10.276-1.131,10.276-1.131a67.393,67.393,0,0,0,8.37-1.09c4.424-1.112,9.085-3.929,15.691-3.967,6.606.039,11.287,2.855,15.711,3.967,4.6,1.151,14.679,1.03,18.964,3.313-.3,2.4-.615,5.06-.833,7.478-.159,1.945-.278,3.731-.278,5.079,0,.477.019.973.04,1.488.1,2.263.416,4.9.754,7.3-3.928,2.739-17.257,10.992-34.357,11.05-17.079-.058-30.41-8.311-34.337-11.05C-67.953,4937.154-67.635,4934.516-67.536,4932.253Z" transform="translate(69.599 -4902.995)" fill="#93dff9"/>
          </g>
          <g id="Grupo_13252" data-name="Grupo 13252">
            <path id="Trazado_19633" data-name="Trazado 19633" d="M-35.824,5076.377c-17.5-.06-31.091-8.593-34.839-11.207a.872.872,0,0,1-.217-1.215.872.872,0,0,1,1.215-.217c3.643,2.541,16.85,10.835,33.841,10.893,17-.058,30.212-8.352,33.855-10.893a.873.873,0,0,1,1.215.217.872.872,0,0,1-.217,1.215C-4.719,5067.785-18.309,5076.318-35.824,5076.377Z" transform="translate(96.586 -5026.806)" fill="#fff"/>
            <path id="Trazado_19634" data-name="Trazado 19634" d="M45.1,4915.155a.866.866,0,0,1-.409-.1c-2.509-1.336-7.373-1.824-11.664-2.254a56.234,56.234,0,0,1-7.1-.982,44.733,44.733,0,0,1-4.414-1.452,31.623,31.623,0,0,0-11.09-2.49,31.487,31.487,0,0,0-11.058,2.487,44.409,44.409,0,0,1-4.415,1.454,56.454,56.454,0,0,1-7.4,1.006l-1.1.107a.873.873,0,0,1-.954-.783.872.872,0,0,1,.783-.954l1.1-.107a55.6,55.6,0,0,0,7.142-.961,43.2,43.2,0,0,0,4.239-1.4,32.931,32.931,0,0,1,11.66-2.594,33.062,33.062,0,0,1,11.69,2.6,43.515,43.515,0,0,0,4.238,1.4,55.38,55.38,0,0,0,6.851.938c4.452.446,9.5.952,12.311,2.45a.872.872,0,0,1-.411,1.643Z" transform="translate(50.337 -4897.977)" fill="#fff"/>
            <path id="Trazado_19635" data-name="Trazado 19635" d="M313.275,4924.96a1.091,1.091,0,0,1-.825-1.8,69.121,69.121,0,0,1,13.074-11.4c6.3-4.526,10.464-7.516,10.464-15.654,0-5.227-2.319-10.811-8.827-10.811-1.726,0-3.915.892-6.232,1.836-2.518,1.026-5.122,2.087-7.514,2.131h-.139a1.091,1.091,0,1,1,0-2.181h.109c1.984-.04,4.393-1.021,6.722-1.97,2.521-1.027,4.9-2,7.055-2a10.054,10.054,0,0,1,8.341,3.918,14.829,14.829,0,0,1,2.668,9.074c0,9.257-5.019,12.862-11.373,17.426a67.269,67.269,0,0,0-12.7,11.059A1.089,1.089,0,0,1,313.275,4924.96Z" transform="translate(-216.969 -4879.138)" fill="#303e58"/>
            <path id="Trazado_19636" data-name="Trazado 19636" d="M-186.685,4924.96a1.088,1.088,0,0,1-.826-.377,67.269,67.269,0,0,0-12.7-11.059c-6.354-4.564-11.373-8.168-11.373-17.426a14.829,14.829,0,0,1,2.668-9.074,10.054,10.054,0,0,1,8.341-3.918c2.153,0,4.531.97,7.048,2,2.375.969,4.83,1.971,6.837,1.971a1.091,1.091,0,0,1,1.091,1.091,1.091,1.091,0,0,1-1.091,1.09c-2.435,0-5.092-1.083-7.661-2.132-2.314-.944-4.5-1.835-6.224-1.835-6.508,0-8.828,5.584-8.828,10.811,0,8.138,4.163,11.128,10.465,15.654a69.1,69.1,0,0,1,13.074,11.4,1.091,1.091,0,0,1-.112,1.539A1.087,1.087,0,0,1-186.685,4924.96Z" transform="translate(211.58 -4879.138)" fill="#303e58"/>
            <path id="Trazado_19637" data-name="Trazado 19637" d="M229.431,4971.2a.872.872,0,0,1-.35-.074,46.9,46.9,0,0,0-16.457-3.9.873.873,0,0,1,.09-1.743,48.635,48.635,0,0,1,17.067,4.04.873.873,0,0,1-.351,1.672Z" transform="translate(-134.83 -4946.542)" fill="#fff"/>
            <path id="Trazado_19638" data-name="Trazado 19638" d="M-67.436,4971.2a.873.873,0,0,1-.8-.524.872.872,0,0,1,.45-1.148,48.855,48.855,0,0,1,17.086-4.04.873.873,0,0,1,.916.827.873.873,0,0,1-.826.917,47.119,47.119,0,0,0-16.478,3.9A.867.867,0,0,1-67.436,4971.2Z" transform="translate(94.355 -4946.54)" fill="#fff"/>
            <path id="Trazado_19639" data-name="Trazado 19639" d="M219.435,5030.392a.873.873,0,0,1-.043-1.744,28.45,28.45,0,0,0,14.839-5.062.873.873,0,0,1,1,1.433,30.2,30.2,0,0,1-15.749,5.372Z" transform="translate(-140.367 -4993.953)" fill="#fff"/>
            <path id="Trazado_19640" data-name="Trazado 19640" d="M-50.724,5030.392h-.045a30.2,30.2,0,0,1-15.749-5.372.873.873,0,0,1-.218-1.215.872.872,0,0,1,1.215-.218,28.45,28.45,0,0,0,14.839,5.062.873.873,0,0,1,.828.916A.873.873,0,0,1-50.724,5030.392Z" transform="translate(93.194 -4993.953)" fill="#fff"/>
            <path id="Trazado_19641" data-name="Trazado 19641" d="M-42.7,4919.006a62.425,62.425,0,0,1-25.9-6.076,57.626,57.626,0,0,1-10.305-6.059,1.091,1.091,0,0,1-.4-1.069c.006-.032.637-3.232,1.181-7.025.419-2.982.662-5.335.744-7.192.019-.479.039-.98.039-1.44,0-1.184-.1-2.86-.293-4.979-.243-2.849-.634-6.055-.948-8.531-.449-3.457-.846-6.14-.85-6.166a1.091,1.091,0,0,1,.369-.988c2.523-2.163,8.148-2.724,13.587-3.268a55.02,55.02,0,0,0,6.814-.93,43,43,0,0,0,4.216-1.392,33.112,33.112,0,0,1,11.734-2.607,33.234,33.234,0,0,1,11.767,2.61,43.433,43.433,0,0,0,4.216,1.39,55.067,55.067,0,0,0,6.812.93c5.44.543,11.065,1.1,13.588,3.268a1.09,1.09,0,0,1,.369.986c0,.032-.481,3.292-.989,7.26-.287,2.316-.61,5.014-.829,7.438-.127,1.554-.274,3.535-.274,4.981,0,.46.02.961.039,1.445.081,1.852.324,4.205.744,7.19.545,3.79,1.174,6.991,1.18,7.023a1.091,1.091,0,0,1-.4,1.069,57.605,57.605,0,0,1-10.308,6.059A62.474,62.474,0,0,1-42.7,4919.006Zm-34.331-13.46a60.138,60.138,0,0,0,9.417,5.437,60.205,60.205,0,0,0,24.914,5.842,60.253,60.253,0,0,0,24.925-5.842,60.069,60.069,0,0,0,9.419-5.437c-.216-1.154-.666-3.647-1.07-6.459-.43-3.059-.68-5.48-.764-7.407-.02-.509-.041-1.032-.041-1.535,0-1.525.151-3.563.282-5.168.222-2.464.548-5.185.838-7.523.377-2.946.737-5.5.9-6.654-2.323-1.458-7.613-1.986-11.921-2.416a56.194,56.194,0,0,1-7.126-.984,44.8,44.8,0,0,1-4.436-1.458,31.444,31.444,0,0,0-11.016-2.476,31.307,31.307,0,0,0-10.982,2.474,44.61,44.61,0,0,1-4.437,1.46,56.152,56.152,0,0,1-7.127.985c-4.308.43-9.6.958-11.921,2.415.145,1.007.44,3.085.761,5.559.317,2.5.712,5.734.957,8.616.2,2.209.3,3.9.3,5.171,0,.5-.021,1.026-.041,1.531-.084,1.932-.334,4.354-.763,7.408C-76.363,4901.9-76.814,4904.392-77.03,4905.546Zm-1.2.467h0Z" transform="translate(103.462 -4861.282)" fill="#303e58"/>
          </g>
        </g>
      </g>
    </g>
  </g>
</svg>
