<svg xmlns="http://www.w3.org/2000/svg" width="265" height="417.95" viewBox="0 0 265 417.95">
  <g id="Grupo_13545" data-name="Grupo 13545" transform="translate(-3853 1712.95)">
    <rect id="Rectángulo_3310" data-name="Rectángulo 3310" width="265" height="281" rx="7" transform="translate(3853 -1601)" fill="#e8eef3"/>
    <circle id="Elipse_841" data-name="Elipse 841" cx="111.9" cy="111.9" r="111.9" transform="translate(3874 -1712.95)" fill="#ff9100"/>
    <circle id="Elipse_845" data-name="Elipse 845" cx="106.3" cy="106.3" r="106.3" transform="translate(3879 -1707.35)" fill="#fff"/>
    <line id="Línea_234" data-name="Línea 234" x2="218" transform="translate(3876.5 -1417.5)" fill="none" stroke="#707070" stroke-width="3" opacity="0.2"/>
    <g id="Grupo_13542" data-name="Grupo 13542" transform="translate(3914 -1666.996)">
      <circle id="Elipse_514" data-name="Elipse 514" cx="67.014" cy="67.014" r="67.014" fill="#d1d3d4"/>
      <g id="Grupo_13269" data-name="Grupo 13269" transform="translate(4.903 11.471)">
        <g id="Grupo_13268" data-name="Grupo 13268">
          <g id="Grupo_13267" data-name="Grupo 13267">
            <g id="Grupo_13265" data-name="Grupo 13265" transform="translate(1.511 1.511)">
              <path id="Trazado_19660" data-name="Trazado 19660" d="M2206.464,5054.658c1.3,0,13.432,20.149,13.432,35.821,0,11.574-7.1,13.432-49.252,13.432-58.386,0-67.162,0-67.162-13.432a15.342,15.342,0,0,1,.269-3.114c.717-3.826,3.046-4.386,6.447-5.842,4.165-1.769,25.365-6.157,40.3-17.91,0,0,1.163.223,3.179.538a149.388,149.388,0,0,0,21.447,1.7c14.351,0,21.716-6.38,26.865-9.515A9.136,9.136,0,0,1,2206.464,5054.658Z" transform="translate(-2085.572 -4991.973)" fill="#93dff9"/>
              <path id="Trazado_19661" data-name="Trazado 19661" d="M2311.146,4863.357c3.2-11.71,1.926-29.821,1.926-57.648h42.536c-.38,6.716-4.478,49.812-4.478,58.207v6.157c-5.149,3.135-12.514,9.514-26.865,9.514a149.568,149.568,0,0,1-21.448-1.7,76.32,76.32,0,0,0,4.613-6.335A25.326,25.326,0,0,0,2311.146,4863.357Z" transform="translate(-2234.715 -4805.709)" fill="#fff"/>
              <path id="Trazado_19662" data-name="Trazado 19662" d="M2257.061,4805.709c0,27.827,1.277,45.938-1.926,57.648-2.864,1.456-8.328.516-8.328.516a151.378,151.378,0,0,1-18.85-1.815,44.826,44.826,0,0,0,5.553-6.179c6.491-9.044,5.931-24.425,5.64-50.17Z" transform="translate(-2178.705 -4805.709)" fill="#fff"/>
              <path id="Trazado_19663" data-name="Trazado 19663" d="M2108.784,5029.663a25.3,25.3,0,0,1-3.714,8.194,76.433,76.433,0,0,1-4.613,6.336c-2.016-.314-3.179-.538-3.179-.538-14.933,11.754-36.133,16.142-40.3,17.911-3.4,1.455-5.73,2.015-6.447,5.841-15.044-1.3-18.179-4.521-18.179-12.558,0-6.717,2.552-7.186,6.717-8.955s25.365-6.156,40.3-17.91c0,0,.806.157,2.239.381a151.3,151.3,0,0,0,18.85,1.814S2105.92,5031.119,2108.784,5029.663Z" transform="translate(-2032.354 -4972.016)" fill="#93dff9"/>
            </g>
            <g id="Grupo_13266" data-name="Grupo 13266">
              <path id="Trazado_19664" data-name="Trazado 19664" d="M2245.52,4852.9a1.511,1.511,0,0,1-1.227-2.392c5.854-8.157,5.685-22.109,5.406-45.224q-.024-1.98-.048-4.049a1.511,1.511,0,1,1,3.021-.034q.023,2.068.048,4.046c.287,23.734.461,38.059-5.972,47.022A1.509,1.509,0,0,1,2245.52,4852.9Z" transform="translate(-2189.205 -4799.708)" fill="#303e58"/>
              <path id="Trazado_19665" data-name="Trazado 19665" d="M2490.2,4860.937a1.511,1.511,0,0,1-1.511-1.511c0-5.574,1.786-26.276,3.089-41.392.677-7.842,1.261-14.614,1.39-16.9a1.511,1.511,0,0,1,3.017.171c-.132,2.332-.69,8.8-1.4,16.99-1.3,15.062-3.079,35.688-3.079,41.132A1.511,1.511,0,0,1,2490.2,4860.937Z" transform="translate(-2372.273 -4799.708)" fill="#303e58"/>
              <path id="Trazado_19666" data-name="Trazado 19666" d="M2316.648,4868.572a1.511,1.511,0,0,1-1.227-2.392,23.815,23.815,0,0,0,3.485-7.713c2.377-8.687,2.224-21.316,2.014-38.794-.066-5.509-.141-11.753-.141-18.453a1.511,1.511,0,1,1,3.021,0c0,6.682.075,12.917.142,18.417.213,17.724.367,30.531-2.121,39.629a26.771,26.771,0,0,1-3.944,8.676A1.509,1.509,0,0,1,2316.648,4868.572Z" transform="translate(-2242.423 -4799.708)" fill="#303e58"/>
              <path id="Trazado_19667" data-name="Trazado 19667" d="M2166.155,5100.933c-29.736,0-46.117,0-55.739-1.7-9.549-1.689-12.934-5.154-12.934-13.241a16.729,16.729,0,0,1,.3-3.408c.8-4.223,3.364-5.287,6.335-6.518.322-.133.655-.271,1-.418.961-.409,2.6-.9,4.864-1.575,8.228-2.46,23.543-7.041,35.094-16.133a1.508,1.508,0,0,1,1.219-.3c.012,0,1.166.222,3.125.529a147.745,147.745,0,0,0,21.217,1.683c11.889,0,18.732-4.5,23.729-7.785.826-.543,1.607-1.057,2.351-1.509a10.631,10.631,0,0,1,5.263-1.9c.813,0,1.572.295,3.931,4.109a82.471,82.471,0,0,1,4.646,8.808c2.9,6.357,6.366,15.753,6.366,24.415,0,5.894-1.689,10.277-9.933,12.514C2199.5,5100.535,2186.346,5100.933,2166.155,5100.933Zm-19.755-40.2c-11.929,9.167-27.261,13.752-35.556,16.233-2.091.625-3.742,1.119-4.545,1.46-.352.151-.7.293-1.028.431-2.769,1.147-4.032,1.67-4.525,4.3l-.007.033a13.991,13.991,0,0,0-.237,2.8c0,5.822,1.508,8.685,10.439,10.265,9.362,1.656,26.621,1.656,55.213,1.656,43.339,0,47.741-2.26,47.741-11.921,0-14.141-10.122-31.7-12.379-34.273a9.49,9.49,0,0,0-3.235,1.423c-.7.425-1.457.924-2.261,1.453-5.016,3.3-12.595,8.281-25.389,8.281a150.625,150.625,0,0,1-21.671-1.718h-.009C2147.814,5060.977,2146.948,5060.829,2146.4,5060.731Zm54.875-9.259Z" transform="translate(-2079.572 -4985.973)" fill="#303e58"/>
              <path id="Trazado_19668" data-name="Trazado 19668" d="M2227.384,5148.713a1.511,1.511,0,0,1-.724-2.838l8.708-4.747a1.511,1.511,0,0,1,1.446,2.653l-8.708,4.747A1.505,1.505,0,0,1,2227.384,5148.713Z" transform="translate(-2175.633 -5055.022)" fill="#303e58"/>
              <path id="Trazado_19669" data-name="Trazado 19669" d="M2148.164,5191.12a1.511,1.511,0,0,1-.753-2.821l7.342-4.208a1.511,1.511,0,1,1,1.5,2.621l-7.342,4.208A1.5,1.5,0,0,1,2148.164,5191.12Z" transform="translate(-2116.361 -5087.153)" fill="#303e58"/>
              <path id="Trazado_19670" data-name="Trazado 19670" d="M2516.872,5178.62a1.511,1.511,0,0,1-.767-2.813c2.707-1.589,1.737-6.757,1.726-6.809a1.511,1.511,0,0,1,2.958-.614c.062.3,1.467,7.316-3.154,10.028A1.5,1.5,0,0,1,2516.872,5178.62Z" transform="translate(-2392.229 -5074.653)" fill="#303e58"/>
              <path id="Trazado_19671" data-name="Trazado 19671" d="M2441.652,5098.252a1.511,1.511,0,0,1-.482-2.943c.666-.224,1.42-.454,2.22-.7a44.887,44.887,0,0,0,7.611-2.855,10.187,10.187,0,0,0,3.86-3.133,1.511,1.511,0,0,1,2.508,1.686,13.1,13.1,0,0,1-4.968,4.125,47.234,47.234,0,0,1-8.128,3.067c-.778.237-1.513.462-2.138.672A1.5,1.5,0,0,1,2441.652,5098.252Z" transform="translate(-2335.95 -5015.374)" fill="#303e58"/>
              <path id="Trazado_19672" data-name="Trazado 19672" d="M2388.848,5129.136a1.507,1.507,0,0,1-1.179-.564l-3.506-4.368c-1.769.108-3.948.047-5.9-.007-.957-.026-1.86-.051-2.576-.051a1.511,1.511,0,1,1,0-3.022c.758,0,1.682.026,2.661.053a55.946,55.946,0,0,0,6.339-.044,1.512,1.512,0,0,1,1.334.557l4.007,4.991a1.51,1.51,0,0,1-1.177,2.457Z" transform="translate(-2286.592 -5040.191)" fill="#303e58"/>
              <path id="Trazado_19673" data-name="Trazado 19673" d="M2287.456,5113.621a1.51,1.51,0,0,1-1.484-1.236l-.58-3.137c-16.145-.225-20.219-5.631-20.64-6.263l2.515-1.675-.018-.026c.036.05,3.788,4.95,19.2,4.95.069,0,.134.006.2,0a1.511,1.511,0,0,1,1.486,1.236l.807,4.366a1.509,1.509,0,0,1-1.487,1.785Z" transform="translate(-2204.724 -5025.347)" fill="#303e58"/>
              <path id="Trazado_19674" data-name="Trazado 19674" d="M2483.747,5110.1a1.51,1.51,0,0,1-1.374-.881l-2.171-4.725a1.511,1.511,0,1,1,2.746-1.261l2.171,4.725a1.511,1.511,0,0,1-1.372,2.142Z" transform="translate(-2365.821 -5026.149)" fill="#303e58"/>
              <path id="Trazado_19675" data-name="Trazado 19675" d="M2046.045,5064.429c-.044,0-.087,0-.132-.006-14.99-1.293-19.56-4.579-19.56-14.062,0-6.844,2.541-8.239,6.685-9.949.307-.127.624-.257.951-.4.958-.406,2.594-.9,4.86-1.574,8.228-2.46,23.542-7.041,35.094-16.132a1.506,1.506,0,0,1,1.223-.3c.008,0,.8.155,2.182.37a149.694,149.694,0,0,0,18.663,1.8,1.511,1.511,0,0,1-.091,3.021,152.85,152.85,0,0,1-19.045-1.833c-.679-.105-1.219-.2-1.6-.264-11.929,9.166-27.261,13.751-35.556,16.232-2.09.625-3.742,1.119-4.545,1.46-.337.144-.664.278-.98.408-3.5,1.446-4.816,1.987-4.816,7.156,0,6.527,1.657,9.746,16.8,11.053a1.511,1.511,0,0,1-.128,3.016Z" transform="translate(-2026.354 -4966.015)" fill="#303e58"/>
              <path id="Trazado_19676" data-name="Trazado 19676" d="M2156.255,5086.476a1.511,1.511,0,0,1-.724-2.838l8.708-4.746a1.511,1.511,0,0,1,1.446,2.653l-8.708,4.747A1.506,1.506,0,0,1,2156.255,5086.476Z" transform="translate(-2122.415 -5008.455)" fill="#303e58"/>
              <path id="Trazado_19677" data-name="Trazado 19677" d="M2077.035,5128.883a1.511,1.511,0,0,1-.753-2.822l7.341-4.209a1.511,1.511,0,0,1,1.5,2.622l-7.341,4.208A1.5,1.5,0,0,1,2077.035,5128.883Z" transform="translate(-2063.142 -5040.586)" fill="#303e58"/>
              <path id="Trazado_19678" data-name="Trazado 19678" d="M2213.259,5047h-.046c-15.317-.458-19.2-5.658-19.594-6.25l2.518-1.67-.018-.026c.032.045,3.435,4.514,17.184,4.926a1.511,1.511,0,0,1-.044,3.021Z" transform="translate(-2151.502 -4978.789)" fill="#303e58"/>
            </g>
          </g>
        </g>
      </g>
    </g>
    <path id="Trazado_20055" data-name="Trazado 20055" d="M43.661,6.62H38.827V9.5H43V11.8H38.827V17H36.173V4.3h7.488ZM45.911,17V4.3h2.637V17Zm11.54.176a7.089,7.089,0,0,1-2.588-.466,6.087,6.087,0,0,1-2.061-1.3,5.864,5.864,0,0,1-1.354-2.065,7.2,7.2,0,0,1-.492-2.7A6.879,6.879,0,0,1,51.8,7.2a5.744,5.744,0,0,1,2.316-2.281,6.935,6.935,0,0,1,3.335-.791,6.739,6.739,0,0,1,3.727,1.028,5.629,5.629,0,0,1,2.276,2.83l-2.461.9a3.479,3.479,0,0,0-1.362-1.714,3.891,3.891,0,0,0-2.18-.615,3.73,3.73,0,0,0-2.777,1.107,4.075,4.075,0,0,0-1.09,2.988,4.081,4.081,0,0,0,1.094,2.993,3.726,3.726,0,0,0,2.773,1.112,3.876,3.876,0,0,0,2.175-.62,3.5,3.5,0,0,0,1.367-1.718l2.461.9a5.652,5.652,0,0,1-2.276,2.834A6.718,6.718,0,0,1,57.451,17.176ZM73.623,4.3H76.26V17H73.623V11.779h-5.37V17H65.616V4.3h2.637V9.485h5.37ZM88.046,17l-.923-2.619H81.788L80.865,17h-2.7L82.843,4.3h3.226L90.744,17Zm-5.484-4.825H86.35L84.46,6.787ZM104.332,4.3V6.62h-3.015V17h-2.61V6.62H95.675V4.3ZM112.84.767l-2,2.347h-1.556l2.3-3.234Zm.853,5.854h-4.711V9.5h4.175V11.8h-4.175v2.874h4.711V17h-7.365V4.3h7.365Zm7.857,10.556a7.089,7.089,0,0,1-2.588-.466,6.087,6.087,0,0,1-2.061-1.3,5.864,5.864,0,0,1-1.354-2.065,7.2,7.2,0,0,1-.492-2.7A6.879,6.879,0,0,1,115.9,7.2a5.744,5.744,0,0,1,2.316-2.281,6.935,6.935,0,0,1,3.335-.791,6.739,6.739,0,0,1,3.727,1.028,5.629,5.629,0,0,1,2.276,2.83l-2.461.9a3.479,3.479,0,0,0-1.362-1.714,3.891,3.891,0,0,0-2.18-.615,3.73,3.73,0,0,0-2.777,1.107,4.075,4.075,0,0,0-1.09,2.988,4.081,4.081,0,0,0,1.094,2.993,3.726,3.726,0,0,0,2.773,1.112,3.876,3.876,0,0,0,2.175-.62,3.5,3.5,0,0,0,1.367-1.718l2.461.9a5.652,5.652,0,0,1-2.276,2.834A6.718,6.718,0,0,1,121.55,17.176ZM138.39,4.3h2.628V17h-3.05l-5.625-9.079V17h-2.628V4.3h3.015l5.66,9.026ZM144.3,17V4.3h2.637V17Zm11.54.176a7.089,7.089,0,0,1-2.588-.466,6.087,6.087,0,0,1-2.061-1.3,5.864,5.864,0,0,1-1.354-2.065,7.2,7.2,0,0,1-.492-2.7,6.879,6.879,0,0,1,.844-3.45,5.744,5.744,0,0,1,2.316-2.281,6.935,6.935,0,0,1,3.335-.791,6.739,6.739,0,0,1,3.727,1.028,5.629,5.629,0,0,1,2.276,2.83l-2.461.9a3.479,3.479,0,0,0-1.362-1.714,3.891,3.891,0,0,0-2.18-.615,3.73,3.73,0,0,0-2.777,1.107,4.075,4.075,0,0,0-1.09,2.988,4.081,4.081,0,0,0,1.094,2.993,3.726,3.726,0,0,0,2.773,1.112,3.876,3.876,0,0,0,2.175-.62,3.5,3.5,0,0,0,1.367-1.718l2.461.9a5.652,5.652,0,0,1-2.276,2.834A6.718,6.718,0,0,1,155.845,17.176ZM172.509,17l-.923-2.619h-5.335L165.328,17h-2.7l4.676-12.7h3.226L175.207,17Zm-5.484-4.825h3.788l-1.89-5.388ZM33.976,26.3A3.822,3.822,0,0,1,36.9,27.482,4.112,4.112,0,0,1,38.01,30.4a4.011,4.011,0,0,1-1.1,2.9,3.891,3.891,0,0,1-2.936,1.138H31.33V39H28.693V26.3Zm-.439,5.941a1.938,1.938,0,0,0,1.45-.5,2.166,2.166,0,0,0,0-2.733,1.92,1.92,0,0,0-1.446-.505H31.33v3.735ZM45.85,39.176a6.9,6.9,0,0,1-3.335-.8,5.766,5.766,0,0,1-2.316-2.29,7.465,7.465,0,0,1,0-6.9,5.744,5.744,0,0,1,2.316-2.281,7.418,7.418,0,0,1,6.667,0A5.752,5.752,0,0,1,51.492,29.2a7.465,7.465,0,0,1,0,6.9,5.766,5.766,0,0,1-2.316,2.29A6.885,6.885,0,0,1,45.85,39.176Zm-2.777-3.529a4.025,4.025,0,0,0,5.555,0,4.1,4.1,0,0,0,1.09-3,4.075,4.075,0,0,0-1.09-2.988,4.036,4.036,0,0,0-5.555,0,4.075,4.075,0,0,0-1.09,2.988A4.1,4.1,0,0,0,43.072,35.647ZM57.4,36.671H61.38V39H54.762V26.3H57.4ZM72.234,39l-.923-2.619H65.977L65.054,39h-2.7l4.676-12.7h3.226L74.933,39ZM66.75,34.175h3.788l-1.89-5.388ZM76.84,39V26.3h2.637V39ZM91.43,26.3h2.628V39h-3.05l-5.625-9.079V39H82.755V26.3H85.77l5.66,9.026ZM105.844,39l-.923-2.619H99.586L98.663,39h-2.7l4.676-12.7h3.226L108.542,39Zm-5.484-4.825h3.788l-1.89-5.388Zm14.309,5a6.136,6.136,0,0,1-3.524-.971,3.9,3.9,0,0,1-1.714-2.72l2.725-.624a2.314,2.314,0,0,0,.839,1.6,2.785,2.785,0,0,0,1.78.558,2.3,2.3,0,0,0,1.389-.391,1.319,1.319,0,0,0,.527-1.156,1.233,1.233,0,0,0-.448-.94,2.929,2.929,0,0,0-.892-.576q-.444-.171-1.428-.47-.132-.044-.193-.062-.5-.158-.809-.264t-.76-.294a5.063,5.063,0,0,1-.738-.369,5.405,5.405,0,0,1-.611-.457,2.394,2.394,0,0,1-.51-.584,3.1,3.1,0,0,1-.308-.729,3.219,3.219,0,0,1-.123-.905,3.4,3.4,0,0,1,.593-2,3.633,3.633,0,0,1,1.6-1.274,5.822,5.822,0,0,1,2.29-.426,7.233,7.233,0,0,1,1.657.185,5.8,5.8,0,0,1,1.481.567,3.628,3.628,0,0,1,1.182,1.046,3.933,3.933,0,0,1,.672,1.542l-2.549.633a2.065,2.065,0,0,0-2.285-1.819,2.5,2.5,0,0,0-1.415.369,1.251,1.251,0,0,0-.554,1.116q0,.694.923,1.125a13.752,13.752,0,0,0,1.767.606q.519.158.844.264t.817.308a5.68,5.68,0,0,1,.8.391,5.918,5.918,0,0,1,.668.488,2.627,2.627,0,0,1,.567.633,3.422,3.422,0,0,1,.347.787,3.288,3.288,0,0,1,.141.98,3.85,3.85,0,0,1-.255,1.433,3.118,3.118,0,0,1-.7,1.081,4.058,4.058,0,0,1-1.05.743,5.1,5.1,0,0,1-1.292.439A7.431,7.431,0,0,1,114.668,39.176Zm18.677-6.882a2.971,2.971,0,0,1,2.391,3.146,3.41,3.41,0,0,1-1.011,2.606,4.176,4.176,0,0,1-2.971.954h-5.229V26.3h4.113a4.66,4.66,0,0,1,3.107.918,3.186,3.186,0,0,1,1.077,2.562,2.988,2.988,0,0,1-.374,1.507A2.46,2.46,0,0,1,133.345,32.294Zm-2.681-3.806h-1.6v2.988h1.714a1.606,1.606,0,0,0,1.213-.422,1.534,1.534,0,0,0,.4-1.107,1.363,1.363,0,0,0-.439-1.059A1.859,1.859,0,0,0,130.664,28.488Zm.6,8.253a2.025,2.025,0,0,0,1.455-.448,1.524,1.524,0,0,0,.461-1.143,1.6,1.6,0,0,0-.466-1.178,2.061,2.061,0,0,0-1.5-.466h-2.145v3.234ZM146.581,39l-.923-2.619h-5.335L139.4,39h-2.7l4.676-12.7H144.6L149.279,39ZM141.1,34.175h3.788L143,28.787Zm12.023,5a7.182,7.182,0,0,1-3.357-.879l1.116-2.171a3.317,3.317,0,0,0,1.925.677,1.389,1.389,0,0,0,1.178-.505,2.653,2.653,0,0,0,.387-1.6V26.3H157v8.886a3.949,3.949,0,0,1-1.059,2.949A3.855,3.855,0,0,1,153.12,39.176ZM168.589,39l-.923-2.619h-5.335L161.408,39h-2.7l4.676-12.7h3.226L171.287,39ZM163.1,34.175h3.788L165,28.787Zm14.309,5a6.136,6.136,0,0,1-3.524-.971,3.9,3.9,0,0,1-1.714-2.72l2.725-.624a2.314,2.314,0,0,0,.839,1.6,2.785,2.785,0,0,0,1.78.558,2.3,2.3,0,0,0,1.389-.391,1.319,1.319,0,0,0,.527-1.156,1.233,1.233,0,0,0-.448-.94,2.929,2.929,0,0,0-.892-.576q-.444-.171-1.428-.47-.132-.044-.193-.062-.5-.158-.809-.264t-.76-.294a5.063,5.063,0,0,1-.738-.369,5.405,5.405,0,0,1-.611-.457,2.394,2.394,0,0,1-.51-.584,3.1,3.1,0,0,1-.308-.729,3.219,3.219,0,0,1-.123-.905,3.4,3.4,0,0,1,.593-2,3.633,3.633,0,0,1,1.6-1.274,5.822,5.822,0,0,1,2.29-.426,7.233,7.233,0,0,1,1.657.185,5.8,5.8,0,0,1,1.481.567,3.628,3.628,0,0,1,1.182,1.046,3.933,3.933,0,0,1,.672,1.542l-2.549.633a2.065,2.065,0,0,0-2.285-1.819,2.5,2.5,0,0,0-1.415.369,1.251,1.251,0,0,0-.554,1.116q0,.694.923,1.125a13.752,13.752,0,0,0,1.767.606q.519.158.844.264t.817.308a5.68,5.68,0,0,1,.8.391,5.918,5.918,0,0,1,.668.488,2.627,2.627,0,0,1,.567.633,3.422,3.422,0,0,1,.347.787,3.288,3.288,0,0,1,.141.98,3.85,3.85,0,0,1-.255,1.433,3.118,3.118,0,0,1-.7,1.081,4.058,4.058,0,0,1-1.05.743,5.1,5.1,0,0,1-1.292.439A7.431,7.431,0,0,1,177.413,39.176Z" transform="translate(3880.307 -1473)" fill="#002b45"/>
    <path id="Trazado_20056" data-name="Trazado 20056" d="M8.029,5.489H4.078V8.634H7.523V9.741H4.078V14H2.827V4.375h5.2Zm2.358.212a.805.805,0,0,1-.8-.8.758.758,0,0,1,.236-.561.775.775,0,0,1,.564-.232.767.767,0,0,1,.557.232.758.758,0,0,1,.236.561.77.77,0,0,1-.236.564A.762.762,0,0,1,10.387,5.7Zm-.6,8.3V7.28h1.189V14Zm6.385.123a3.237,3.237,0,0,1-2.406-.964,3.438,3.438,0,0,1-.95-2.522,3.445,3.445,0,0,1,.947-2.522,3.234,3.234,0,0,1,2.41-.964,3.26,3.26,0,0,1,1.945.588,2.967,2.967,0,0,1,1.131,1.634l-1.107.178A2.045,2.045,0,0,0,17.38,8.5a2.066,2.066,0,0,0-1.217-.369,1.987,1.987,0,0,0-1.555.69A2.63,2.63,0,0,0,14,10.637a2.617,2.617,0,0,0,.612,1.808,1.991,1.991,0,0,0,1.555.687,2.066,2.066,0,0,0,1.217-.369,2.045,2.045,0,0,0,.759-1.046l1.107.185a2.97,2.97,0,0,1-1.138,1.63A3.255,3.255,0,0,1,16.17,14.123ZM24.2,7.15a2.245,2.245,0,0,1,1.661.622,2.415,2.415,0,0,1,.622,1.784V14H25.3V9.782a1.653,1.653,0,0,0-.41-1.237,1.461,1.461,0,0,0-1.06-.4,1.626,1.626,0,0,0-1.186.458,1.862,1.862,0,0,0-.475,1.374V14H20.99V3.5h1.183V8.169a2.186,2.186,0,0,1,.844-.752A2.574,2.574,0,0,1,24.2,7.15Zm6.111,6.979a2.287,2.287,0,0,1-1.473-.461,1.657,1.657,0,0,1-.578-1.377,1.957,1.957,0,0,1,.185-.878,1.549,1.549,0,0,1,.547-.612,3.281,3.281,0,0,1,.79-.379,7.3,7.3,0,0,1,1.022-.243L31.893,10q.595-.109.595-.622a1.174,1.174,0,0,0-.42-1A1.713,1.713,0,0,0,31,8.06a1.745,1.745,0,0,0-1.053.308,1.287,1.287,0,0,0-.5.943l-1.066-.226a2.052,2.052,0,0,1,.841-1.439,3.141,3.141,0,0,1,1.832-.482,3.716,3.716,0,0,1,.974.12,2.647,2.647,0,0,1,.813.376,1.686,1.686,0,0,1,.581.725,2.7,2.7,0,0,1,.208,1.1v2.775a1.136,1.136,0,0,0,.154.7.664.664,0,0,0,.53.181h.109V14h-.588a1.121,1.121,0,0,1-1.271-.909h-.055A2.568,2.568,0,0,1,30.314,14.13Zm.273-.957a1.793,1.793,0,0,0,1.442-.649,2.674,2.674,0,0,0,.547-1.777l-1.777.342a2.392,2.392,0,0,0-1.042.373.867.867,0,0,0-.338.735.857.857,0,0,0,.325.738A1.388,1.388,0,0,0,30.587,13.173ZM41.88,14a1.766,1.766,0,0,1-1.312-.482,1.823,1.823,0,0,1-.479-1.343V8.224H38.715V7.28h.506a.971.971,0,0,0,.742-.236,1.161,1.161,0,0,0,.215-.79V5.038h1.1V7.28h1.545v.943H41.279v3.828a1.019,1.019,0,0,0,.256.742.9.9,0,0,0,.673.263h.615V14Zm7.273-9.673L47.623,6.1h-.813l1.716-2.229Zm1.176,6.18-.014.321h-5.25a2.375,2.375,0,0,0,.643,1.719,2.11,2.11,0,0,0,1.531.6,2.015,2.015,0,0,0,1.114-.321,2.085,2.085,0,0,0,.766-.889l1.066.226A3.031,3.031,0,0,1,49.038,13.6a3.133,3.133,0,0,1-1.784.526,3.246,3.246,0,0,1-2.42-.937,3.484,3.484,0,0,1-.923-2.557,3.467,3.467,0,0,1,.926-2.55,3.206,3.206,0,0,1,2.382-.937,3.034,3.034,0,0,1,2.259.861A3.4,3.4,0,0,1,50.33,10.507ZM47.219,8.06a2.1,2.1,0,0,0-1.4.475,2.177,2.177,0,0,0-.708,1.384H49.14a2,2,0,0,0-.588-1.384A1.9,1.9,0,0,0,47.219,8.06Zm7.752,6.063a3.237,3.237,0,0,1-2.406-.964,3.438,3.438,0,0,1-.95-2.522,3.445,3.445,0,0,1,.947-2.522,3.5,3.5,0,0,1,4.354-.376,2.967,2.967,0,0,1,1.131,1.634L56.94,9.55A2.045,2.045,0,0,0,56.181,8.5a2.066,2.066,0,0,0-1.217-.369,1.987,1.987,0,0,0-1.555.69,2.63,2.63,0,0,0-.612,1.812,2.617,2.617,0,0,0,.612,1.808,1.991,1.991,0,0,0,1.555.687,2.066,2.066,0,0,0,1.217-.369,2.045,2.045,0,0,0,.759-1.046l1.107.185a2.97,2.97,0,0,1-1.138,1.63A3.255,3.255,0,0,1,54.971,14.123ZM62.962,7.15a2.337,2.337,0,0,1,1.692.608,2.269,2.269,0,0,1,.632,1.716V14H64.1V9.741a1.589,1.589,0,0,0-.41-1.2,1.466,1.466,0,0,0-1.053-.39,1.626,1.626,0,0,0-1.2.461,1.872,1.872,0,0,0-.472,1.371V14H59.791V7.28h1.183v.861A2.244,2.244,0,0,1,62.962,7.15ZM68.171,5.7a.805.805,0,0,1-.8-.8.758.758,0,0,1,.236-.561.775.775,0,0,1,.564-.232.767.767,0,0,1,.557.232.758.758,0,0,1,.236.561.77.77,0,0,1-.236.564A.762.762,0,0,1,68.171,5.7Zm-.6,8.3V7.28h1.189V14Zm6.385.123a3.237,3.237,0,0,1-2.406-.964,3.438,3.438,0,0,1-.95-2.522,3.445,3.445,0,0,1,.947-2.522A3.5,3.5,0,0,1,75.9,7.738a2.967,2.967,0,0,1,1.131,1.634l-1.107.178A2.045,2.045,0,0,0,75.165,8.5a2.066,2.066,0,0,0-1.217-.369,1.987,1.987,0,0,0-1.555.69,2.63,2.63,0,0,0-.612,1.812,2.617,2.617,0,0,0,.612,1.808,1.991,1.991,0,0,0,1.555.687,2.066,2.066,0,0,0,1.217-.369,2.045,2.045,0,0,0,.759-1.046l1.107.185a2.97,2.97,0,0,1-1.138,1.63A3.255,3.255,0,0,1,73.955,14.123Zm6.371.007a2.287,2.287,0,0,1-1.473-.461,1.657,1.657,0,0,1-.578-1.377,1.957,1.957,0,0,1,.185-.878,1.549,1.549,0,0,1,.547-.612,3.281,3.281,0,0,1,.79-.379,7.3,7.3,0,0,1,1.022-.243L81.9,10q.595-.109.595-.622a1.174,1.174,0,0,0-.42-1,1.713,1.713,0,0,0-1.063-.318,1.745,1.745,0,0,0-1.053.308,1.287,1.287,0,0,0-.5.943L78.4,9.085a2.052,2.052,0,0,1,.841-1.439,3.141,3.141,0,0,1,1.832-.482,3.716,3.716,0,0,1,.974.12,2.647,2.647,0,0,1,.813.376,1.686,1.686,0,0,1,.581.725,2.7,2.7,0,0,1,.208,1.1v2.775a1.136,1.136,0,0,0,.154.7.664.664,0,0,0,.53.181h.109V14h-.588a1.121,1.121,0,0,1-1.271-.909h-.055A2.568,2.568,0,0,1,80.326,14.13Zm.273-.957a1.793,1.793,0,0,0,1.442-.649,2.674,2.674,0,0,0,.547-1.777l-1.777.342a2.392,2.392,0,0,0-1.042.373.867.867,0,0,0-.338.735.857.857,0,0,0,.325.738A1.388,1.388,0,0,0,80.6,13.173ZM93.293,7.15A3.056,3.056,0,0,1,94.51,7.4a2.993,2.993,0,0,1,1,.69,3.227,3.227,0,0,1,.673,1.107,4.083,4.083,0,0,1,.25,1.449,3.553,3.553,0,0,1-.906,2.536,2.942,2.942,0,0,1-2.232.964,2.66,2.66,0,0,1-1.4-.383,2.509,2.509,0,0,1-.96-1.032v4.655H89.746V7.28h1.142l.027,1.306a2.46,2.46,0,0,1,.957-1.049A2.685,2.685,0,0,1,93.293,7.15Zm-.232,5.968a2.04,2.04,0,0,0,1.555-.68,2.53,2.53,0,0,0,.632-1.794,2.518,2.518,0,0,0-.632-1.791,2.121,2.121,0,0,0-3.134.031,2.52,2.52,0,0,0-.643,1.76,2.53,2.53,0,0,0,.643,1.767A2.05,2.05,0,0,0,93.061,13.118Zm6.788,1.012a2.287,2.287,0,0,1-1.473-.461,1.657,1.657,0,0,1-.578-1.377,1.957,1.957,0,0,1,.185-.878,1.549,1.549,0,0,1,.547-.612,3.281,3.281,0,0,1,.79-.379,7.3,7.3,0,0,1,1.022-.243L101.428,10q.595-.109.595-.622a1.174,1.174,0,0,0-.42-1,1.713,1.713,0,0,0-1.063-.318,1.745,1.745,0,0,0-1.053.308,1.287,1.287,0,0,0-.5.943l-1.066-.226a2.052,2.052,0,0,1,.841-1.439,3.141,3.141,0,0,1,1.832-.482,3.716,3.716,0,0,1,.974.12,2.647,2.647,0,0,1,.813.376,1.686,1.686,0,0,1,.581.725,2.7,2.7,0,0,1,.208,1.1v2.775a1.136,1.136,0,0,0,.154.7.664.664,0,0,0,.53.181h.109V14h-.588a1.121,1.121,0,0,1-1.271-.909h-.055A2.568,2.568,0,0,1,99.849,14.13Zm.273-.957a1.793,1.793,0,0,0,1.442-.649,2.674,2.674,0,0,0,.547-1.777l-1.777.342a2.392,2.392,0,0,0-1.042.373.867.867,0,0,0-.338.735.857.857,0,0,0,.325.738A1.388,1.388,0,0,0,100.123,13.173Zm6.665-4.71a2.032,2.032,0,0,1,.834-.9,2.512,2.512,0,0,1,1.292-.355V8.319a2.214,2.214,0,0,0-1.562.5,2.084,2.084,0,0,0-.537,1.593V14h-1.183V7.28h1.155Zm4.983,5.667a2.287,2.287,0,0,1-1.473-.461,1.657,1.657,0,0,1-.578-1.377,1.957,1.957,0,0,1,.185-.878,1.549,1.549,0,0,1,.547-.612,3.281,3.281,0,0,1,.79-.379,7.3,7.3,0,0,1,1.022-.243L113.35,10q.595-.109.595-.622a1.174,1.174,0,0,0-.42-1,1.713,1.713,0,0,0-1.063-.318,1.745,1.745,0,0,0-1.053.308,1.287,1.287,0,0,0-.5.943l-1.066-.226a2.052,2.052,0,0,1,.841-1.439,3.141,3.141,0,0,1,1.832-.482,3.716,3.716,0,0,1,.974.12,2.647,2.647,0,0,1,.813.376,1.686,1.686,0,0,1,.581.725,2.7,2.7,0,0,1,.208,1.1v2.775a1.136,1.136,0,0,0,.154.7.664.664,0,0,0,.53.181h.109V14H115.3a1.121,1.121,0,0,1-1.271-.909h-.055A2.568,2.568,0,0,1,111.771,14.13Zm.273-.957a1.793,1.793,0,0,0,1.442-.649,2.674,2.674,0,0,0,.547-1.777l-1.777.342a2.392,2.392,0,0,0-1.042.373.867.867,0,0,0-.338.735.857.857,0,0,0,.325.738A1.388,1.388,0,0,0,112.044,13.173Zm9.146.827V3.5h1.2V14Zm5.154.13a2.287,2.287,0,0,1-1.473-.461,1.657,1.657,0,0,1-.578-1.377,1.957,1.957,0,0,1,.185-.878,1.549,1.549,0,0,1,.547-.612,3.281,3.281,0,0,1,.79-.379,7.3,7.3,0,0,1,1.022-.243L127.924,10q.595-.109.595-.622a1.174,1.174,0,0,0-.42-1,1.713,1.713,0,0,0-1.063-.318,1.745,1.745,0,0,0-1.053.308,1.287,1.287,0,0,0-.5.943l-1.066-.226a2.052,2.052,0,0,1,.841-1.439,3.141,3.141,0,0,1,1.832-.482,3.716,3.716,0,0,1,.974.12,2.647,2.647,0,0,1,.813.376,1.686,1.686,0,0,1,.581.725,2.7,2.7,0,0,1,.208,1.1v2.775a1.136,1.136,0,0,0,.154.7.664.664,0,0,0,.53.181h.109V14h-.588a1.121,1.121,0,0,1-1.271-.909h-.055A2.568,2.568,0,0,1,126.345,14.13Zm.273-.957a1.793,1.793,0,0,0,1.442-.649,2.674,2.674,0,0,0,.547-1.777l-1.777.342a2.392,2.392,0,0,0-1.042.373.867.867,0,0,0-.338.735.857.857,0,0,0,.325.738A1.388,1.388,0,0,0,126.619,13.173Zm15.025-2.666-.014.321h-5.25a2.375,2.375,0,0,0,.643,1.719,2.11,2.11,0,0,0,1.531.6,2.015,2.015,0,0,0,1.114-.321,2.085,2.085,0,0,0,.766-.889l1.066.226a3.031,3.031,0,0,1-1.148,1.442,3.133,3.133,0,0,1-1.784.526,3.246,3.246,0,0,1-2.42-.937,3.484,3.484,0,0,1-.923-2.557,3.467,3.467,0,0,1,.926-2.55,3.206,3.206,0,0,1,2.382-.937,3.034,3.034,0,0,1,2.259.861A3.4,3.4,0,0,1,141.644,10.507Zm-3.11-2.447a2.1,2.1,0,0,0-1.4.475,2.177,2.177,0,0,0-.708,1.384h4.026a2,2,0,0,0-.588-1.384A1.9,1.9,0,0,0,138.534,8.06ZM143.5,14V3.5h1.2V14Zm5.154.13a2.287,2.287,0,0,1-1.473-.461,1.657,1.657,0,0,1-.578-1.377,1.957,1.957,0,0,1,.185-.878,1.549,1.549,0,0,1,.547-.612,3.28,3.28,0,0,1,.79-.379,7.3,7.3,0,0,1,1.022-.243L150.23,10q.595-.109.595-.622a1.174,1.174,0,0,0-.42-1,1.713,1.713,0,0,0-1.063-.318,1.745,1.745,0,0,0-1.053.308,1.287,1.287,0,0,0-.5.943l-1.066-.226a2.052,2.052,0,0,1,.841-1.439,3.141,3.141,0,0,1,1.832-.482,3.716,3.716,0,0,1,.974.12,2.647,2.647,0,0,1,.813.376,1.686,1.686,0,0,1,.581.725,2.7,2.7,0,0,1,.208,1.1v2.775a1.136,1.136,0,0,0,.154.7.664.664,0,0,0,.53.181h.109V14h-.588a1.121,1.121,0,0,1-1.271-.909h-.055A2.568,2.568,0,0,1,148.651,14.13Zm.273-.957a1.793,1.793,0,0,0,1.442-.649,2.674,2.674,0,0,0,.547-1.777l-1.777.342a2.392,2.392,0,0,0-1.042.373.867.867,0,0,0-.338.735.857.857,0,0,0,.325.738A1.388,1.388,0,0,0,148.924,13.173ZM158,7.15a2.928,2.928,0,0,1,2.222.971,3.541,3.541,0,0,1,.909,2.522,3.567,3.567,0,0,1-.9,2.529,2.922,2.922,0,0,1-2.229.971,2.7,2.7,0,0,1-1.432-.39,2.466,2.466,0,0,1-.96-1.06L155.576,14h-1.142V3.5h1.176l.007,5.065a2.477,2.477,0,0,1,.96-1.036A2.7,2.7,0,0,1,158,7.15Zm-.26,5.968a2.057,2.057,0,0,0,1.572-.687,2.528,2.528,0,0,0,.636-1.788,2.528,2.528,0,0,0-.636-1.788,2.057,2.057,0,0,0-1.572-.687,2.011,2.011,0,0,0-1.559.711,2.549,2.549,0,0,0-.636,1.764,2.554,2.554,0,0,0,.632,1.767A2.012,2.012,0,0,0,157.736,13.118Zm8.08,1.012a3.542,3.542,0,0,1-1.723-.417,3.036,3.036,0,0,1-1.213-1.22,3.748,3.748,0,0,1-.448-1.856,3.423,3.423,0,0,1,.954-2.533,3.578,3.578,0,0,1,4.864,0,3.43,3.43,0,0,1,.95,2.533,3.432,3.432,0,0,1-.954,2.54A3.292,3.292,0,0,1,165.816,14.13Zm-.007-.984a2.064,2.064,0,0,0,1.589-.69,2.587,2.587,0,0,0,.632-1.818,2.577,2.577,0,0,0-.632-1.812,2.064,2.064,0,0,0-1.589-.69,2.035,2.035,0,0,0-1.576.69,2.594,2.594,0,0,0-.625,1.812,2.6,2.6,0,0,0,.625,1.818A2.035,2.035,0,0,0,165.809,13.146Zm6.4-4.683a2.032,2.032,0,0,1,.834-.9,2.512,2.512,0,0,1,1.292-.355V8.319a2.214,2.214,0,0,0-1.562.5,2.084,2.084,0,0,0-.537,1.593V14h-1.183V7.28h1.155Zm4.983,5.667a2.287,2.287,0,0,1-1.473-.461,1.657,1.657,0,0,1-.578-1.377,1.957,1.957,0,0,1,.185-.878,1.549,1.549,0,0,1,.547-.612,3.28,3.28,0,0,1,.79-.379,7.3,7.3,0,0,1,1.022-.243L178.77,10q.595-.109.595-.622a1.174,1.174,0,0,0-.42-1,1.713,1.713,0,0,0-1.063-.318,1.745,1.745,0,0,0-1.053.308,1.287,1.287,0,0,0-.5.943l-1.066-.226a2.052,2.052,0,0,1,.841-1.439,3.141,3.141,0,0,1,1.832-.482,3.716,3.716,0,0,1,.974.12,2.647,2.647,0,0,1,.813.376,1.686,1.686,0,0,1,.581.725,2.7,2.7,0,0,1,.208,1.1v2.775a1.136,1.136,0,0,0,.154.7.664.664,0,0,0,.53.181h.109V14h-.588a1.121,1.121,0,0,1-1.271-.909h-.055A2.568,2.568,0,0,1,177.191,14.13Zm.273-.957a1.793,1.793,0,0,0,1.442-.649,2.674,2.674,0,0,0,.547-1.777l-1.777.342a2.392,2.392,0,0,0-1.042.373.867.867,0,0,0-.338.735.857.857,0,0,0,.325.738A1.388,1.388,0,0,0,177.464,13.173Zm8.162.95a3.237,3.237,0,0,1-2.406-.964,3.438,3.438,0,0,1-.95-2.522,3.445,3.445,0,0,1,.947-2.522,3.5,3.5,0,0,1,4.354-.376A2.967,2.967,0,0,1,188.7,9.372L187.6,9.55a2.045,2.045,0,0,0-.759-1.046,2.066,2.066,0,0,0-1.217-.369,1.987,1.987,0,0,0-1.555.69,2.63,2.63,0,0,0-.612,1.812,2.617,2.617,0,0,0,.612,1.808,1.991,1.991,0,0,0,1.555.687,2.066,2.066,0,0,0,1.217-.369,2.045,2.045,0,0,0,.759-1.046l1.107.185a2.97,2.97,0,0,1-1.138,1.63A3.255,3.255,0,0,1,185.626,14.123ZM191.047,5.7a.805.805,0,0,1-.8-.8.758.758,0,0,1,.236-.561.775.775,0,0,1,.564-.232.767.767,0,0,1,.557.232.758.758,0,0,1,.236.561.77.77,0,0,1-.236.564A.762.762,0,0,1,191.047,5.7Zm-.6,8.3V7.28h1.189V14Zm5.975-7.875L198.136,3.9l.629.458-1.531,1.771Zm.451,8a3.542,3.542,0,0,1-1.723-.417,3.036,3.036,0,0,1-1.213-1.22,3.748,3.748,0,0,1-.448-1.856,3.423,3.423,0,0,1,.954-2.533,3.578,3.578,0,0,1,4.864,0,3.43,3.43,0,0,1,.95,2.533,3.432,3.432,0,0,1-.954,2.54A3.292,3.292,0,0,1,196.872,14.13Zm-.007-.984a2.064,2.064,0,0,0,1.589-.69,2.587,2.587,0,0,0,.632-1.818,2.577,2.577,0,0,0-.632-1.812,2.064,2.064,0,0,0-1.589-.69,2.035,2.035,0,0,0-1.576.69,2.594,2.594,0,0,0-.625,1.812,2.6,2.6,0,0,0,.625,1.818A2.035,2.035,0,0,0,196.865,13.146Zm8.415-6a2.338,2.338,0,0,1,1.692.608,2.269,2.269,0,0,1,.632,1.716V14h-1.183V9.741a1.589,1.589,0,0,0-.41-1.2,1.466,1.466,0,0,0-1.053-.39,1.626,1.626,0,0,0-1.2.461,1.872,1.872,0,0,0-.472,1.371V14h-1.183V7.28h1.183v.861A2.244,2.244,0,0,1,205.28,7.15ZM12.561,21.5h1.183V32H12.6l-.027-1.306a2.473,2.473,0,0,1-.957,1.06,2.667,2.667,0,0,1-1.422.39A3.054,3.054,0,0,1,7.978,31.2,3.236,3.236,0,0,1,7.3,30.086a4.064,4.064,0,0,1-.25-1.442,3.533,3.533,0,0,1,.913-2.522A2.946,2.946,0,0,1,10.2,25.15a2.678,2.678,0,0,1,1.4.379,2.487,2.487,0,0,1,.96,1.029Zm-2.119,9.618A2.012,2.012,0,0,0,12,30.411a2.775,2.775,0,0,0,0-3.531,2.011,2.011,0,0,0-1.559-.711,2.056,2.056,0,0,0-1.572.687,2.831,2.831,0,0,0,0,3.575A2.056,2.056,0,0,0,10.442,31.118Zm11.587-2.611-.014.321h-5.25a2.375,2.375,0,0,0,.643,1.719,2.11,2.11,0,0,0,1.531.6,2.015,2.015,0,0,0,1.114-.321,2.085,2.085,0,0,0,.766-.889l1.066.226A3.031,3.031,0,0,1,20.737,31.6a3.133,3.133,0,0,1-1.784.526,3.246,3.246,0,0,1-2.42-.937,3.484,3.484,0,0,1-.923-2.557,3.467,3.467,0,0,1,.926-2.55,3.206,3.206,0,0,1,2.382-.937,3.034,3.034,0,0,1,2.259.861A3.4,3.4,0,0,1,22.029,28.507Zm-3.11-2.447a2.1,2.1,0,0,0-1.4.475,2.177,2.177,0,0,0-.708,1.384h4.026a2,2,0,0,0-.588-1.384A1.9,1.9,0,0,0,18.918,26.06Zm12.147-.909a3.056,3.056,0,0,1,1.217.246,2.993,2.993,0,0,1,1,.69,3.227,3.227,0,0,1,.673,1.107,4.084,4.084,0,0,1,.25,1.449A3.553,3.553,0,0,1,33.3,31.18a2.942,2.942,0,0,1-2.232.964,2.66,2.66,0,0,1-1.4-.383,2.509,2.509,0,0,1-.96-1.032v4.655H27.518V25.28H28.66l.027,1.306a2.46,2.46,0,0,1,.957-1.049A2.685,2.685,0,0,1,31.066,25.15Zm-.232,5.968a2.04,2.04,0,0,0,1.555-.68,2.857,2.857,0,0,0,0-3.585,2.121,2.121,0,0,0-3.134.031,2.742,2.742,0,0,0,0,3.527A2.05,2.05,0,0,0,30.833,31.118ZM38.9,32.13a3.542,3.542,0,0,1-1.723-.417,3.036,3.036,0,0,1-1.213-1.22,3.748,3.748,0,0,1-.448-1.856A3.423,3.423,0,0,1,36.47,26.1a3.578,3.578,0,0,1,4.864,0,3.43,3.43,0,0,1,.95,2.533,3.432,3.432,0,0,1-.954,2.54A3.292,3.292,0,0,1,38.9,32.13Zm-.007-.984a2.064,2.064,0,0,0,1.589-.69,2.921,2.921,0,0,0,0-3.63,2.064,2.064,0,0,0-1.589-.69,2.035,2.035,0,0,0-1.576.69,2.946,2.946,0,0,0,0,3.63A2.035,2.035,0,0,0,38.893,31.146ZM44.136,32V21.5h1.2V32Zm5.154.13a2.287,2.287,0,0,1-1.473-.461,1.657,1.657,0,0,1-.578-1.377,1.957,1.957,0,0,1,.185-.878,1.549,1.549,0,0,1,.547-.612,3.28,3.28,0,0,1,.79-.379,7.3,7.3,0,0,1,1.022-.243L50.87,28q.595-.109.595-.622a1.174,1.174,0,0,0-.42-1,1.713,1.713,0,0,0-1.063-.318,1.745,1.745,0,0,0-1.053.308,1.287,1.287,0,0,0-.5.943l-1.066-.226a2.052,2.052,0,0,1,.841-1.439,3.141,3.141,0,0,1,1.832-.482,3.716,3.716,0,0,1,.974.12,2.647,2.647,0,0,1,.813.376,1.686,1.686,0,0,1,.581.725,2.7,2.7,0,0,1,.208,1.1v2.775a1.136,1.136,0,0,0,.154.7.664.664,0,0,0,.53.181h.109V32h-.588a1.121,1.121,0,0,1-1.271-.909h-.055A2.568,2.568,0,0,1,49.291,32.13Zm.273-.957a1.793,1.793,0,0,0,1.442-.649,2.674,2.674,0,0,0,.547-1.777l-1.777.342a2.392,2.392,0,0,0-1.042.373.867.867,0,0,0-.338.735.857.857,0,0,0,.325.738A1.388,1.388,0,0,0,49.564,31.173ZM55.675,23.7a.805.805,0,0,1-.8-.8.758.758,0,0,1,.236-.561.775.775,0,0,1,.564-.232.767.767,0,0,1,.557.232.758.758,0,0,1,.236.561.77.77,0,0,1-.236.564A.762.762,0,0,1,55.675,23.7Zm-.6,8.3V25.28h1.189V32Zm6.768-6.85a2.337,2.337,0,0,1,1.692.608,2.269,2.269,0,0,1,.632,1.716V32H62.983V27.741a1.589,1.589,0,0,0-.41-1.2,1.466,1.466,0,0,0-1.053-.39,1.626,1.626,0,0,0-1.2.461,1.872,1.872,0,0,0-.472,1.371V32H58.669V25.28h1.183v.861A2.244,2.244,0,0,1,61.841,25.15ZM68,32.13a2.287,2.287,0,0,1-1.473-.461,1.657,1.657,0,0,1-.578-1.377,1.957,1.957,0,0,1,.185-.878,1.549,1.549,0,0,1,.547-.612,3.281,3.281,0,0,1,.79-.379,7.3,7.3,0,0,1,1.022-.243L69.58,28q.595-.109.595-.622a1.174,1.174,0,0,0-.42-1,1.713,1.713,0,0,0-1.063-.318,1.745,1.745,0,0,0-1.053.308,1.287,1.287,0,0,0-.5.943l-1.066-.226a2.052,2.052,0,0,1,.841-1.439,3.141,3.141,0,0,1,1.832-.482,3.716,3.716,0,0,1,.974.12,2.647,2.647,0,0,1,.813.376,1.686,1.686,0,0,1,.581.725,2.7,2.7,0,0,1,.208,1.1v2.775a1.136,1.136,0,0,0,.154.7.664.664,0,0,0,.53.181h.109V32h-.588a1.121,1.121,0,0,1-1.271-.909H70.2A2.568,2.568,0,0,1,68,32.13Zm.273-.957a1.793,1.793,0,0,0,1.442-.649,2.674,2.674,0,0,0,.547-1.777l-1.777.342a2.392,2.392,0,0,0-1.042.373.867.867,0,0,0-.338.735.857.857,0,0,0,.325.738A1.388,1.388,0,0,0,68.274,31.173Zm7.636.957a3.186,3.186,0,0,1-1.812-.485,2.007,2.007,0,0,1-.882-1.381l1.032-.294a1.44,1.44,0,0,0,.55.933,1.785,1.785,0,0,0,1.1.332,2.2,2.2,0,0,0,.646-.089,1.036,1.036,0,0,0,.5-.332.925.925,0,0,0,.144-.889,1.187,1.187,0,0,0-.109-.222.677.677,0,0,0-.191-.185,2.524,2.524,0,0,0-.232-.144,2.386,2.386,0,0,0-.3-.126q-.2-.072-.325-.109t-.376-.109l-.39-.113a7.288,7.288,0,0,1-.7-.246A3.058,3.058,0,0,1,74,28.346a1.306,1.306,0,0,1-.441-.53,1.792,1.792,0,0,1-.147-.752,1.738,1.738,0,0,1,.328-1.073,1.846,1.846,0,0,1,.851-.632,3.4,3.4,0,0,1,1.193-.195,2.92,2.92,0,0,1,1.637.438,1.867,1.867,0,0,1,.817,1.313l-.971.246a1.287,1.287,0,0,0-.513-.851,1.632,1.632,0,0,0-.964-.284,1.664,1.664,0,0,0-.9.236.793.793,0,0,0-.376.721.718.718,0,0,0,.1.373,1.183,1.183,0,0,0,.2.263,1.24,1.24,0,0,0,.369.2q.267.106.4.144t.492.126q.068.021.1.027.4.1.646.181a3.97,3.97,0,0,1,.581.246,1.932,1.932,0,0,1,.523.366,1.694,1.694,0,0,1,.328.52,1.834,1.834,0,0,1,.137.725,1.957,1.957,0,0,1-.2.906,1.577,1.577,0,0,1-.55.619,2.661,2.661,0,0,1-.783.338A3.729,3.729,0,0,1,75.91,32.13ZM87.442,25.15a2.928,2.928,0,0,1,2.222.971,3.541,3.541,0,0,1,.909,2.522,3.567,3.567,0,0,1-.9,2.529,2.922,2.922,0,0,1-2.229.971,2.7,2.7,0,0,1-1.432-.39,2.466,2.466,0,0,1-.96-1.06L85.022,32H83.88V21.5h1.176l.007,5.065a2.477,2.477,0,0,1,.96-1.036A2.7,2.7,0,0,1,87.442,25.15Zm-.26,5.968a2.056,2.056,0,0,0,1.572-.687,2.831,2.831,0,0,0,0-3.575,2.056,2.056,0,0,0-1.572-.687,2.011,2.011,0,0,0-1.559.711,2.775,2.775,0,0,0,0,3.531A2.012,2.012,0,0,0,87.182,31.118Zm6.8,1.012a2.287,2.287,0,0,1-1.473-.461,1.657,1.657,0,0,1-.578-1.377,1.957,1.957,0,0,1,.185-.878,1.549,1.549,0,0,1,.547-.612,3.281,3.281,0,0,1,.79-.379,7.3,7.3,0,0,1,1.022-.243L95.563,28q.595-.109.595-.622a1.174,1.174,0,0,0-.42-1,1.713,1.713,0,0,0-1.063-.318,1.745,1.745,0,0,0-1.053.308,1.287,1.287,0,0,0-.5.943l-1.066-.226a2.052,2.052,0,0,1,.841-1.439,3.141,3.141,0,0,1,1.832-.482,3.716,3.716,0,0,1,.974.12,2.647,2.647,0,0,1,.813.376,1.686,1.686,0,0,1,.581.725,2.7,2.7,0,0,1,.208,1.1v2.775a1.136,1.136,0,0,0,.154.7.664.664,0,0,0,.53.181H98.1V32h-.588a1.121,1.121,0,0,1-1.271-.909h-.055A2.568,2.568,0,0,1,93.984,32.13Zm.273-.957a1.793,1.793,0,0,0,1.442-.649,2.674,2.674,0,0,0,.547-1.777l-1.777.342a2.392,2.392,0,0,0-1.042.373.867.867,0,0,0-.338.735.857.857,0,0,0,.325.738A1.388,1.388,0,0,0,94.257,31.173Zm6.118-7.472a.805.805,0,0,1-.8-.8.758.758,0,0,1,.236-.561.775.775,0,0,1,.564-.232.767.767,0,0,1,.557.232.758.758,0,0,1,.236.561.77.77,0,0,1-.236.564A.762.762,0,0,1,100.375,23.7ZM98.222,35.145v-1a1.923,1.923,0,0,0,.964-.191,1.048,1.048,0,0,0,.451-.656,5.527,5.527,0,0,0,.13-1.388V25.28h1.2V31.9a3.908,3.908,0,0,1-.622,2.509A2.654,2.654,0,0,1,98.222,35.145Zm6.706-3.015a2.287,2.287,0,0,1-1.473-.461,1.657,1.657,0,0,1-.578-1.377,1.957,1.957,0,0,1,.185-.878,1.549,1.549,0,0,1,.547-.612,3.281,3.281,0,0,1,.79-.379,7.3,7.3,0,0,1,1.022-.243L106.507,28q.595-.109.595-.622a1.174,1.174,0,0,0-.42-1,1.713,1.713,0,0,0-1.063-.318,1.745,1.745,0,0,0-1.053.308,1.287,1.287,0,0,0-.5.943L103,27.085a2.052,2.052,0,0,1,.841-1.439,3.141,3.141,0,0,1,1.832-.482,3.716,3.716,0,0,1,.974.12,2.647,2.647,0,0,1,.813.376,1.686,1.686,0,0,1,.581.725,2.7,2.7,0,0,1,.208,1.1v2.775a1.136,1.136,0,0,0,.154.7.664.664,0,0,0,.53.181h.109V32h-.588a1.121,1.121,0,0,1-1.271-.909h-.055A2.568,2.568,0,0,1,104.928,32.13Zm.273-.957a1.793,1.793,0,0,0,1.442-.649,2.674,2.674,0,0,0,.547-1.777l-1.777.342a2.392,2.392,0,0,0-1.042.373.867.867,0,0,0-.338.735.857.857,0,0,0,.325.738A1.388,1.388,0,0,0,105.2,31.173Zm7.636.957a3.186,3.186,0,0,1-1.812-.485,2.007,2.007,0,0,1-.882-1.381l1.032-.294a1.44,1.44,0,0,0,.55.933,1.785,1.785,0,0,0,1.1.332,2.2,2.2,0,0,0,.646-.089,1.036,1.036,0,0,0,.5-.332.925.925,0,0,0,.144-.889,1.187,1.187,0,0,0-.109-.222.677.677,0,0,0-.191-.185,2.524,2.524,0,0,0-.232-.144,2.386,2.386,0,0,0-.3-.126q-.2-.072-.325-.109t-.376-.109l-.39-.113a7.288,7.288,0,0,1-.7-.246,3.058,3.058,0,0,1-.567-.325,1.306,1.306,0,0,1-.441-.53,1.792,1.792,0,0,1-.147-.752,1.738,1.738,0,0,1,.328-1.073,1.846,1.846,0,0,1,.851-.632,3.4,3.4,0,0,1,1.193-.195,2.92,2.92,0,0,1,1.637.438,1.867,1.867,0,0,1,.817,1.313l-.971.246a1.287,1.287,0,0,0-.513-.851,1.632,1.632,0,0,0-.964-.284,1.664,1.664,0,0,0-.9.236.793.793,0,0,0-.376.721.718.718,0,0,0,.1.373,1.183,1.183,0,0,0,.2.263,1.24,1.24,0,0,0,.369.2q.267.106.4.144t.492.126q.068.021.1.027.4.1.646.181a3.97,3.97,0,0,1,.581.246,1.932,1.932,0,0,1,.523.366,1.694,1.694,0,0,1,.328.52,1.834,1.834,0,0,1,.137.725,1.957,1.957,0,0,1-.2.906,1.577,1.577,0,0,1-.55.619,2.661,2.661,0,0,1-.783.338A3.729,3.729,0,0,1,112.837,32.13Zm11.184-6.979a2.245,2.245,0,0,1,1.661.622,2.415,2.415,0,0,1,.622,1.784V32h-1.183V27.782a1.653,1.653,0,0,0-.41-1.237,1.461,1.461,0,0,0-1.06-.4,1.626,1.626,0,0,0-1.186.458,1.862,1.862,0,0,0-.475,1.374V32h-1.183V21.5h1.183v4.669a2.186,2.186,0,0,1,.844-.752A2.574,2.574,0,0,1,124.021,25.15Zm7.39,6.979a3.542,3.542,0,0,1-1.723-.417,3.036,3.036,0,0,1-1.213-1.22,3.748,3.748,0,0,1-.448-1.856,3.423,3.423,0,0,1,.954-2.533,3.578,3.578,0,0,1,4.864,0,3.43,3.43,0,0,1,.95,2.533,3.432,3.432,0,0,1-.954,2.54A3.292,3.292,0,0,1,131.411,32.13Zm-.007-.984a2.064,2.064,0,0,0,1.589-.69,2.921,2.921,0,0,0,0-3.63,2.064,2.064,0,0,0-1.589-.69,2.035,2.035,0,0,0-1.576.69,2.946,2.946,0,0,0,0,3.63A2.035,2.035,0,0,0,131.4,31.146Zm7.369.984a3.186,3.186,0,0,1-1.812-.485,2.007,2.007,0,0,1-.882-1.381l1.032-.294a1.44,1.44,0,0,0,.55.933,1.785,1.785,0,0,0,1.1.332,2.2,2.2,0,0,0,.646-.089,1.036,1.036,0,0,0,.5-.332.925.925,0,0,0,.144-.889,1.187,1.187,0,0,0-.109-.222.677.677,0,0,0-.191-.185,2.525,2.525,0,0,0-.232-.144,2.385,2.385,0,0,0-.3-.126q-.2-.072-.325-.109t-.376-.109l-.39-.113a7.29,7.29,0,0,1-.7-.246,3.058,3.058,0,0,1-.567-.325,1.306,1.306,0,0,1-.441-.53,1.793,1.793,0,0,1-.147-.752,1.738,1.738,0,0,1,.328-1.073,1.846,1.846,0,0,1,.851-.632,3.4,3.4,0,0,1,1.193-.195,2.92,2.92,0,0,1,1.637.438,1.867,1.867,0,0,1,.817,1.313l-.971.246a1.287,1.287,0,0,0-.513-.851,1.632,1.632,0,0,0-.964-.284,1.664,1.664,0,0,0-.9.236.793.793,0,0,0-.376.721.718.718,0,0,0,.1.373,1.183,1.183,0,0,0,.2.263,1.24,1.24,0,0,0,.369.2q.267.106.4.144t.492.126q.068.021.1.027.4.1.646.181a3.97,3.97,0,0,1,.581.246,1.932,1.932,0,0,1,.523.366,1.694,1.694,0,0,1,.328.52,1.834,1.834,0,0,1,.137.725,1.957,1.957,0,0,1-.2.906,1.577,1.577,0,0,1-.55.619,2.662,2.662,0,0,1-.783.338A3.729,3.729,0,0,1,138.773,32.13Zm7.882-6.979a3.056,3.056,0,0,1,1.217.246,2.993,2.993,0,0,1,1,.69,3.227,3.227,0,0,1,.673,1.107,4.084,4.084,0,0,1,.25,1.449,3.553,3.553,0,0,1-.906,2.536,2.942,2.942,0,0,1-2.232.964,2.66,2.66,0,0,1-1.4-.383,2.509,2.509,0,0,1-.96-1.032v4.655h-1.183V25.28h1.142l.027,1.306a2.46,2.46,0,0,1,.957-1.049A2.685,2.685,0,0,1,146.655,25.15Zm-.232,5.968a2.04,2.04,0,0,0,1.555-.68,2.857,2.857,0,0,0,0-3.585,2.121,2.121,0,0,0-3.134.031,2.742,2.742,0,0,0,0,3.527A2.05,2.05,0,0,0,146.422,31.118ZM152.26,23.7a.805.805,0,0,1-.8-.8.758.758,0,0,1,.236-.561.775.775,0,0,1,.564-.232.767.767,0,0,1,.557.232.758.758,0,0,1,.236.561.77.77,0,0,1-.236.564A.762.762,0,0,1,152.26,23.7Zm-.6,8.3V25.28h1.189V32Zm5.742,0a1.766,1.766,0,0,1-1.312-.482,1.823,1.823,0,0,1-.479-1.343V26.224h-1.374V25.28h.506a.971.971,0,0,0,.742-.236,1.161,1.161,0,0,0,.215-.79V23.038h1.1V25.28h1.545v.943H156.8v3.828a1.019,1.019,0,0,0,.256.742.9.9,0,0,0,.673.263h.615V32Zm4.122.13a2.287,2.287,0,0,1-1.473-.461,1.657,1.657,0,0,1-.578-1.377,1.957,1.957,0,0,1,.185-.878,1.549,1.549,0,0,1,.547-.612,3.28,3.28,0,0,1,.79-.379,7.3,7.3,0,0,1,1.022-.243L163.1,28q.595-.109.595-.622a1.174,1.174,0,0,0-.42-1,1.713,1.713,0,0,0-1.063-.318,1.745,1.745,0,0,0-1.053.308,1.287,1.287,0,0,0-.5.943l-1.066-.226a2.052,2.052,0,0,1,.841-1.439,3.141,3.141,0,0,1,1.832-.482,3.716,3.716,0,0,1,.974.12,2.647,2.647,0,0,1,.813.376,1.686,1.686,0,0,1,.581.725,2.7,2.7,0,0,1,.208,1.1v2.775a1.136,1.136,0,0,0,.154.7.664.664,0,0,0,.53.181h.109V32h-.588a1.121,1.121,0,0,1-1.271-.909h-.055A2.568,2.568,0,0,1,161.523,32.13Zm.273-.957a1.793,1.793,0,0,0,1.442-.649,2.674,2.674,0,0,0,.547-1.777l-1.777.342a2.392,2.392,0,0,0-1.042.373.867.867,0,0,0-.338.735.857.857,0,0,0,.325.738A1.388,1.388,0,0,0,161.8,31.173Zm5.51.827V21.5h1.2V32Zm5.154.13a2.287,2.287,0,0,1-1.473-.461,1.657,1.657,0,0,1-.578-1.377,1.957,1.957,0,0,1,.185-.878,1.549,1.549,0,0,1,.547-.612,3.28,3.28,0,0,1,.79-.379,7.3,7.3,0,0,1,1.022-.243L174.04,28q.595-.109.595-.622a1.174,1.174,0,0,0-.42-1,1.713,1.713,0,0,0-1.063-.318,1.745,1.745,0,0,0-1.053.308,1.287,1.287,0,0,0-.5.943l-1.066-.226a2.052,2.052,0,0,1,.841-1.439,3.141,3.141,0,0,1,1.832-.482,3.716,3.716,0,0,1,.974.12,2.647,2.647,0,0,1,.813.376,1.686,1.686,0,0,1,.581.725,2.7,2.7,0,0,1,.208,1.1v2.775a1.136,1.136,0,0,0,.154.7.664.664,0,0,0,.53.181h.109V32h-.588a1.121,1.121,0,0,1-1.271-.909h-.055A2.568,2.568,0,0,1,172.46,32.13Zm.273-.957a1.793,1.793,0,0,0,1.442-.649,2.674,2.674,0,0,0,.547-1.777l-1.777.342a2.392,2.392,0,0,0-1.042.373.867.867,0,0,0-.338.735.857.857,0,0,0,.325.738A1.388,1.388,0,0,0,172.734,31.173Zm6.665-4.71a2.032,2.032,0,0,1,.834-.9,2.512,2.512,0,0,1,1.292-.355v1.114a2.214,2.214,0,0,0-1.562.5,2.084,2.084,0,0,0-.537,1.593V32h-1.183V25.28H179.4Zm4.115-2.762a.805.805,0,0,1-.8-.8.758.758,0,0,1,.236-.561.775.775,0,0,1,.564-.232.767.767,0,0,1,.557.232.758.758,0,0,1,.236.561.77.77,0,0,1-.236.564A.762.762,0,0,1,183.514,23.7Zm-.6,8.3V25.28H184.1V32Zm5.147.13a2.287,2.287,0,0,1-1.473-.461,1.657,1.657,0,0,1-.578-1.377,1.957,1.957,0,0,1,.185-.878,1.549,1.549,0,0,1,.547-.612,3.28,3.28,0,0,1,.79-.379,7.3,7.3,0,0,1,1.022-.243L189.639,28q.595-.109.595-.622a1.174,1.174,0,0,0-.42-1,1.713,1.713,0,0,0-1.063-.318,1.745,1.745,0,0,0-1.053.308,1.287,1.287,0,0,0-.5.943l-1.066-.226a2.052,2.052,0,0,1,.841-1.439,3.141,3.141,0,0,1,1.832-.482,3.716,3.716,0,0,1,.974.12,2.647,2.647,0,0,1,.813.376,1.686,1.686,0,0,1,.581.725,2.7,2.7,0,0,1,.208,1.1v2.775a1.136,1.136,0,0,0,.154.7.664.664,0,0,0,.53.181h.109V32h-.588a1.121,1.121,0,0,1-1.271-.909h-.055A2.568,2.568,0,0,1,188.06,32.13Zm.273-.957a1.793,1.793,0,0,0,1.442-.649,2.674,2.674,0,0,0,.547-1.777l-1.777.342a2.392,2.392,0,0,0-1.042.373.867.867,0,0,0-.338.735.857.857,0,0,0,.325.738A1.388,1.388,0,0,0,188.333,31.173Zm7.636.957a3.186,3.186,0,0,1-1.812-.485,2.007,2.007,0,0,1-.882-1.381l1.032-.294a1.44,1.44,0,0,0,.55.933,1.785,1.785,0,0,0,1.1.332,2.2,2.2,0,0,0,.646-.089,1.036,1.036,0,0,0,.5-.332.925.925,0,0,0,.144-.889,1.187,1.187,0,0,0-.109-.222.677.677,0,0,0-.191-.185,2.525,2.525,0,0,0-.232-.144,2.385,2.385,0,0,0-.3-.126q-.2-.072-.325-.109t-.376-.109l-.39-.113a7.29,7.29,0,0,1-.7-.246,3.058,3.058,0,0,1-.567-.325,1.306,1.306,0,0,1-.441-.53,1.793,1.793,0,0,1-.147-.752,1.738,1.738,0,0,1,.328-1.073,1.846,1.846,0,0,1,.851-.632,3.4,3.4,0,0,1,1.193-.195,2.92,2.92,0,0,1,1.637.438,1.867,1.867,0,0,1,.817,1.313l-.971.246a1.287,1.287,0,0,0-.513-.851,1.632,1.632,0,0,0-.964-.284,1.664,1.664,0,0,0-.9.236.793.793,0,0,0-.376.721.718.718,0,0,0,.1.373,1.183,1.183,0,0,0,.2.263,1.24,1.24,0,0,0,.369.2q.267.106.4.144t.492.126q.068.021.1.027.4.1.646.181a3.97,3.97,0,0,1,.581.246,1.932,1.932,0,0,1,.523.366,1.694,1.694,0,0,1,.328.52,1.834,1.834,0,0,1,.137.725,1.957,1.957,0,0,1-.2.906,1.577,1.577,0,0,1-.55.619,2.662,2.662,0,0,1-.783.338A3.729,3.729,0,0,1,195.969,32.13Zm5.373.007a.767.767,0,0,1-.557-.232.795.795,0,0,1,.557-1.354.773.773,0,0,1,.561.236.776.776,0,0,1,0,1.118A.775.775,0,0,1,201.342,32.137Z" transform="translate(3880.173 -1403)" fill="#00223d"/>
    <rect id="Rectángulo_3304" data-name="Rectángulo 3304" width="194" height="49" rx="3" transform="translate(3889 -1344)" fill="#5799ab"/>
    <g id="Grupo_13526" data-name="Grupo 13526" transform="translate(3921.228 -1334.075)">
      <g id="Grupo_867" data-name="Grupo 867">
        <path id="Trazado_1157" data-name="Trazado 1157" d="M815.839,2604.383a1.743,1.743,0,0,0-1.738,1.738v24.327a1.744,1.744,0,0,0,1.738,1.738h17.376a1.743,1.743,0,0,0,1.738-1.738v-19.114L828,2604.383Z" transform="translate(-810.626 -2604.383)" fill="#f2f2f2"/>
        <path id="Trazado_1160" data-name="Trazado 1160" d="M826.79,2644.553a.869.869,0,0,1-.869.869H806.807a.869.869,0,0,1-.869-.869v-8.688a.869.869,0,0,1,.869-.869h19.114a.869.869,0,0,1,.869.869Z" transform="translate(-805.938 -2621.963)" fill="#f15642"/>
        <g id="Grupo_855" data-name="Grupo 855" transform="translate(3.787 15.982)">
          <path id="Trazado_1161" data-name="Trazado 1161" d="M814.834,2642.4a.478.478,0,0,1,.472-.479h1.6a1.738,1.738,0,0,1,0,3.476h-1.159v.917a.434.434,0,0,1-.387.477.411.411,0,0,1-.057,0,.467.467,0,0,1-.472-.464V2642.4Zm.917.4v1.731h1.16a.869.869,0,0,0,0-1.731Z" transform="translate(-814.834 -2641.924)" fill="#fff"/>
          <path id="Trazado_1162" data-name="Trazado 1162" d="M826.293,2646.868a.434.434,0,0,1-.477-.387c0-.016,0-.032,0-.048v-3.946a.472.472,0,0,1,.479-.434h1.591c3.175,0,3.105,4.807.063,4.807Zm.435-3.959v3.113h1.153c1.876,0,1.959-3.113,0-3.113Z" transform="translate(-821.14 -2641.998)" fill="#fff"/>
          <path id="Trazado_1163" data-name="Trazado 1163" d="M839.39,2642.97v1.1h1.771a.536.536,0,0,1,.5.492.484.484,0,0,1-.5.417H839.39v1.458a.411.411,0,0,1-.393.43h-.023a.441.441,0,0,1-.49-.387c0-.014,0-.028,0-.043V2642.5a.439.439,0,0,1,.44-.438.389.389,0,0,1,.053,0h2.439a.435.435,0,0,1,.484.379.475.475,0,0,1-.483.528H839.39Z" transform="translate(-828.414 -2642.002)" fill="#fff"/>
        </g>
        <path id="Trazado_1164" data-name="Trazado 1164" d="M830.609,2658.314H814.1v.869h16.508a.869.869,0,0,0,.869-.869v-.869A.869.869,0,0,1,830.609,2658.314Z" transform="translate(-810.626 -2634.855)" fill="#e6e6e6"/>
        <path id="Trazado_1158" data-name="Trazado 1158" d="M848.493,2611.334h5.213l-6.951-6.951v5.213A1.743,1.743,0,0,0,848.493,2611.334Z" transform="translate(-829.378 -2604.383)" fill="#b3b3b3"/>
      </g>
    </g>
    <path id="Trazado_20061" data-name="Trazado 20061" d="M1.278,16.522V4.122H5.766a7,7,0,0,1,2.587.446,4.766,4.766,0,0,1,1.854,1.266,5.507,5.507,0,0,1,1.1,1.952,8.06,8.06,0,0,1,.373,2.532,8.09,8.09,0,0,1-.373,2.54,5.507,5.507,0,0,1-1.1,1.952,4.766,4.766,0,0,1-1.854,1.266,7,7,0,0,1-2.587.446Zm2.574-2.274H5.638A3.046,3.046,0,0,0,8.144,13.24a4.519,4.519,0,0,0,.824-2.922A4.519,4.519,0,0,0,8.144,7.4,3.046,3.046,0,0,0,5.638,6.388H3.853Zm18.21-2.266-.026.592H15.5a2.284,2.284,0,0,0,.7,1.613,2.25,2.25,0,0,0,1.553.558,2.169,2.169,0,0,0,1.163-.3,1.873,1.873,0,0,0,.742-.888l2.266.335a3.851,3.851,0,0,1-1.545,2.068,4.593,4.593,0,0,1-2.609.738,4.776,4.776,0,0,1-3.437-1.214,4.431,4.431,0,0,1-1.274-3.368,4.457,4.457,0,0,1,1.279-3.368,4.634,4.634,0,0,1,3.355-1.231,4.429,4.429,0,0,1,3.167,1.124A4.41,4.41,0,0,1,22.063,11.983Zm-4.351-2.72a1.953,1.953,0,0,0-2.145,1.7h4.051A1.858,1.858,0,0,0,19.008,9.7,1.931,1.931,0,0,0,17.712,9.262Zm9.337,7.432a4.93,4.93,0,0,1-2.574-.618,2.612,2.612,0,0,1-1.261-1.836l2.068-.584a1.662,1.662,0,0,0,1.768,1.313,1.826,1.826,0,0,0,.9-.2.7.7,0,0,0,.352-.682.722.722,0,0,0-.146-.455,1.156,1.156,0,0,0-.451-.326,5.613,5.613,0,0,0-.6-.232q-.3-.094-.785-.227t-.815-.253a5.461,5.461,0,0,1-.777-.33,3.313,3.313,0,0,1-.644-.455,1.833,1.833,0,0,1-.481-.691,2.492,2.492,0,0,1-.167-.944A2.254,2.254,0,0,1,24.393,8.2a4.275,4.275,0,0,1,2.5-.669A4.383,4.383,0,0,1,29.2,8.1a2.563,2.563,0,0,1,1.184,1.768l-1.914.429A1.5,1.5,0,0,0,26.9,9.177a1.72,1.72,0,0,0-.867.2.634.634,0,0,0-.343.584.669.669,0,0,0,.051.266.527.527,0,0,0,.18.215,2.628,2.628,0,0,0,.249.163,1.878,1.878,0,0,0,.352.142q.232.073.386.112l.451.116.459.12q.472.129.828.257a4.85,4.85,0,0,1,.759.36,2.726,2.726,0,0,1,.665.519,2.316,2.316,0,0,1,.433.729,2.694,2.694,0,0,1,.172.983,2.654,2.654,0,0,1-.3,1.279,2.222,2.222,0,0,1-.811.862,3.947,3.947,0,0,1-1.146.463A5.943,5.943,0,0,1,27.049,16.694Zm9.4-.009a4.713,4.713,0,0,1-3.407-1.27A4.387,4.387,0,0,1,31.717,12.1,4.377,4.377,0,0,1,33.034,8.79,5.237,5.237,0,0,1,39.3,8.379a3.793,3.793,0,0,1,1.476,2.394l-2.283.249a1.956,1.956,0,0,0-.738-1.159,2.244,2.244,0,0,0-1.339-.386,2.023,2.023,0,0,0-1.613.721,2.826,2.826,0,0,0-.618,1.905,2.83,2.83,0,0,0,.618,1.9,2.018,2.018,0,0,0,1.613.725,2.225,2.225,0,0,0,1.334-.386,2,2,0,0,0,.742-1.159l2.283.249a3.8,3.8,0,0,1-1.489,2.394A4.681,4.681,0,0,1,36.446,16.686Zm13.327-2.557a8.253,8.253,0,0,0,.215,2.154v.24H47.679l-.2-.961a2.868,2.868,0,0,1-1.236.85,4.554,4.554,0,0,1-1.6.283,4.2,4.2,0,0,1-.824-.077,2.8,2.8,0,0,1-.742-.262,2.253,2.253,0,0,1-.614-.459,2.013,2.013,0,0,1-.412-.7,2.786,2.786,0,0,1-.154-.957,2.653,2.653,0,0,1,.163-.957,2.243,2.243,0,0,1,.429-.717,2.6,2.6,0,0,1,.7-.523,5.319,5.319,0,0,1,.875-.378,10.459,10.459,0,0,1,1.047-.275l1.45-.326a1.6,1.6,0,0,0,.656-.279.556.556,0,0,0,.193-.442.91.91,0,0,0-.433-.85,2.024,2.024,0,0,0-1.051-.257A1.513,1.513,0,0,0,44.2,10.584l-2.188-.395a2.962,2.962,0,0,1,1.279-2.012,5.082,5.082,0,0,1,2.772-.648q3.707,0,3.707,3.184Zm-4.351.892a1.988,1.988,0,0,0,1.528-.639,2.694,2.694,0,0,0,.592-1.892l-2.094.592a2.475,2.475,0,0,0-.88.36.74.74,0,0,0-.3.635.822.822,0,0,0,.326.7A1.35,1.35,0,0,0,45.422,15.021ZM54.544,9.1A2.864,2.864,0,0,1,55.7,8.04,3.535,3.535,0,0,1,57.428,7.6V9.8a3.342,3.342,0,0,0-2.111.532,2.323,2.323,0,0,0-.652,1.888v4.3H52.176V7.7h2.369ZM64.9,7.7h2.351v8.161a6.6,6.6,0,0,1-.33,2.2,3.623,3.623,0,0,1-.957,1.506,3.988,3.988,0,0,1-1.467.845,6.187,6.187,0,0,1-1.922.275q-3.493,0-4.548-2.738l2.051-.875a2.993,2.993,0,0,0,.953,1.279,2.428,2.428,0,0,0,1.45.412q2.291,0,2.291-2.72v-1.03a2.779,2.779,0,0,1-1.111.871,3.7,3.7,0,0,1-1.566.33,3.951,3.951,0,0,1-2.832-1.189,4.075,4.075,0,0,1-.871-1.386,5.123,5.123,0,0,1,0-3.574A3.911,3.911,0,0,1,59.268,8.7a4.028,4.028,0,0,1,1.287-.858,3.973,3.973,0,0,1,1.558-.309,3.588,3.588,0,0,1,1.635.365,2.607,2.607,0,0,1,1.094.974Zm-3.789,5.835a2.264,2.264,0,0,0,3.24-.009,2.466,2.466,0,0,0,0-3.355,2.284,2.284,0,0,0-3.252-.013,2.347,2.347,0,0,0-.648,1.695A2.323,2.323,0,0,0,61.113,13.536Zm15.94.592a8.253,8.253,0,0,0,.215,2.154v.24H74.96l-.2-.961a2.868,2.868,0,0,1-1.236.85,4.554,4.554,0,0,1-1.6.283,4.2,4.2,0,0,1-.824-.077,2.8,2.8,0,0,1-.742-.262,2.253,2.253,0,0,1-.614-.459,2.013,2.013,0,0,1-.412-.7,2.786,2.786,0,0,1-.154-.957,2.654,2.654,0,0,1,.163-.957,2.243,2.243,0,0,1,.429-.717,2.6,2.6,0,0,1,.7-.523,5.319,5.319,0,0,1,.875-.378,10.459,10.459,0,0,1,1.047-.275l1.45-.326a1.6,1.6,0,0,0,.656-.279.556.556,0,0,0,.193-.442.91.91,0,0,0-.433-.85,2.024,2.024,0,0,0-1.051-.257,1.513,1.513,0,0,0-1.725,1.347L69.3,10.189a2.962,2.962,0,0,1,1.279-2.012,5.082,5.082,0,0,1,2.772-.648q3.707,0,3.707,3.184Zm-4.351.892a1.988,1.988,0,0,0,1.528-.639,2.694,2.694,0,0,0,.592-1.892l-2.094.592a2.475,2.475,0,0,0-.88.36.74.74,0,0,0-.3.635.822.822,0,0,0,.326.7A1.35,1.35,0,0,0,72.7,15.021ZM81.825,9.1a2.864,2.864,0,0,1,1.159-1.06A3.535,3.535,0,0,1,84.708,7.6V9.8a3.342,3.342,0,0,0-2.111.532,2.323,2.323,0,0,0-.652,1.888v4.3H79.457V7.7h2.369Z" transform="translate(3956.198 -1329.118)" fill="#fff"/>
  </g>
</svg>
