<svg xmlns="http://www.w3.org/2000/svg" width="265" height="414.95" viewBox="0 0 265 414.95">
  <g id="Grupo_13608" data-name="Grupo 13608" transform="translate(-4331 1803.95)">
    <rect id="Rectángulo_3322" data-name="Rectángulo 3322" width="265" height="281" rx="7" transform="translate(4331 -1692)" fill="#e8eef3"/>
    <circle id="Elipse_861" data-name="Elipse 861" cx="111.9" cy="111.9" r="111.9" transform="translate(4352 -1803.95)" fill="#ff9100"/>
    <circle id="Elipse_862" data-name="Elipse 862" cx="106.3" cy="106.3" r="106.3" transform="translate(4357 -1798.35)" fill="#fff"/>
    <line id="Línea_246" data-name="Línea 246" x2="218" transform="translate(4354.5 -1508.5)" fill="none" stroke="#707070" stroke-width="3" opacity="0.2"/>
    <g id="Grupo_13604" data-name="Grupo 13604" transform="translate(-703.743 450.368)">
      <g id="Grupo_13276" data-name="Grupo 13276" transform="translate(5091.743 -2212.364)">
        <circle id="Elipse_515" data-name="Elipse 515" cx="71.014" cy="71.014" r="71.014" transform="translate(4.249)" fill="#d1d3d4"/>
        <g id="Grupo_13275" data-name="Grupo 13275" transform="translate(0 19.902)">
          <g id="Grupo_13274" data-name="Grupo 13274">
            <g id="Grupo_13272" data-name="Grupo 13272" transform="translate(1.601 1.601)">
              <path id="Trazado_19679" data-name="Trazado 19679" d="M3534.144,5048.043a24.415,24.415,0,0,1,2.381,1.646A21.317,21.317,0,0,1,3534.144,5048.043Z" transform="translate(-3425.811 -4991.127)" fill="#ebedf0"/>
              <path id="Trazado_19680" data-name="Trazado 19680" d="M3311.216,5050.757a64.271,64.271,0,0,1-24.727,5.453c-.367,0-.736.023-1.13.023h-3.486c-.811,0-1.6,0-2.333-.023a64.253,64.253,0,0,1-24.554-5.453c-9.649-4.417-15.96-11.1-15.96-18.488,0-3.954,2.75-7.611,6.949-10.73.024-.026.051-.05.074-.05a21.5,21.5,0,0,0,2.381-1.646,67.17,67.17,0,0,1,69.342,0,21.449,21.449,0,0,0,2.381,1.646c.024,0,.05.024.074.05,4.2,3.12,6.949,6.776,6.949,10.73C3327.176,5039.66,3320.865,5046.34,3311.216,5050.757Z" transform="translate(-3209.438 -4962.928)" fill="#ebedf0"/>
              <path id="Trazado_19681" data-name="Trazado 19681" d="M3267.728,5048.043a21.368,21.368,0,0,1-2.381,1.646A24.364,24.364,0,0,1,3267.728,5048.043Z" transform="translate(-3228.736 -4991.127)" fill="#ebedf0"/>
              <path id="Trazado_19682" data-name="Trazado 19682" d="M3238.928,4893.349c-.024-.026-.051-.05-.075-.05a24.1,24.1,0,0,0-2.381-1.646,67.166,67.166,0,0,0-69.342,0,24.1,24.1,0,0,0-2.381,1.646c-.024,0-.05.023-.074.05-4.2,3.12-6.949,6.776-6.949,10.73,0,7.391,6.311,14.071,15.96,18.488a64.244,64.244,0,0,0,24.554,5.453c.736.024,1.522.024,2.333.024h3.486c.394,0,.763-.024,1.129-.024a64.255,64.255,0,0,0,24.727-5.453c9.649-4.417,15.96-11.1,15.96-18.488C3245.877,4900.125,3243.127,4896.469,3238.928,4893.349Zm27.942-16.059c2.259,5.525,8.594,6.973,8.594,21.289s-9.011,15.15-12.277,19.643-5.107,9.208-10.632,12.277-8.594,2.039-12.694,3.07c-2.432.613-6.752,3.069-10.239,3.069-3.462,0-9.6-1.228-13.088-1.228s-5.721,2.456-14.732,2.456-11.246-2.456-14.732-2.456-9.625,1.228-13.087,1.228c-3.487,0-7.808-2.456-10.239-3.069-4.1-1.031-7.169,0-12.694-3.07s-7.366-7.784-10.632-12.277-12.277-5.328-12.277-19.643,6.335-15.764,8.594-21.289,3.684-16.967,12.694-23.94c4.125-3.193,16.625-7.145,20.454-8.79,8.177-3.487,12.891-9.822,31.92-9.822s23.744,6.335,31.921,9.822c3.829,1.645,16.329,5.6,20.454,8.79C3263.188,4860.324,3264.612,4871.766,3266.871,4877.291Z" transform="translate(-3128.139 -4834.738)" fill="#93dff9"/>
            </g>
            <g id="Grupo_13273" data-name="Grupo 13273">
              <path id="Trazado_19683" data-name="Trazado 19683" d="M3197.4,4935.067a33.617,33.617,0,0,1-11.3-1.723,11.419,11.419,0,0,0-3.433-.733,58.614,58.614,0,0,0-6.362.6,59.918,59.918,0,0,1-6.725.626c-2.619,0-5.509-1.164-7.831-2.1a25.635,25.635,0,0,0-2.8-1.02,23.026,23.026,0,0,0-3.676-.533,20.983,20.983,0,0,1-9.4-2.689c-4.5-2.5-6.767-6.035-8.954-9.452-.694-1.084-1.412-2.205-2.2-3.284a14.674,14.674,0,0,0-3.408-2.93c-3.872-2.754-9.175-6.526-9.175-17.655,0-10.516,3.351-14.609,6.043-17.9a15.925,15.925,0,0,0,2.669-4c.483-1.181.933-2.674,1.454-4.4,1.843-6.115,4.368-14.491,11.742-20.2,3.189-2.47,10.667-5.213,16.127-7.217,1.966-.722,3.665-1.344,4.675-1.779a52.436,52.436,0,0,0,5.583-2.916c5.747-3.3,12.259-7.036,26.969-7.036s21.223,3.738,26.969,7.036a52.621,52.621,0,0,0,5.58,2.914c1.014.436,2.712,1.059,4.678,1.78,5.46,2,12.938,4.748,16.128,7.217,7.374,5.706,9.9,14.082,11.741,20.2.521,1.729.972,3.222,1.455,4.4a15.928,15.928,0,0,0,2.67,4c2.692,3.29,6.043,7.383,6.043,17.9,0,11.129-5.3,14.9-9.175,17.655a14.694,14.694,0,0,0-3.408,2.93c-.784,1.079-1.5,2.2-2.2,3.284-2.187,3.417-4.449,6.949-8.954,9.452a20.981,20.981,0,0,1-9.4,2.689,22.954,22.954,0,0,0-3.677.534,25.422,25.422,0,0,0-2.8,1.019c-2.323.935-5.212,2.1-7.832,2.1a59.918,59.918,0,0,1-6.725-.626,58.592,58.592,0,0,0-6.362-.6,11.422,11.422,0,0,0-3.433.733A33.616,33.616,0,0,1,3197.4,4935.067Zm-14.733-5.657a14.077,14.077,0,0,1,4.39.879,34.719,34.719,0,0,0,20.685,0,14.08,14.08,0,0,1,4.391-.879,60.2,60.2,0,0,1,6.768.629,58.318,58.318,0,0,0,6.319.6c2,0,4.57-1.035,6.636-1.867a27.116,27.116,0,0,1,3.211-1.154,25.876,25.876,0,0,1,4.173-.618,17.8,17.8,0,0,0,8.136-2.3c3.8-2.111,5.659-5.016,7.812-8.38.719-1.123,1.463-2.285,2.3-3.439a17.129,17.129,0,0,1,4.143-3.657c3.669-2.609,7.829-5.568,7.829-15.045,0-9.373-2.826-12.825-5.319-15.871a18.6,18.6,0,0,1-3.156-4.811c-.541-1.323-1.011-2.884-1.556-4.691-1.719-5.7-4.072-13.509-10.636-18.589-2.8-2.167-10.3-4.92-15.271-6.743-2.01-.737-3.746-1.375-4.836-1.842a55.063,55.063,0,0,1-5.913-3.081c-5.664-3.25-11.52-6.611-25.375-6.611s-19.712,3.361-25.375,6.611a55.036,55.036,0,0,1-5.917,3.083c-1.086.466-2.822,1.1-4.832,1.84-4.967,1.823-12.473,4.577-15.27,6.743-6.564,5.08-8.918,12.888-10.637,18.589-.545,1.808-1.015,3.369-1.556,4.691a18.587,18.587,0,0,1-3.155,4.811c-2.494,3.046-5.319,6.5-5.319,15.871,0,9.478,4.159,12.436,7.829,15.045a17.117,17.117,0,0,1,4.142,3.657c.839,1.155,1.583,2.316,2.3,3.439,2.154,3.364,4.014,6.269,7.813,8.38a17.8,17.8,0,0,0,8.136,2.3,25.822,25.822,0,0,1,4.171.618,27.009,27.009,0,0,1,3.213,1.154c2.066.832,4.637,1.867,6.635,1.867a58.318,58.318,0,0,0,6.319-.6A60.2,60.2,0,0,1,3182.671,4929.41Z" transform="translate(-3122.14 -4828.738)" fill="#303e58"/>
              <path id="Trazado_19684" data-name="Trazado 19684" d="M3359.326,4973.047c-9.683,0-15.914-12.642-16.173-13.181a1.6,1.6,0,0,1,2.881-1.4h0c.055.113,5.617,11.374,13.292,11.374,7.7,0,13.236-11.26,13.292-11.373a1.6,1.6,0,0,1,2.882,1.395C3375.239,4960.405,3369.008,4973.047,3359.326,4973.047Z" transform="translate(-3284.063 -4923.193)" fill="#303e58"/>
              <path id="Trazado_19685" data-name="Trazado 19685" d="M3451.7,4995.75c-.161,0-.324,0-.489,0a45.843,45.843,0,0,1-5.645-.561,1.6,1.6,0,1,1,.5-3.164,43.1,43.1,0,0,0,5.229.523c5.877.1,8.786-1.9,14.019-7.588a1.6,1.6,0,1,1,2.357,2.167C3462.222,4993.051,3458.564,4995.75,3451.7,4995.75Z" transform="translate(-3358.278 -4942.893)" fill="#303e58"/>
              <path id="Trazado_19686" data-name="Trazado 19686" d="M3291.121,4995.749c-6.879,0-10.535-2.7-15.984-8.625a1.6,1.6,0,1,1,2.357-2.167c5.233,5.691,8.136,7.69,14.041,7.587a43,43,0,0,0,5.208-.522,1.6,1.6,0,0,1,.5,3.164,45.721,45.721,0,0,1-5.624.56C3291.448,4995.748,3291.283,4995.749,3291.121,4995.749Z" transform="translate(-3234.003 -4942.893)" fill="#303e58"/>
              <path id="Trazado_19687" data-name="Trazado 19687" d="M3521.064,5033.261a9,9,0,0,1-4.494-1.232,1.375,1.375,0,0,1-.129-.082,20.763,20.763,0,0,1-2.269-1.553l-.393-.3a13.412,13.412,0,0,0-4.687-2.7,1.6,1.6,0,0,1,.811-3.1,16.33,16.33,0,0,1,5.829,3.263l.365.276a18.754,18.754,0,0,0,1.877,1.3,1.716,1.716,0,0,1,.288.17c2.492,1.363,5.991,1.948,15.3-6.881a1.6,1.6,0,1,1,2.2,2.323C3529.659,5030.54,3525.068,5033.26,3521.064,5033.261Zm-3.786-1.077h0Zm0,0h0Z" transform="translate(-3404.966 -4970.421)" fill="#303e58"/>
              <path id="Trazado_19688" data-name="Trazado 19688" d="M3209.4,5033.261c-4,0-8.6-2.72-14.7-8.513a1.6,1.6,0,0,1,2.2-2.323c9.313,8.832,12.812,8.243,15.3,6.88a1.671,1.671,0,0,1,.285-.167,18.8,18.8,0,0,0,1.879-1.3l.365-.276a16.33,16.33,0,0,1,5.829-3.263,1.6,1.6,0,0,1,.811,3.1,13.412,13.412,0,0,0-4.687,2.7l-.393.3a20.653,20.653,0,0,1-2.27,1.554,1.492,1.492,0,0,1-.128.081A9,9,0,0,1,3209.4,5033.261Zm3.785-1.077h0Zm0,0h0Z" transform="translate(-3174.968 -4970.421)" fill="#303e58"/>
              <path id="Trazado_19689" data-name="Trazado 19689" d="M3326.19,5178.311a1.6,1.6,0,0,1-.779-3c2.688-1.5,3.208-1.6,5.551-1.17a61.568,61.568,0,0,0,11.335.944c.736.024,1.5.024,2.307.024h3.487c.183,0,.36-.006.534-.012.2-.006.4-.012.6-.012a62.545,62.545,0,0,0,11.473-.954c2.382-.442,2.85-.342,5.566,1.182a1.6,1.6,0,0,1-1.568,2.792,10.379,10.379,0,0,0-2-.983,4.322,4.322,0,0,0-1.417.157,65.562,65.562,0,0,1-12.03,1.007c-.189,0-.353.005-.519.011-.208.006-.418.013-.636.013H3344.6c-.834,0-1.623,0-2.385-.025a64.458,64.458,0,0,1-11.842-1,4.287,4.287,0,0,0-1.406-.156,10.468,10.468,0,0,0-2,.976A1.6,1.6,0,0,1,3326.19,5178.311Z" transform="translate(-3270.568 -5081.803)" fill="#303e58"/>
              <path id="Trazado_19690" data-name="Trazado 19690" d="M3490.267,5147.705a1.6,1.6,0,0,1-1.135-2.73c.789-.793,2.163-1.215,4.756-1.808l.528-.124c3.6-.842,8.541-2,11.04-4.765a1.6,1.6,0,0,1,2.376,2.146c-3.171,3.513-8.672,4.8-12.687,5.737l-.533.125a15.7,15.7,0,0,0-3.227.964A1.6,1.6,0,0,1,3490.267,5147.705Zm1.135-.473,0,.006Z" transform="translate(-3390.867 -5055.296)" fill="#303e58"/>
              <path id="Trazado_19691" data-name="Trazado 19691" d="M3264.349,5147.705a1.6,1.6,0,0,1-1.117-.454,15.6,15.6,0,0,0-3.218-.963l-.542-.127c-4.016-.938-9.517-2.225-12.688-5.737a1.6,1.6,0,0,1,2.376-2.146c2.5,2.769,7.436,3.923,11.04,4.765l.537.126c2.584.591,3.957,1.012,4.747,1.806a1.6,1.6,0,0,1-1.135,2.73Zm-1.134-.472,0,0Z" transform="translate(-3213.222 -5055.296)" fill="#303e58"/>
              <path id="Trazado_19692" data-name="Trazado 19692" d="M3573.37,5092.5c-5.479,0-7.863-.545-9.1-1.979-1.186-1.372-.907-3.056-.611-4.837a14.119,14.119,0,0,0-.082-6.466,1.6,1.6,0,1,1,3.089-.842,17.079,17.079,0,0,1,.151,7.832c-.146.883-.33,1.982-.125,2.218.4.458,2.216.977,8.637.851a1.6,1.6,0,1,1,.063,3.2Q3574.315,5092.5,3573.37,5092.5Z" transform="translate(-3445.658 -5010.902)" fill="#303e58"/>
              <path id="Trazado_19693" data-name="Trazado 19693" d="M3197.783,5092.5c-.632,0-1.3-.007-2.02-.021a1.6,1.6,0,0,1,.031-3.2h.032c6.423.127,8.243-.394,8.638-.851.2-.236.021-1.336-.125-2.219a17.066,17.066,0,0,1,.151-7.832,1.6,1.6,0,0,1,3.089.842,14.112,14.112,0,0,0-.081,6.466c.3,1.781.575,3.465-.611,4.837C3205.646,5091.955,3203.261,5092.5,3197.783,5092.5Z" transform="translate(-3174.967 -5010.901)" fill="#303e58"/>
            </g>
          </g>
        </g>
      </g>
    </g>
    <path id="Trazado_20124" data-name="Trazado 20124" d="M43.661,6.62H38.827V9.5H43V11.8H38.827V17H36.173V4.3h7.488ZM45.911,17V4.3h2.637V17Zm11.54.176a7.089,7.089,0,0,1-2.588-.466,6.087,6.087,0,0,1-2.061-1.3,5.864,5.864,0,0,1-1.354-2.065,7.2,7.2,0,0,1-.492-2.7A6.879,6.879,0,0,1,51.8,7.2a5.744,5.744,0,0,1,2.316-2.281,6.935,6.935,0,0,1,3.335-.791,6.739,6.739,0,0,1,3.727,1.028,5.629,5.629,0,0,1,2.276,2.83l-2.461.9a3.479,3.479,0,0,0-1.362-1.714,3.891,3.891,0,0,0-2.18-.615,3.73,3.73,0,0,0-2.777,1.107,4.075,4.075,0,0,0-1.09,2.988,4.081,4.081,0,0,0,1.094,2.993,3.726,3.726,0,0,0,2.773,1.112,3.876,3.876,0,0,0,2.175-.62,3.5,3.5,0,0,0,1.367-1.718l2.461.9a5.652,5.652,0,0,1-2.276,2.834A6.718,6.718,0,0,1,57.451,17.176ZM73.623,4.3H76.26V17H73.623V11.779h-5.37V17H65.616V4.3h2.637V9.485h5.37ZM88.046,17l-.923-2.619H81.788L80.865,17h-2.7L82.843,4.3h3.226L90.744,17Zm-5.484-4.825H86.35L84.46,6.787ZM104.332,4.3V6.62h-3.015V17h-2.61V6.62H95.675V4.3ZM112.84.767l-2,2.347h-1.556l2.3-3.234Zm.853,5.854h-4.711V9.5h4.175V11.8h-4.175v2.874h4.711V17h-7.365V4.3h7.365Zm7.857,10.556a7.089,7.089,0,0,1-2.588-.466,6.087,6.087,0,0,1-2.061-1.3,5.864,5.864,0,0,1-1.354-2.065,7.2,7.2,0,0,1-.492-2.7A6.879,6.879,0,0,1,115.9,7.2a5.744,5.744,0,0,1,2.316-2.281,6.935,6.935,0,0,1,3.335-.791,6.739,6.739,0,0,1,3.727,1.028,5.629,5.629,0,0,1,2.276,2.83l-2.461.9a3.479,3.479,0,0,0-1.362-1.714,3.891,3.891,0,0,0-2.18-.615,3.73,3.73,0,0,0-2.777,1.107,4.075,4.075,0,0,0-1.09,2.988,4.081,4.081,0,0,0,1.094,2.993,3.726,3.726,0,0,0,2.773,1.112,3.876,3.876,0,0,0,2.175-.62,3.5,3.5,0,0,0,1.367-1.718l2.461.9a5.652,5.652,0,0,1-2.276,2.834A6.718,6.718,0,0,1,121.55,17.176ZM138.39,4.3h2.628V17h-3.05l-5.625-9.079V17h-2.628V4.3h3.015l5.66,9.026ZM144.3,17V4.3h2.637V17Zm11.54.176a7.089,7.089,0,0,1-2.588-.466,6.087,6.087,0,0,1-2.061-1.3,5.864,5.864,0,0,1-1.354-2.065,7.2,7.2,0,0,1-.492-2.7,6.879,6.879,0,0,1,.844-3.45,5.744,5.744,0,0,1,2.316-2.281,6.935,6.935,0,0,1,3.335-.791,6.739,6.739,0,0,1,3.727,1.028,5.629,5.629,0,0,1,2.276,2.83l-2.461.9a3.479,3.479,0,0,0-1.362-1.714,3.891,3.891,0,0,0-2.18-.615,3.73,3.73,0,0,0-2.777,1.107,4.075,4.075,0,0,0-1.09,2.988,4.081,4.081,0,0,0,1.094,2.993,3.726,3.726,0,0,0,2.773,1.112,3.876,3.876,0,0,0,2.175-.62,3.5,3.5,0,0,0,1.367-1.718l2.461.9a5.652,5.652,0,0,1-2.276,2.834A6.718,6.718,0,0,1,155.845,17.176ZM172.509,17l-.923-2.619h-5.335L165.328,17h-2.7l4.676-12.7h3.226L175.207,17Zm-5.484-4.825h3.788l-1.89-5.388Zm-127.239,27a6.867,6.867,0,0,1-2.536-.461,5.945,5.945,0,0,1-2.021-1.3A5.824,5.824,0,0,1,33.9,35.361a7.727,7.727,0,0,1,.013-5.392A5.9,5.9,0,0,1,35.268,27.9a6.052,6.052,0,0,1,2.061-1.305,7.089,7.089,0,0,1,2.588-.466,6.921,6.921,0,0,1,3.3.778,5.657,5.657,0,0,1,2.29,2.21L43.2,30.343a3.388,3.388,0,0,0-1.34-1.441,3.844,3.844,0,0,0-1.938-.483,3.683,3.683,0,0,0-2.773,1.116,4.258,4.258,0,0,0-1.077,3.085,4.391,4.391,0,0,0,1.072,3.1,3.724,3.724,0,0,0,2.874,1.16,4.247,4.247,0,0,0,1.547-.272,3.086,3.086,0,0,0,1.23-.883,3.2,3.2,0,0,0,.7-1.507H40.022V32.1H45.99V39H43.916V37.242A4.633,4.633,0,0,1,39.785,39.176Zm14.563,0a6.9,6.9,0,0,1-3.335-.8,5.766,5.766,0,0,1-2.316-2.29,7.465,7.465,0,0,1,0-6.9,5.744,5.744,0,0,1,2.316-2.281,7.418,7.418,0,0,1,6.667,0A5.752,5.752,0,0,1,59.991,29.2a7.465,7.465,0,0,1,0,6.9,5.766,5.766,0,0,1-2.316,2.29A6.885,6.885,0,0,1,54.349,39.176Zm-2.777-3.529a4.025,4.025,0,0,0,5.555,0,4.1,4.1,0,0,0,1.09-3,4.075,4.075,0,0,0-1.09-2.988,4.036,4.036,0,0,0-5.555,0,4.075,4.075,0,0,0-1.09,2.988A4.1,4.1,0,0,0,51.571,35.647ZM69.967,39l-3.3-5.59H65.9V39H63.261V26.3h4.605a5.327,5.327,0,0,1,1.846.294,3.191,3.191,0,0,1,1.279.817,3.5,3.5,0,0,1,.721,1.2,4.388,4.388,0,0,1,.242,1.485,3.1,3.1,0,0,1-.694,2.087,3.5,3.5,0,0,1-2,1.094L73.087,39ZM65.9,28.488v3.032h1.556q1.978,0,1.978-1.512a1.377,1.377,0,0,0-.483-1.116,2.3,2.3,0,0,0-1.494-.4ZM81.727,39l-3.3-5.59h-.765V39H75.021V26.3h4.605a5.327,5.327,0,0,1,1.846.294,3.191,3.191,0,0,1,1.279.817,3.5,3.5,0,0,1,.721,1.2,4.388,4.388,0,0,1,.242,1.485,3.1,3.1,0,0,1-.694,2.087,3.5,3.5,0,0,1-2,1.094L84.847,39ZM77.657,28.488v3.032h1.556q1.978,0,1.978-1.512a1.377,1.377,0,0,0-.483-1.116,2.3,2.3,0,0,0-1.494-.4ZM92.08,39.176a6.9,6.9,0,0,1-3.335-.8,5.766,5.766,0,0,1-2.316-2.29,7.465,7.465,0,0,1,0-6.9,5.744,5.744,0,0,1,2.316-2.281,7.418,7.418,0,0,1,6.667,0A5.752,5.752,0,0,1,97.723,29.2a7.465,7.465,0,0,1,0,6.9,5.766,5.766,0,0,1-2.316,2.29A6.885,6.885,0,0,1,92.08,39.176ZM89.3,35.647a4.025,4.025,0,0,0,5.555,0,4.1,4.1,0,0,0,1.09-3,4.075,4.075,0,0,0-1.09-2.988,4.036,4.036,0,0,0-5.555,0,4.075,4.075,0,0,0-1.09,2.988A4.1,4.1,0,0,0,89.3,35.647Zm16-.268V33.261h9v2.118Zm22.228,3.8a7.089,7.089,0,0,1-2.588-.466,6.087,6.087,0,0,1-2.061-1.3,5.864,5.864,0,0,1-1.354-2.065,7.2,7.2,0,0,1-.492-2.7,6.879,6.879,0,0,1,.844-3.45,5.744,5.744,0,0,1,2.316-2.281,6.935,6.935,0,0,1,3.335-.791,6.739,6.739,0,0,1,3.727,1.028,5.629,5.629,0,0,1,2.276,2.83l-2.461.9a3.479,3.479,0,0,0-1.362-1.714,3.891,3.891,0,0,0-2.18-.615,3.73,3.73,0,0,0-2.777,1.107,4.075,4.075,0,0,0-1.09,2.988,4.081,4.081,0,0,0,1.094,2.993,3.726,3.726,0,0,0,2.773,1.112,3.876,3.876,0,0,0,2.175-.62,3.5,3.5,0,0,0,1.367-1.718l2.461.9a5.652,5.652,0,0,1-2.276,2.834A6.718,6.718,0,0,1,127.535,39.176Zm13.79,0a6.9,6.9,0,0,1-3.335-.8,5.766,5.766,0,0,1-2.316-2.29,7.465,7.465,0,0,1,0-6.9,5.744,5.744,0,0,1,2.316-2.281,7.418,7.418,0,0,1,6.667,0,5.752,5.752,0,0,1,2.312,2.281,7.465,7.465,0,0,1,0,6.9,5.766,5.766,0,0,1-2.316,2.29A6.885,6.885,0,0,1,141.325,39.176Zm-2.777-3.529a4.025,4.025,0,0,0,5.555,0,4.1,4.1,0,0,0,1.09-3,4.075,4.075,0,0,0-1.09-2.988,4.036,4.036,0,0,0-5.555,0,4.075,4.075,0,0,0-1.09,2.988A4.1,4.1,0,0,0,138.548,35.647Zm19.178-7.027h-4.834V31.5h4.175V33.8h-4.175V39h-2.654V26.3h7.488ZM159.976,39V26.3h2.637V39Zm14.414,0-.923-2.619h-5.335L167.209,39h-2.7l4.676-12.7h3.226L177.088,39Zm-5.484-4.825h3.788l-1.89-5.388Z" transform="translate(4359 -1564)" fill="#002b45"/>
    <path id="Trazado_20131" data-name="Trazado 20131" d="M8.029,5.489H4.078V8.634H7.523V9.741H4.078V14H2.827V4.375h5.2Zm2.358.212a.805.805,0,0,1-.8-.8.758.758,0,0,1,.236-.561.775.775,0,0,1,.564-.232.767.767,0,0,1,.557.232.758.758,0,0,1,.236.561.77.77,0,0,1-.236.564A.762.762,0,0,1,10.387,5.7Zm-.6,8.3V7.28h1.189V14Zm6.385.123a3.237,3.237,0,0,1-2.406-.964,3.438,3.438,0,0,1-.95-2.522,3.445,3.445,0,0,1,.947-2.522,3.234,3.234,0,0,1,2.41-.964,3.26,3.26,0,0,1,1.945.588,2.967,2.967,0,0,1,1.131,1.634l-1.107.178A2.045,2.045,0,0,0,17.38,8.5a2.066,2.066,0,0,0-1.217-.369,1.987,1.987,0,0,0-1.555.69A2.63,2.63,0,0,0,14,10.637a2.617,2.617,0,0,0,.612,1.808,1.991,1.991,0,0,0,1.555.687,2.066,2.066,0,0,0,1.217-.369,2.045,2.045,0,0,0,.759-1.046l1.107.185a2.97,2.97,0,0,1-1.138,1.63A3.255,3.255,0,0,1,16.17,14.123ZM24.2,7.15a2.245,2.245,0,0,1,1.661.622,2.415,2.415,0,0,1,.622,1.784V14H25.3V9.782a1.653,1.653,0,0,0-.41-1.237,1.461,1.461,0,0,0-1.06-.4,1.626,1.626,0,0,0-1.186.458,1.862,1.862,0,0,0-.475,1.374V14H20.99V3.5h1.183V8.169a2.186,2.186,0,0,1,.844-.752A2.574,2.574,0,0,1,24.2,7.15Zm6.111,6.979a2.287,2.287,0,0,1-1.473-.461,1.657,1.657,0,0,1-.578-1.377,1.957,1.957,0,0,1,.185-.878,1.549,1.549,0,0,1,.547-.612,3.281,3.281,0,0,1,.79-.379,7.3,7.3,0,0,1,1.022-.243L31.893,10q.595-.109.595-.622a1.174,1.174,0,0,0-.42-1A1.713,1.713,0,0,0,31,8.06a1.745,1.745,0,0,0-1.053.308,1.287,1.287,0,0,0-.5.943l-1.066-.226a2.052,2.052,0,0,1,.841-1.439,3.141,3.141,0,0,1,1.832-.482,3.716,3.716,0,0,1,.974.12,2.647,2.647,0,0,1,.813.376,1.686,1.686,0,0,1,.581.725,2.7,2.7,0,0,1,.208,1.1v2.775a1.136,1.136,0,0,0,.154.7.664.664,0,0,0,.53.181h.109V14h-.588a1.121,1.121,0,0,1-1.271-.909h-.055A2.568,2.568,0,0,1,30.314,14.13Zm.273-.957a1.793,1.793,0,0,0,1.442-.649,2.674,2.674,0,0,0,.547-1.777l-1.777.342a2.392,2.392,0,0,0-1.042.373.867.867,0,0,0-.338.735.857.857,0,0,0,.325.738A1.388,1.388,0,0,0,30.587,13.173ZM41.88,14a1.766,1.766,0,0,1-1.312-.482,1.823,1.823,0,0,1-.479-1.343V8.224H38.715V7.28h.506a.971.971,0,0,0,.742-.236,1.161,1.161,0,0,0,.215-.79V5.038h1.1V7.28h1.545v.943H41.279v3.828a1.019,1.019,0,0,0,.256.742.9.9,0,0,0,.673.263h.615V14Zm7.273-9.673L47.623,6.1h-.813l1.716-2.229Zm1.176,6.18-.014.321h-5.25a2.375,2.375,0,0,0,.643,1.719,2.11,2.11,0,0,0,1.531.6,2.015,2.015,0,0,0,1.114-.321,2.085,2.085,0,0,0,.766-.889l1.066.226A3.031,3.031,0,0,1,49.038,13.6a3.133,3.133,0,0,1-1.784.526,3.246,3.246,0,0,1-2.42-.937,3.484,3.484,0,0,1-.923-2.557,3.467,3.467,0,0,1,.926-2.55,3.206,3.206,0,0,1,2.382-.937,3.034,3.034,0,0,1,2.259.861A3.4,3.4,0,0,1,50.33,10.507ZM47.219,8.06a2.1,2.1,0,0,0-1.4.475,2.177,2.177,0,0,0-.708,1.384H49.14a2,2,0,0,0-.588-1.384A1.9,1.9,0,0,0,47.219,8.06Zm7.752,6.063a3.237,3.237,0,0,1-2.406-.964,3.438,3.438,0,0,1-.95-2.522,3.445,3.445,0,0,1,.947-2.522,3.5,3.5,0,0,1,4.354-.376,2.967,2.967,0,0,1,1.131,1.634L56.94,9.55A2.045,2.045,0,0,0,56.181,8.5a2.066,2.066,0,0,0-1.217-.369,1.987,1.987,0,0,0-1.555.69,2.63,2.63,0,0,0-.612,1.812,2.617,2.617,0,0,0,.612,1.808,1.991,1.991,0,0,0,1.555.687,2.066,2.066,0,0,0,1.217-.369,2.045,2.045,0,0,0,.759-1.046l1.107.185a2.97,2.97,0,0,1-1.138,1.63A3.255,3.255,0,0,1,54.971,14.123ZM62.962,7.15a2.337,2.337,0,0,1,1.692.608,2.269,2.269,0,0,1,.632,1.716V14H64.1V9.741a1.589,1.589,0,0,0-.41-1.2,1.466,1.466,0,0,0-1.053-.39,1.626,1.626,0,0,0-1.2.461,1.872,1.872,0,0,0-.472,1.371V14H59.791V7.28h1.183v.861A2.244,2.244,0,0,1,62.962,7.15ZM68.171,5.7a.805.805,0,0,1-.8-.8.758.758,0,0,1,.236-.561.775.775,0,0,1,.564-.232.767.767,0,0,1,.557.232.758.758,0,0,1,.236.561.77.77,0,0,1-.236.564A.762.762,0,0,1,68.171,5.7Zm-.6,8.3V7.28h1.189V14Zm6.385.123a3.237,3.237,0,0,1-2.406-.964,3.438,3.438,0,0,1-.95-2.522,3.445,3.445,0,0,1,.947-2.522A3.5,3.5,0,0,1,75.9,7.738a2.967,2.967,0,0,1,1.131,1.634l-1.107.178A2.045,2.045,0,0,0,75.165,8.5a2.066,2.066,0,0,0-1.217-.369,1.987,1.987,0,0,0-1.555.69,2.63,2.63,0,0,0-.612,1.812,2.617,2.617,0,0,0,.612,1.808,1.991,1.991,0,0,0,1.555.687,2.066,2.066,0,0,0,1.217-.369,2.045,2.045,0,0,0,.759-1.046l1.107.185a2.97,2.97,0,0,1-1.138,1.63A3.255,3.255,0,0,1,73.955,14.123Zm6.371.007a2.287,2.287,0,0,1-1.473-.461,1.657,1.657,0,0,1-.578-1.377,1.957,1.957,0,0,1,.185-.878,1.549,1.549,0,0,1,.547-.612,3.281,3.281,0,0,1,.79-.379,7.3,7.3,0,0,1,1.022-.243L81.9,10q.595-.109.595-.622a1.174,1.174,0,0,0-.42-1,1.713,1.713,0,0,0-1.063-.318,1.745,1.745,0,0,0-1.053.308,1.287,1.287,0,0,0-.5.943L78.4,9.085a2.052,2.052,0,0,1,.841-1.439,3.141,3.141,0,0,1,1.832-.482,3.716,3.716,0,0,1,.974.12,2.647,2.647,0,0,1,.813.376,1.686,1.686,0,0,1,.581.725,2.7,2.7,0,0,1,.208,1.1v2.775a1.136,1.136,0,0,0,.154.7.664.664,0,0,0,.53.181h.109V14h-.588a1.121,1.121,0,0,1-1.271-.909h-.055A2.568,2.568,0,0,1,80.326,14.13Zm.273-.957a1.793,1.793,0,0,0,1.442-.649,2.674,2.674,0,0,0,.547-1.777l-1.777.342a2.392,2.392,0,0,0-1.042.373.867.867,0,0,0-.338.735.857.857,0,0,0,.325.738A1.388,1.388,0,0,0,80.6,13.173ZM93.293,7.15A3.056,3.056,0,0,1,94.51,7.4a2.993,2.993,0,0,1,1,.69,3.227,3.227,0,0,1,.673,1.107,4.083,4.083,0,0,1,.25,1.449,3.553,3.553,0,0,1-.906,2.536,2.942,2.942,0,0,1-2.232.964,2.66,2.66,0,0,1-1.4-.383,2.509,2.509,0,0,1-.96-1.032v4.655H89.746V7.28h1.142l.027,1.306a2.46,2.46,0,0,1,.957-1.049A2.685,2.685,0,0,1,93.293,7.15Zm-.232,5.968a2.04,2.04,0,0,0,1.555-.68,2.53,2.53,0,0,0,.632-1.794,2.518,2.518,0,0,0-.632-1.791,2.121,2.121,0,0,0-3.134.031,2.52,2.52,0,0,0-.643,1.76,2.53,2.53,0,0,0,.643,1.767A2.05,2.05,0,0,0,93.061,13.118Zm6.788,1.012a2.287,2.287,0,0,1-1.473-.461,1.657,1.657,0,0,1-.578-1.377,1.957,1.957,0,0,1,.185-.878,1.549,1.549,0,0,1,.547-.612,3.281,3.281,0,0,1,.79-.379,7.3,7.3,0,0,1,1.022-.243L101.428,10q.595-.109.595-.622a1.174,1.174,0,0,0-.42-1,1.713,1.713,0,0,0-1.063-.318,1.745,1.745,0,0,0-1.053.308,1.287,1.287,0,0,0-.5.943l-1.066-.226a2.052,2.052,0,0,1,.841-1.439,3.141,3.141,0,0,1,1.832-.482,3.716,3.716,0,0,1,.974.12,2.647,2.647,0,0,1,.813.376,1.686,1.686,0,0,1,.581.725,2.7,2.7,0,0,1,.208,1.1v2.775a1.136,1.136,0,0,0,.154.7.664.664,0,0,0,.53.181h.109V14h-.588a1.121,1.121,0,0,1-1.271-.909h-.055A2.568,2.568,0,0,1,99.849,14.13Zm.273-.957a1.793,1.793,0,0,0,1.442-.649,2.674,2.674,0,0,0,.547-1.777l-1.777.342a2.392,2.392,0,0,0-1.042.373.867.867,0,0,0-.338.735.857.857,0,0,0,.325.738A1.388,1.388,0,0,0,100.123,13.173Zm6.665-4.71a2.032,2.032,0,0,1,.834-.9,2.512,2.512,0,0,1,1.292-.355V8.319a2.214,2.214,0,0,0-1.562.5,2.084,2.084,0,0,0-.537,1.593V14h-1.183V7.28h1.155Zm4.983,5.667a2.287,2.287,0,0,1-1.473-.461,1.657,1.657,0,0,1-.578-1.377,1.957,1.957,0,0,1,.185-.878,1.549,1.549,0,0,1,.547-.612,3.281,3.281,0,0,1,.79-.379,7.3,7.3,0,0,1,1.022-.243L113.35,10q.595-.109.595-.622a1.174,1.174,0,0,0-.42-1,1.713,1.713,0,0,0-1.063-.318,1.745,1.745,0,0,0-1.053.308,1.287,1.287,0,0,0-.5.943l-1.066-.226a2.052,2.052,0,0,1,.841-1.439,3.141,3.141,0,0,1,1.832-.482,3.716,3.716,0,0,1,.974.12,2.647,2.647,0,0,1,.813.376,1.686,1.686,0,0,1,.581.725,2.7,2.7,0,0,1,.208,1.1v2.775a1.136,1.136,0,0,0,.154.7.664.664,0,0,0,.53.181h.109V14H115.3a1.121,1.121,0,0,1-1.271-.909h-.055A2.568,2.568,0,0,1,111.771,14.13Zm.273-.957a1.793,1.793,0,0,0,1.442-.649,2.674,2.674,0,0,0,.547-1.777l-1.777.342a2.392,2.392,0,0,0-1.042.373.867.867,0,0,0-.338.735.857.857,0,0,0,.325.738A1.388,1.388,0,0,0,112.044,13.173Zm9.146.827V3.5h1.2V14Zm5.154.13a2.287,2.287,0,0,1-1.473-.461,1.657,1.657,0,0,1-.578-1.377,1.957,1.957,0,0,1,.185-.878,1.549,1.549,0,0,1,.547-.612,3.281,3.281,0,0,1,.79-.379,7.3,7.3,0,0,1,1.022-.243L127.924,10q.595-.109.595-.622a1.174,1.174,0,0,0-.42-1,1.713,1.713,0,0,0-1.063-.318,1.745,1.745,0,0,0-1.053.308,1.287,1.287,0,0,0-.5.943l-1.066-.226a2.052,2.052,0,0,1,.841-1.439,3.141,3.141,0,0,1,1.832-.482,3.716,3.716,0,0,1,.974.12,2.647,2.647,0,0,1,.813.376,1.686,1.686,0,0,1,.581.725,2.7,2.7,0,0,1,.208,1.1v2.775a1.136,1.136,0,0,0,.154.7.664.664,0,0,0,.53.181h.109V14h-.588a1.121,1.121,0,0,1-1.271-.909h-.055A2.568,2.568,0,0,1,126.345,14.13Zm.273-.957a1.793,1.793,0,0,0,1.442-.649,2.674,2.674,0,0,0,.547-1.777l-1.777.342a2.392,2.392,0,0,0-1.042.373.867.867,0,0,0-.338.735.857.857,0,0,0,.325.738A1.388,1.388,0,0,0,126.619,13.173Zm15.025-2.666-.014.321h-5.25a2.375,2.375,0,0,0,.643,1.719,2.11,2.11,0,0,0,1.531.6,2.015,2.015,0,0,0,1.114-.321,2.085,2.085,0,0,0,.766-.889l1.066.226a3.031,3.031,0,0,1-1.148,1.442,3.133,3.133,0,0,1-1.784.526,3.246,3.246,0,0,1-2.42-.937,3.484,3.484,0,0,1-.923-2.557,3.467,3.467,0,0,1,.926-2.55,3.206,3.206,0,0,1,2.382-.937,3.034,3.034,0,0,1,2.259.861A3.4,3.4,0,0,1,141.644,10.507Zm-3.11-2.447a2.1,2.1,0,0,0-1.4.475,2.177,2.177,0,0,0-.708,1.384h4.026a2,2,0,0,0-.588-1.384A1.9,1.9,0,0,0,138.534,8.06ZM143.5,14V3.5h1.2V14Zm5.154.13a2.287,2.287,0,0,1-1.473-.461,1.657,1.657,0,0,1-.578-1.377,1.957,1.957,0,0,1,.185-.878,1.549,1.549,0,0,1,.547-.612,3.28,3.28,0,0,1,.79-.379,7.3,7.3,0,0,1,1.022-.243L150.23,10q.595-.109.595-.622a1.174,1.174,0,0,0-.42-1,1.713,1.713,0,0,0-1.063-.318,1.745,1.745,0,0,0-1.053.308,1.287,1.287,0,0,0-.5.943l-1.066-.226a2.052,2.052,0,0,1,.841-1.439,3.141,3.141,0,0,1,1.832-.482,3.716,3.716,0,0,1,.974.12,2.647,2.647,0,0,1,.813.376,1.686,1.686,0,0,1,.581.725,2.7,2.7,0,0,1,.208,1.1v2.775a1.136,1.136,0,0,0,.154.7.664.664,0,0,0,.53.181h.109V14h-.588a1.121,1.121,0,0,1-1.271-.909h-.055A2.568,2.568,0,0,1,148.651,14.13Zm.273-.957a1.793,1.793,0,0,0,1.442-.649,2.674,2.674,0,0,0,.547-1.777l-1.777.342a2.392,2.392,0,0,0-1.042.373.867.867,0,0,0-.338.735.857.857,0,0,0,.325.738A1.388,1.388,0,0,0,148.924,13.173ZM158,7.15a2.928,2.928,0,0,1,2.222.971,3.541,3.541,0,0,1,.909,2.522,3.567,3.567,0,0,1-.9,2.529,2.922,2.922,0,0,1-2.229.971,2.7,2.7,0,0,1-1.432-.39,2.466,2.466,0,0,1-.96-1.06L155.576,14h-1.142V3.5h1.176l.007,5.065a2.477,2.477,0,0,1,.96-1.036A2.7,2.7,0,0,1,158,7.15Zm-.26,5.968a2.057,2.057,0,0,0,1.572-.687,2.528,2.528,0,0,0,.636-1.788,2.528,2.528,0,0,0-.636-1.788,2.057,2.057,0,0,0-1.572-.687,2.011,2.011,0,0,0-1.559.711,2.549,2.549,0,0,0-.636,1.764,2.554,2.554,0,0,0,.632,1.767A2.012,2.012,0,0,0,157.736,13.118Zm8.08,1.012a3.542,3.542,0,0,1-1.723-.417,3.036,3.036,0,0,1-1.213-1.22,3.748,3.748,0,0,1-.448-1.856,3.423,3.423,0,0,1,.954-2.533,3.578,3.578,0,0,1,4.864,0,3.43,3.43,0,0,1,.95,2.533,3.432,3.432,0,0,1-.954,2.54A3.292,3.292,0,0,1,165.816,14.13Zm-.007-.984a2.064,2.064,0,0,0,1.589-.69,2.587,2.587,0,0,0,.632-1.818,2.577,2.577,0,0,0-.632-1.812,2.064,2.064,0,0,0-1.589-.69,2.035,2.035,0,0,0-1.576.69,2.594,2.594,0,0,0-.625,1.812,2.6,2.6,0,0,0,.625,1.818A2.035,2.035,0,0,0,165.809,13.146Zm6.4-4.683a2.032,2.032,0,0,1,.834-.9,2.512,2.512,0,0,1,1.292-.355V8.319a2.214,2.214,0,0,0-1.562.5,2.084,2.084,0,0,0-.537,1.593V14h-1.183V7.28h1.155Zm4.983,5.667a2.287,2.287,0,0,1-1.473-.461,1.657,1.657,0,0,1-.578-1.377,1.957,1.957,0,0,1,.185-.878,1.549,1.549,0,0,1,.547-.612,3.28,3.28,0,0,1,.79-.379,7.3,7.3,0,0,1,1.022-.243L178.77,10q.595-.109.595-.622a1.174,1.174,0,0,0-.42-1,1.713,1.713,0,0,0-1.063-.318,1.745,1.745,0,0,0-1.053.308,1.287,1.287,0,0,0-.5.943l-1.066-.226a2.052,2.052,0,0,1,.841-1.439,3.141,3.141,0,0,1,1.832-.482,3.716,3.716,0,0,1,.974.12,2.647,2.647,0,0,1,.813.376,1.686,1.686,0,0,1,.581.725,2.7,2.7,0,0,1,.208,1.1v2.775a1.136,1.136,0,0,0,.154.7.664.664,0,0,0,.53.181h.109V14h-.588a1.121,1.121,0,0,1-1.271-.909h-.055A2.568,2.568,0,0,1,177.191,14.13Zm.273-.957a1.793,1.793,0,0,0,1.442-.649,2.674,2.674,0,0,0,.547-1.777l-1.777.342a2.392,2.392,0,0,0-1.042.373.867.867,0,0,0-.338.735.857.857,0,0,0,.325.738A1.388,1.388,0,0,0,177.464,13.173Zm8.162.95a3.237,3.237,0,0,1-2.406-.964,3.438,3.438,0,0,1-.95-2.522,3.445,3.445,0,0,1,.947-2.522,3.5,3.5,0,0,1,4.354-.376A2.967,2.967,0,0,1,188.7,9.372L187.6,9.55a2.045,2.045,0,0,0-.759-1.046,2.066,2.066,0,0,0-1.217-.369,1.987,1.987,0,0,0-1.555.69,2.63,2.63,0,0,0-.612,1.812,2.617,2.617,0,0,0,.612,1.808,1.991,1.991,0,0,0,1.555.687,2.066,2.066,0,0,0,1.217-.369,2.045,2.045,0,0,0,.759-1.046l1.107.185a2.97,2.97,0,0,1-1.138,1.63A3.255,3.255,0,0,1,185.626,14.123ZM191.047,5.7a.805.805,0,0,1-.8-.8.758.758,0,0,1,.236-.561.775.775,0,0,1,.564-.232.767.767,0,0,1,.557.232.758.758,0,0,1,.236.561.77.77,0,0,1-.236.564A.762.762,0,0,1,191.047,5.7Zm-.6,8.3V7.28h1.189V14Zm5.975-7.875L198.136,3.9l.629.458-1.531,1.771Zm.451,8a3.542,3.542,0,0,1-1.723-.417,3.036,3.036,0,0,1-1.213-1.22,3.748,3.748,0,0,1-.448-1.856,3.423,3.423,0,0,1,.954-2.533,3.578,3.578,0,0,1,4.864,0,3.43,3.43,0,0,1,.95,2.533,3.432,3.432,0,0,1-.954,2.54A3.292,3.292,0,0,1,196.872,14.13Zm-.007-.984a2.064,2.064,0,0,0,1.589-.69,2.587,2.587,0,0,0,.632-1.818,2.577,2.577,0,0,0-.632-1.812,2.064,2.064,0,0,0-1.589-.69,2.035,2.035,0,0,0-1.576.69,2.594,2.594,0,0,0-.625,1.812,2.6,2.6,0,0,0,.625,1.818A2.035,2.035,0,0,0,196.865,13.146Zm8.415-6a2.338,2.338,0,0,1,1.692.608,2.269,2.269,0,0,1,.632,1.716V14h-1.183V9.741a1.589,1.589,0,0,0-.41-1.2,1.466,1.466,0,0,0-1.053-.39,1.626,1.626,0,0,0-1.2.461,1.872,1.872,0,0,0-.472,1.371V14h-1.183V7.28h1.183v.861A2.244,2.244,0,0,1,205.28,7.15ZM47.342,21.5h1.183V32H47.383l-.027-1.306a2.473,2.473,0,0,1-.957,1.06,2.667,2.667,0,0,1-1.422.39,3.054,3.054,0,0,1-2.218-.947,3.236,3.236,0,0,1-.677-1.111,4.064,4.064,0,0,1-.25-1.442,3.533,3.533,0,0,1,.913-2.522,2.946,2.946,0,0,1,2.232-.971,2.678,2.678,0,0,1,1.4.379,2.487,2.487,0,0,1,.96,1.029Zm-2.119,9.618a2.012,2.012,0,0,0,1.562-.708,2.775,2.775,0,0,0,0-3.531,2.011,2.011,0,0,0-1.559-.711,2.056,2.056,0,0,0-1.572.687,2.831,2.831,0,0,0,0,3.575A2.056,2.056,0,0,0,45.223,31.118ZM56.81,28.507l-.014.321h-5.25a2.375,2.375,0,0,0,.643,1.719,2.11,2.11,0,0,0,1.531.6,2.015,2.015,0,0,0,1.114-.321,2.085,2.085,0,0,0,.766-.889l1.066.226A3.031,3.031,0,0,1,55.518,31.6a3.133,3.133,0,0,1-1.784.526,3.246,3.246,0,0,1-2.42-.937,3.484,3.484,0,0,1-.923-2.557,3.467,3.467,0,0,1,.926-2.55A3.206,3.206,0,0,1,53.7,25.15a3.034,3.034,0,0,1,2.259.861A3.4,3.4,0,0,1,56.81,28.507ZM53.7,26.06a2.1,2.1,0,0,0-1.4.475,2.177,2.177,0,0,0-.708,1.384h4.026a2,2,0,0,0-.588-1.384A1.9,1.9,0,0,0,53.7,26.06Zm11.389,6.063a3.237,3.237,0,0,1-2.406-.964,3.438,3.438,0,0,1-.95-2.522,3.445,3.445,0,0,1,.947-2.522,3.5,3.5,0,0,1,4.354-.376,2.967,2.967,0,0,1,1.131,1.634l-1.107.178A2.045,2.045,0,0,0,66.3,26.5a2.066,2.066,0,0,0-1.217-.369,1.987,1.987,0,0,0-1.555.69,2.983,2.983,0,0,0,0,3.62,1.991,1.991,0,0,0,1.555.687,2.066,2.066,0,0,0,1.217-.369,2.045,2.045,0,0,0,.759-1.046l1.107.185a2.97,2.97,0,0,1-1.138,1.63A3.255,3.255,0,0,1,65.088,32.123Zm7.649.007a3.542,3.542,0,0,1-1.723-.417,3.036,3.036,0,0,1-1.213-1.22,3.748,3.748,0,0,1-.448-1.856,3.423,3.423,0,0,1,.954-2.533,3.578,3.578,0,0,1,4.864,0,3.43,3.43,0,0,1,.95,2.533,3.432,3.432,0,0,1-.954,2.54A3.292,3.292,0,0,1,72.738,32.13Zm-.007-.984a2.064,2.064,0,0,0,1.589-.69,2.921,2.921,0,0,0,0-3.63,2.064,2.064,0,0,0-1.589-.69,2.035,2.035,0,0,0-1.576.69,2.946,2.946,0,0,0,0,3.63A2.035,2.035,0,0,0,72.731,31.146Zm5.592-7.273a3.864,3.864,0,0,1,.072-.783,2.539,2.539,0,0,1,.191-.591,1.4,1.4,0,0,1,.318-.427,1.87,1.87,0,0,1,.414-.291,2.053,2.053,0,0,1,.509-.171,4.78,4.78,0,0,1,.578-.085q.284-.024.653-.024v.991H80.8q-.079,0-.246.014a1.577,1.577,0,0,0-.246.034q-.079.021-.212.068a.541.541,0,0,0-.2.116q-.068.068-.157.174a.714.714,0,0,0-.133.246,2.352,2.352,0,0,0-.075.328,2.617,2.617,0,0,0-.031.42V25.28h1.559v.943H79.5V32H78.323V26.224h-1.3V25.28h1.3Zm4.7-.171a.805.805,0,0,1-.8-.8.758.758,0,0,1,.236-.561.775.775,0,0,1,.564-.232.767.767,0,0,1,.557.232.758.758,0,0,1,.236.561.77.77,0,0,1-.236.564A.762.762,0,0,1,83.026,23.7Zm-.6,8.3V25.28h1.189V32Zm5.147.13a2.287,2.287,0,0,1-1.473-.461,1.657,1.657,0,0,1-.578-1.377,1.957,1.957,0,0,1,.185-.878,1.549,1.549,0,0,1,.547-.612,3.281,3.281,0,0,1,.79-.379,7.3,7.3,0,0,1,1.022-.243L89.151,28q.595-.109.595-.622a1.174,1.174,0,0,0-.42-1,1.713,1.713,0,0,0-1.063-.318,1.745,1.745,0,0,0-1.053.308,1.287,1.287,0,0,0-.5.943l-1.066-.226a2.052,2.052,0,0,1,.841-1.439,3.141,3.141,0,0,1,1.832-.482,3.716,3.716,0,0,1,.974.12,2.647,2.647,0,0,1,.813.376,1.686,1.686,0,0,1,.581.725,2.7,2.7,0,0,1,.208,1.1v2.775a1.136,1.136,0,0,0,.154.7.664.664,0,0,0,.53.181h.109V32H91.1a1.121,1.121,0,0,1-1.271-.909h-.055A2.568,2.568,0,0,1,87.572,32.13Zm.273-.957a1.793,1.793,0,0,0,1.442-.649,2.674,2.674,0,0,0,.547-1.777l-1.777.342a2.392,2.392,0,0,0-1.042.373.867.867,0,0,0-.338.735.857.857,0,0,0,.325.738A1.388,1.388,0,0,0,87.845,31.173ZM100.2,25.15a2.245,2.245,0,0,1,1.661.622,2.415,2.415,0,0,1,.622,1.784V32h-1.183V27.782a1.653,1.653,0,0,0-.41-1.237,1.461,1.461,0,0,0-1.06-.4,1.626,1.626,0,0,0-1.186.458,1.862,1.862,0,0,0-.475,1.374V32H96.992V21.5h1.183v4.669a2.186,2.186,0,0,1,.844-.752A2.574,2.574,0,0,1,100.2,25.15Zm7.39,6.979a3.542,3.542,0,0,1-1.723-.417,3.036,3.036,0,0,1-1.213-1.22,3.748,3.748,0,0,1-.448-1.856,3.423,3.423,0,0,1,.954-2.533,3.578,3.578,0,0,1,4.864,0,3.43,3.43,0,0,1,.95,2.533,3.432,3.432,0,0,1-.954,2.54A3.292,3.292,0,0,1,107.594,32.13Zm-.007-.984a2.064,2.064,0,0,0,1.589-.69,2.921,2.921,0,0,0,0-3.63,2.064,2.064,0,0,0-1.589-.69,2.035,2.035,0,0,0-1.576.69,2.946,2.946,0,0,0,0,3.63A2.035,2.035,0,0,0,107.587,31.146Zm7.369.984a3.186,3.186,0,0,1-1.812-.485,2.007,2.007,0,0,1-.882-1.381l1.032-.294a1.44,1.44,0,0,0,.55.933,1.785,1.785,0,0,0,1.1.332,2.2,2.2,0,0,0,.646-.089,1.036,1.036,0,0,0,.5-.332.925.925,0,0,0,.144-.889,1.187,1.187,0,0,0-.109-.222.677.677,0,0,0-.191-.185,2.524,2.524,0,0,0-.232-.144,2.386,2.386,0,0,0-.3-.126q-.2-.072-.325-.109t-.376-.109l-.39-.113a7.288,7.288,0,0,1-.7-.246,3.058,3.058,0,0,1-.567-.325,1.306,1.306,0,0,1-.441-.53,1.792,1.792,0,0,1-.147-.752,1.738,1.738,0,0,1,.328-1.073,1.846,1.846,0,0,1,.851-.632,3.4,3.4,0,0,1,1.193-.195,2.92,2.92,0,0,1,1.637.438,1.867,1.867,0,0,1,.817,1.313l-.971.246a1.287,1.287,0,0,0-.513-.851,1.632,1.632,0,0,0-.964-.284,1.664,1.664,0,0,0-.9.236.793.793,0,0,0-.376.721.718.718,0,0,0,.1.373,1.183,1.183,0,0,0,.2.263,1.24,1.24,0,0,0,.369.2q.267.106.4.144t.492.126q.068.021.1.027.4.1.646.181a3.97,3.97,0,0,1,.581.246,1.932,1.932,0,0,1,.523.366,1.694,1.694,0,0,1,.328.52,1.834,1.834,0,0,1,.137.725,1.957,1.957,0,0,1-.2.906,1.577,1.577,0,0,1-.55.619,2.661,2.661,0,0,1-.783.338A3.729,3.729,0,0,1,114.957,32.13Zm7.882-6.979a3.056,3.056,0,0,1,1.217.246,2.993,2.993,0,0,1,1,.69,3.227,3.227,0,0,1,.673,1.107,4.083,4.083,0,0,1,.25,1.449,3.553,3.553,0,0,1-.906,2.536,2.942,2.942,0,0,1-2.232.964,2.66,2.66,0,0,1-1.4-.383,2.509,2.509,0,0,1-.96-1.032v4.655h-1.183V25.28h1.142l.027,1.306a2.46,2.46,0,0,1,.957-1.049A2.685,2.685,0,0,1,122.838,25.15Zm-.232,5.968a2.04,2.04,0,0,0,1.555-.68,2.857,2.857,0,0,0,0-3.585,2.121,2.121,0,0,0-3.134.031,2.742,2.742,0,0,0,0,3.527A2.05,2.05,0,0,0,122.606,31.118Zm5.838-7.417a.805.805,0,0,1-.8-.8.758.758,0,0,1,.236-.561.775.775,0,0,1,.564-.232.767.767,0,0,1,.557.232.758.758,0,0,1,.236.561.77.77,0,0,1-.236.564A.762.762,0,0,1,128.444,23.7Zm-.6,8.3V25.28h1.189V32Zm5.742,0a1.766,1.766,0,0,1-1.312-.482,1.823,1.823,0,0,1-.479-1.343V26.224h-1.374V25.28h.506a.971.971,0,0,0,.742-.236,1.161,1.161,0,0,0,.215-.79V23.038h1.1V25.28h1.545v.943h-1.545v3.828a1.019,1.019,0,0,0,.256.742.9.9,0,0,0,.673.263h.615V32Zm4.122.13a2.287,2.287,0,0,1-1.473-.461,1.657,1.657,0,0,1-.578-1.377,1.957,1.957,0,0,1,.185-.878,1.549,1.549,0,0,1,.547-.612,3.28,3.28,0,0,1,.79-.379,7.3,7.3,0,0,1,1.022-.243L139.286,28q.595-.109.595-.622a1.174,1.174,0,0,0-.42-1,1.713,1.713,0,0,0-1.063-.318,1.745,1.745,0,0,0-1.053.308,1.287,1.287,0,0,0-.5.943l-1.066-.226a2.052,2.052,0,0,1,.841-1.439,3.141,3.141,0,0,1,1.832-.482,3.716,3.716,0,0,1,.974.12,2.647,2.647,0,0,1,.813.376,1.686,1.686,0,0,1,.581.725,2.7,2.7,0,0,1,.208,1.1v2.775a1.136,1.136,0,0,0,.154.7.664.664,0,0,0,.53.181h.109V32h-.588a1.121,1.121,0,0,1-1.271-.909h-.055A2.568,2.568,0,0,1,137.707,32.13Zm.273-.957a1.793,1.793,0,0,0,1.442-.649,2.674,2.674,0,0,0,.547-1.777l-1.777.342a2.392,2.392,0,0,0-1.042.373.867.867,0,0,0-.338.735.857.857,0,0,0,.325.738A1.388,1.388,0,0,0,137.98,31.173Zm5.51.827V21.5h1.2V32Zm5.154.13a2.287,2.287,0,0,1-1.473-.461,1.657,1.657,0,0,1-.578-1.377,1.957,1.957,0,0,1,.185-.878,1.549,1.549,0,0,1,.547-.612,3.28,3.28,0,0,1,.79-.379,7.3,7.3,0,0,1,1.022-.243L150.223,28q.595-.109.595-.622a1.174,1.174,0,0,0-.42-1,1.713,1.713,0,0,0-1.063-.318,1.745,1.745,0,0,0-1.053.308,1.287,1.287,0,0,0-.5.943l-1.066-.226a2.052,2.052,0,0,1,.841-1.439,3.141,3.141,0,0,1,1.832-.482,3.716,3.716,0,0,1,.974.12,2.647,2.647,0,0,1,.813.376,1.686,1.686,0,0,1,.581.725,2.7,2.7,0,0,1,.208,1.1v2.775a1.136,1.136,0,0,0,.154.7.664.664,0,0,0,.53.181h.109V32h-.588a1.121,1.121,0,0,1-1.271-.909h-.055A2.568,2.568,0,0,1,148.644,32.13Zm.273-.957a1.793,1.793,0,0,0,1.442-.649,2.674,2.674,0,0,0,.547-1.777l-1.777.342a2.392,2.392,0,0,0-1.042.373.867.867,0,0,0-.338.735.857.857,0,0,0,.325.738A1.388,1.388,0,0,0,148.917,31.173Zm6.665-4.71a2.032,2.032,0,0,1,.834-.9,2.512,2.512,0,0,1,1.292-.355v1.114a2.214,2.214,0,0,0-1.562.5,2.084,2.084,0,0,0-.537,1.593V32h-1.183V25.28h1.155ZM159.7,23.7a.805.805,0,0,1-.8-.8.758.758,0,0,1,.236-.561.775.775,0,0,1,.564-.232.767.767,0,0,1,.557.232.758.758,0,0,1,.236.561.77.77,0,0,1-.236.564A.762.762,0,0,1,159.7,23.7Zm-.6,8.3V25.28h1.189V32Zm5.147.13a2.287,2.287,0,0,1-1.473-.461,1.657,1.657,0,0,1-.578-1.377,1.957,1.957,0,0,1,.185-.878,1.549,1.549,0,0,1,.547-.612,3.28,3.28,0,0,1,.79-.379,7.3,7.3,0,0,1,1.022-.243L165.823,28q.595-.109.595-.622a1.174,1.174,0,0,0-.42-1,1.713,1.713,0,0,0-1.063-.318,1.745,1.745,0,0,0-1.053.308,1.287,1.287,0,0,0-.5.943l-1.066-.226a2.052,2.052,0,0,1,.841-1.439,3.141,3.141,0,0,1,1.832-.482,3.716,3.716,0,0,1,.974.12,2.647,2.647,0,0,1,.813.376,1.686,1.686,0,0,1,.581.725,2.7,2.7,0,0,1,.208,1.1v2.775a1.136,1.136,0,0,0,.154.7.664.664,0,0,0,.53.181h.109V32h-.588a1.121,1.121,0,0,1-1.271-.909h-.055A2.568,2.568,0,0,1,164.244,32.13Zm.273-.957a1.793,1.793,0,0,0,1.442-.649,2.674,2.674,0,0,0,.547-1.777l-1.777.342a2.392,2.392,0,0,0-1.042.373.867.867,0,0,0-.338.735.857.857,0,0,0,.325.738A1.388,1.388,0,0,0,164.517,31.173Z" transform="translate(4359 -1494)" fill="#00223d"/>
    <rect id="Rectángulo_3304" data-name="Rectángulo 3304" width="194" height="49" rx="3" transform="translate(4367 -1438)" fill="#5799ab"/>
    <g id="Grupo_867" data-name="Grupo 867" transform="translate(4399.228 -1428.075)">
      <path id="Trazado_1157" data-name="Trazado 1157" d="M815.839,2604.383a1.743,1.743,0,0,0-1.738,1.738v24.327a1.744,1.744,0,0,0,1.738,1.738h17.376a1.743,1.743,0,0,0,1.738-1.738v-19.114L828,2604.383Z" transform="translate(-810.626 -2604.383)" fill="#f2f2f2"/>
      <path id="Trazado_1160" data-name="Trazado 1160" d="M826.79,2644.553a.869.869,0,0,1-.869.869H806.807a.869.869,0,0,1-.869-.869v-8.688a.869.869,0,0,1,.869-.869h19.114a.869.869,0,0,1,.869.869Z" transform="translate(-805.938 -2621.963)" fill="#f15642"/>
      <g id="Grupo_855" data-name="Grupo 855" transform="translate(3.787 15.982)">
        <path id="Trazado_1161" data-name="Trazado 1161" d="M814.834,2642.4a.478.478,0,0,1,.472-.479h1.6a1.738,1.738,0,0,1,0,3.476h-1.159v.917a.434.434,0,0,1-.387.477.411.411,0,0,1-.057,0,.467.467,0,0,1-.472-.464V2642.4Zm.917.4v1.731h1.16a.869.869,0,0,0,0-1.731Z" transform="translate(-814.834 -2641.924)" fill="#fff"/>
        <path id="Trazado_1162" data-name="Trazado 1162" d="M826.293,2646.868a.434.434,0,0,1-.477-.387c0-.016,0-.032,0-.048v-3.946a.472.472,0,0,1,.479-.434h1.591c3.175,0,3.105,4.807.063,4.807Zm.435-3.959v3.113h1.153c1.876,0,1.959-3.113,0-3.113Z" transform="translate(-821.14 -2641.998)" fill="#fff"/>
        <path id="Trazado_1163" data-name="Trazado 1163" d="M839.39,2642.97v1.1h1.771a.536.536,0,0,1,.5.492.484.484,0,0,1-.5.417H839.39v1.458a.411.411,0,0,1-.393.43h-.023a.441.441,0,0,1-.49-.387c0-.014,0-.028,0-.043V2642.5a.439.439,0,0,1,.44-.438.389.389,0,0,1,.053,0h2.439a.435.435,0,0,1,.484.379.475.475,0,0,1-.483.528H839.39Z" transform="translate(-828.414 -2642.002)" fill="#fff"/>
      </g>
      <path id="Trazado_1164" data-name="Trazado 1164" d="M830.609,2658.314H814.1v.869h16.508a.869.869,0,0,0,.869-.869v-.869A.869.869,0,0,1,830.609,2658.314Z" transform="translate(-810.626 -2634.855)" fill="#e6e6e6"/>
      <path id="Trazado_1158" data-name="Trazado 1158" d="M848.493,2611.334h5.213l-6.951-6.951v5.213A1.743,1.743,0,0,0,848.493,2611.334Z" transform="translate(-829.378 -2604.383)" fill="#b3b3b3"/>
    </g>
    <path id="Trazado_20061" data-name="Trazado 20061" d="M1.278,16.522V4.122H5.766a7,7,0,0,1,2.587.446,4.766,4.766,0,0,1,1.854,1.266,5.507,5.507,0,0,1,1.1,1.952,8.06,8.06,0,0,1,.373,2.532,8.09,8.09,0,0,1-.373,2.54,5.507,5.507,0,0,1-1.1,1.952,4.766,4.766,0,0,1-1.854,1.266,7,7,0,0,1-2.587.446Zm2.574-2.274H5.638A3.046,3.046,0,0,0,8.144,13.24a4.519,4.519,0,0,0,.824-2.922A4.519,4.519,0,0,0,8.144,7.4,3.046,3.046,0,0,0,5.638,6.388H3.853Zm18.21-2.266-.026.592H15.5a2.284,2.284,0,0,0,.7,1.613,2.25,2.25,0,0,0,1.553.558,2.169,2.169,0,0,0,1.163-.3,1.873,1.873,0,0,0,.742-.888l2.266.335a3.851,3.851,0,0,1-1.545,2.068,4.593,4.593,0,0,1-2.609.738,4.776,4.776,0,0,1-3.437-1.214,4.431,4.431,0,0,1-1.274-3.368,4.457,4.457,0,0,1,1.279-3.368,4.634,4.634,0,0,1,3.355-1.231,4.429,4.429,0,0,1,3.167,1.124A4.41,4.41,0,0,1,22.063,11.983Zm-4.351-2.72a1.953,1.953,0,0,0-2.145,1.7h4.051A1.858,1.858,0,0,0,19.008,9.7,1.931,1.931,0,0,0,17.712,9.262Zm9.337,7.432a4.93,4.93,0,0,1-2.574-.618,2.612,2.612,0,0,1-1.261-1.836l2.068-.584a1.662,1.662,0,0,0,1.768,1.313,1.826,1.826,0,0,0,.9-.2.7.7,0,0,0,.352-.682.722.722,0,0,0-.146-.455,1.156,1.156,0,0,0-.451-.326,5.613,5.613,0,0,0-.6-.232q-.3-.094-.785-.227t-.815-.253a5.461,5.461,0,0,1-.777-.33,3.313,3.313,0,0,1-.644-.455,1.833,1.833,0,0,1-.481-.691,2.492,2.492,0,0,1-.167-.944A2.254,2.254,0,0,1,24.393,8.2a4.275,4.275,0,0,1,2.5-.669A4.383,4.383,0,0,1,29.2,8.1a2.563,2.563,0,0,1,1.184,1.768l-1.914.429A1.5,1.5,0,0,0,26.9,9.177a1.72,1.72,0,0,0-.867.2.634.634,0,0,0-.343.584.669.669,0,0,0,.051.266.527.527,0,0,0,.18.215,2.628,2.628,0,0,0,.249.163,1.878,1.878,0,0,0,.352.142q.232.073.386.112l.451.116.459.12q.472.129.828.257a4.85,4.85,0,0,1,.759.36,2.726,2.726,0,0,1,.665.519,2.316,2.316,0,0,1,.433.729,2.694,2.694,0,0,1,.172.983,2.654,2.654,0,0,1-.3,1.279,2.222,2.222,0,0,1-.811.862,3.947,3.947,0,0,1-1.146.463A5.943,5.943,0,0,1,27.049,16.694Zm9.4-.009a4.713,4.713,0,0,1-3.407-1.27A4.387,4.387,0,0,1,31.717,12.1,4.377,4.377,0,0,1,33.034,8.79,5.237,5.237,0,0,1,39.3,8.379a3.793,3.793,0,0,1,1.476,2.394l-2.283.249a1.956,1.956,0,0,0-.738-1.159,2.244,2.244,0,0,0-1.339-.386,2.023,2.023,0,0,0-1.613.721,2.826,2.826,0,0,0-.618,1.905,2.83,2.83,0,0,0,.618,1.9,2.018,2.018,0,0,0,1.613.725,2.225,2.225,0,0,0,1.334-.386,2,2,0,0,0,.742-1.159l2.283.249a3.8,3.8,0,0,1-1.489,2.394A4.681,4.681,0,0,1,36.446,16.686Zm13.327-2.557a8.253,8.253,0,0,0,.215,2.154v.24H47.679l-.2-.961a2.868,2.868,0,0,1-1.236.85,4.554,4.554,0,0,1-1.6.283,4.2,4.2,0,0,1-.824-.077,2.8,2.8,0,0,1-.742-.262,2.253,2.253,0,0,1-.614-.459,2.013,2.013,0,0,1-.412-.7,2.786,2.786,0,0,1-.154-.957,2.653,2.653,0,0,1,.163-.957,2.243,2.243,0,0,1,.429-.717,2.6,2.6,0,0,1,.7-.523,5.319,5.319,0,0,1,.875-.378,10.459,10.459,0,0,1,1.047-.275l1.45-.326a1.6,1.6,0,0,0,.656-.279.556.556,0,0,0,.193-.442.91.91,0,0,0-.433-.85,2.024,2.024,0,0,0-1.051-.257A1.513,1.513,0,0,0,44.2,10.584l-2.188-.395a2.962,2.962,0,0,1,1.279-2.012,5.082,5.082,0,0,1,2.772-.648q3.707,0,3.707,3.184Zm-4.351.892a1.988,1.988,0,0,0,1.528-.639,2.694,2.694,0,0,0,.592-1.892l-2.094.592a2.475,2.475,0,0,0-.88.36.74.74,0,0,0-.3.635.822.822,0,0,0,.326.7A1.35,1.35,0,0,0,45.422,15.021ZM54.544,9.1A2.864,2.864,0,0,1,55.7,8.04,3.535,3.535,0,0,1,57.428,7.6V9.8a3.342,3.342,0,0,0-2.111.532,2.323,2.323,0,0,0-.652,1.888v4.3H52.176V7.7h2.369ZM64.9,7.7h2.351v8.161a6.6,6.6,0,0,1-.33,2.2,3.623,3.623,0,0,1-.957,1.506,3.988,3.988,0,0,1-1.467.845,6.187,6.187,0,0,1-1.922.275q-3.493,0-4.548-2.738l2.051-.875a2.993,2.993,0,0,0,.953,1.279,2.428,2.428,0,0,0,1.45.412q2.291,0,2.291-2.72v-1.03a2.779,2.779,0,0,1-1.111.871,3.7,3.7,0,0,1-1.566.33,3.951,3.951,0,0,1-2.832-1.189,4.075,4.075,0,0,1-.871-1.386,5.123,5.123,0,0,1,0-3.574A3.911,3.911,0,0,1,59.268,8.7a4.028,4.028,0,0,1,1.287-.858,3.973,3.973,0,0,1,1.558-.309,3.588,3.588,0,0,1,1.635.365,2.607,2.607,0,0,1,1.094.974Zm-3.789,5.835a2.264,2.264,0,0,0,3.24-.009,2.466,2.466,0,0,0,0-3.355,2.284,2.284,0,0,0-3.252-.013,2.347,2.347,0,0,0-.648,1.695A2.323,2.323,0,0,0,61.113,13.536Zm15.94.592a8.253,8.253,0,0,0,.215,2.154v.24H74.96l-.2-.961a2.868,2.868,0,0,1-1.236.85,4.554,4.554,0,0,1-1.6.283,4.2,4.2,0,0,1-.824-.077,2.8,2.8,0,0,1-.742-.262,2.253,2.253,0,0,1-.614-.459,2.013,2.013,0,0,1-.412-.7,2.786,2.786,0,0,1-.154-.957,2.654,2.654,0,0,1,.163-.957,2.243,2.243,0,0,1,.429-.717,2.6,2.6,0,0,1,.7-.523,5.319,5.319,0,0,1,.875-.378,10.459,10.459,0,0,1,1.047-.275l1.45-.326a1.6,1.6,0,0,0,.656-.279.556.556,0,0,0,.193-.442.91.91,0,0,0-.433-.85,2.024,2.024,0,0,0-1.051-.257,1.513,1.513,0,0,0-1.725,1.347L69.3,10.189a2.962,2.962,0,0,1,1.279-2.012,5.082,5.082,0,0,1,2.772-.648q3.707,0,3.707,3.184Zm-4.351.892a1.988,1.988,0,0,0,1.528-.639,2.694,2.694,0,0,0,.592-1.892l-2.094.592a2.475,2.475,0,0,0-.88.36.74.74,0,0,0-.3.635.822.822,0,0,0,.326.7A1.35,1.35,0,0,0,72.7,15.021ZM81.825,9.1a2.864,2.864,0,0,1,1.159-1.06A3.535,3.535,0,0,1,84.708,7.6V9.8a3.342,3.342,0,0,0-2.111.532,2.323,2.323,0,0,0-.652,1.888v4.3H79.457V7.7h2.369Z" transform="translate(4434.198 -1423.118)" fill="#fff"/>
  </g>
</svg>
