<svg id="Grupo_13264" data-name="Grupo 13264" xmlns="http://www.w3.org/2000/svg" width="128.143" height="128.143" viewBox="0 0 128.143 128.143">
  <rect id="Rectángulo_3163" data-name="Rectángulo 3163" width="128.143" height="128.143" fill="none"/>
  <g id="Grupo_13263" data-name="Grupo 13263" transform="translate(10.655 15.689)">
    <circle id="Elipse_513" data-name="Elipse 513" cx="48.382" cy="48.382" r="48.382" fill="#d1d3d4"/>
    <g id="Grupo_13262" data-name="Grupo 13262" transform="translate(18.456 1.186)">
      <g id="Grupo_13261" data-name="Grupo 13261">
        <g id="Grupo_13260" data-name="Grupo 13260">
          <g id="Grupo_13258" data-name="Grupo 13258" transform="translate(1.091 1.091)">
            <path id="Trazado_19642" data-name="Trazado 19642" d="M1095.231,4859.42l-.577-1.139a9.563,9.563,0,0,1-.982-4.192v-31.719a9.369,9.369,0,0,1,.749-3.7l2.82-6.561a3.235,3.235,0,0,1,1.231-1.434,2.658,2.658,0,0,1,.577-.265,3.152,3.152,0,0,1,2.493.155,4.6,4.6,0,0,0,2.261.529c2.728,0,2.728-1.559,5.44-1.559,2.743,0,2.743,1.559,5.471,1.559a4.645,4.645,0,0,0,2.26-.529,3.136,3.136,0,0,1,4.3,1.543l2.82,6.561a9.369,9.369,0,0,1,.749,3.7V4856.3l-1.559,3.117,1.076,3.212a9.345,9.345,0,0,1,.482,3.008v14.713a9.473,9.473,0,0,1-7.124,9.182,188.74,188.74,0,0,1-45.871,5.735c-7.279,0-9.352-1.886-9.352-6.235,0-.654.67-1.793,1.823-3.242C1070.807,4877.64,1092.473,4859.42,1095.231,4859.42Z" transform="translate(-1037.56 -4801.749)" fill="#93dff9"/>
            <path id="Trazado_19643" data-name="Trazado 19643" d="M1124.711,4769.977s1.948,3.07,1.824,5.627a3.234,3.234,0,0,0-1.231,1.434l-2.821,6.56a9.369,9.369,0,0,0-.749,3.7v30.72h-4.676a60.973,60.973,0,0,1-12.36-.218l-4.474-.763c-1.216-.281-1.871-.484-1.871-.484l-.577-1.139a9.517,9.517,0,0,1-.982-4.192V4779.5a9.3,9.3,0,0,1,.764-3.679l2.805-6.562a3.149,3.149,0,0,1,1.808-1.714,3.092,3.092,0,0,1,2.493.17,4.616,4.616,0,0,0,2.26.514c2.728,0,2.728-1.559,5.44-1.559,2.743,0,2.743,1.559,5.471,1.559a4.48,4.48,0,0,0,2.26-.529,3.136,3.136,0,0,1,4.3,1.543Z" transform="translate(-1065.621 -4766.672)" fill="#93dff9"/>
            <path id="Trazado_19644" data-name="Trazado 19644" d="M982.408,5047.7l.577,1.139c-2.758,0-24.424,18.22-30.909,26.373-1.309,1.559-7.139,1.388-7.139,1.388-3.3.186-6.734.3-10.272.3-7.279,0-9.352-1.886-9.352-6.235s29.49-29.615,32.732-29.615c0,0,.654.2,1.871.484l4.474.763a60.942,60.942,0,0,0,12.36.217h4.676v1A9.566,9.566,0,0,0,982.408,5047.7Z" transform="translate(-925.314 -4991.163)" fill="#93dff9"/>
          </g>
          <g id="Grupo_13259" data-name="Grupo 13259">
            <path id="Trazado_19645" data-name="Trazado 19645" d="M1066.942,4891.451c-7.515,0-10.443-2.054-10.443-7.326,0-.621.234-1.627,2.061-3.921,3.564-4.48,11.118-11.408,17-16.4,3.344-2.836,6.554-5.4,9.039-7.205a32.409,32.409,0,0,1,4.187-2.712l-.013-.026a10.726,10.726,0,0,1-1.1-4.685v-31.719a10.437,10.437,0,0,1,.837-4.124l2.822-6.563a4.341,4.341,0,0,1,1.653-1.926l.029-.018a3.689,3.689,0,0,1,.785-.359,4.229,4.229,0,0,1,3.323.216,3.519,3.519,0,0,0,1.773.414,3.731,3.731,0,0,0,2.186-.637,5.836,5.836,0,0,1,3.254-.922,5.9,5.9,0,0,1,3.284.924,3.753,3.753,0,0,0,2.187.634,3.53,3.53,0,0,0,1.766-.411,4.227,4.227,0,0,1,5.8,2.084l2.821,6.562a10.443,10.443,0,0,1,.838,4.126v33.932a1.094,1.094,0,0,1-.115.488l-1.356,2.712.932,2.782a10.429,10.429,0,0,1,.539,3.354v14.713a10.567,10.567,0,0,1-7.943,10.238A191.189,191.189,0,0,1,1066.942,4891.451Zm23.409-35.85c-.863.146-5.308,3-13.644,10.095-5.711,4.858-13.029,11.578-16.44,15.867-1.536,1.93-1.585,2.542-1.587,2.567,0,3.008.593,5.14,8.261,5.14a188.909,188.909,0,0,0,45.6-5.7,8.386,8.386,0,0,0,6.3-8.125V4860.73a8.26,8.26,0,0,0-.425-2.658l-1.078-3.216a1.09,1.09,0,0,1,.059-.834l1.444-2.887v-33.675a8.272,8.272,0,0,0-.661-3.267l-2.82-6.558a1.985,1.985,0,0,0-1.162-1.1,2.015,2.015,0,0,0-1.634.092l-.016.008a5.7,5.7,0,0,1-2.747.644,5.877,5.877,0,0,1-3.267-.921,3.778,3.778,0,0,0-2.2-.638,3.706,3.706,0,0,0-2.169.633,5.863,5.863,0,0,1-3.271.925,5.644,5.644,0,0,1-2.758-.649,2.062,2.062,0,0,0-1.627-.1l-.054.018a1.555,1.555,0,0,0-.325.153,2.15,2.15,0,0,0-.8.946l-2.815,6.547a8.266,8.266,0,0,0-.66,3.265v31.719a8.521,8.521,0,0,0,.871,3.713l.57,1.124a1.091,1.091,0,0,1-.944,1.583Zm-.016,0h0Z" transform="translate(-1031.56 -4795.749)" fill="#303e58"/>
            <path id="Trazado_19646" data-name="Trazado 19646" d="M1374.911,5080.731a1.091,1.091,0,0,1-.2-2.164c.964-.178,2-.377,3.047-.627a1.091,1.091,0,0,1,.508,2.122c-1.094.262-2.165.467-3.158.651A1.113,1.113,0,0,1,1374.911,5080.731Z" transform="translate(-1291.196 -5020.239)" fill="#303e58"/>
            <path id="Trazado_19647" data-name="Trazado 19647" d="M1279.711,5087.382a59.783,59.783,0,0,1-7.3-.439,1.091,1.091,0,0,1,.267-2.166,59.715,59.715,0,0,0,12.138.213,1.091,1.091,0,0,1,.178,2.174Q1282.33,5087.383,1279.711,5087.382Z" transform="translate(-1207.436 -5025.852)" fill="#303e58"/>
            <path id="Trazado_19648" data-name="Trazado 19648" d="M1239.514,5080.575a1.1,1.1,0,0,1-.247-.028c-1.24-.287-1.919-.5-1.947-.5a1.091,1.091,0,0,1,.644-2.084h0c.006,0,.641.2,1.795.464a1.091,1.091,0,0,1-.245,2.153Z" transform="translate(-1178.881 -5020.238)" fill="#303e58"/>
            <path id="Trazado_19649" data-name="Trazado 19649" d="M1349.1,5005.264a1.091,1.091,0,0,1-.914-1.684c1.383-2.135,1.383-8.08,1.383-10.318a1.091,1.091,0,1,1,2.181,0c0,4.365-.206,9.146-1.734,11.5A1.091,1.091,0,0,1,1349.1,5005.264Z" transform="translate(-1270.081 -4950.086)" fill="#303e58"/>
            <path id="Trazado_19650" data-name="Trazado 19650" d="M1257.036,5027.214a1.081,1.081,0,0,1-.629-.2c-1.678-1.187-2.02-7.963-2.02-8.03a1.091,1.091,0,0,1,2.182,0c0,1.5.658,5.587,1.163,6.3a1.091,1.091,0,0,1-.7,1.932Zm.712-1.909h0Zm-.082-.072h0Z" transform="translate(-1193.475 -4971.133)" fill="#303e58"/>
            <path id="Trazado_19651" data-name="Trazado 19651" d="M1350.665,5118.308a1.091,1.091,0,0,1-1.091-1.091,11.833,11.833,0,0,0-1.374-6.142,1.091,1.091,0,0,1,1.812-1.214,13.784,13.784,0,0,1,1.743,7.356A1.091,1.091,0,0,1,1350.665,5118.308Z" transform="translate(-1270.081 -5045.985)" fill="#303e58"/>
            <path id="Trazado_19652" data-name="Trazado 19652" d="M1216.209,5118.182a1.091,1.091,0,0,1-.662-1.958l5.767-4.4a1.091,1.091,0,0,1,1.322,1.735l-5.768,4.4A1.083,1.083,0,0,1,1216.209,5118.182Z" transform="translate(-1161.343 -5047.808)" fill="#303e58"/>
            <path id="Trazado_19653" data-name="Trazado 19653" d="M1116.151,5180.127a1.091,1.091,0,0,1-.7-1.925c4.282-3.606,11.2-9.915,11.268-9.978a1.091,1.091,0,0,1,1.47,1.611c-.07.063-7.017,6.4-11.333,10.036A1.086,1.086,0,0,1,1116.151,5180.127Z" transform="translate(-1079.475 -5093.901)" fill="#303e58"/>
            <path id="Trazado_19654" data-name="Trazado 19654" d="M929.757,4848.581c-7.515,0-10.443-2.054-10.443-7.326,0-.915.563-2.561,4.956-7.211,2.66-2.815,6.412-6.383,10.563-10.045,3.943-3.478,7.907-6.75,11.163-9.212a40.517,40.517,0,0,1,5.6-3.769l-.012-.023a10.582,10.582,0,0,1-1.1-4.685v-31.719a10.425,10.425,0,0,1,.854-4.113l2.8-6.557a4.253,4.253,0,0,1,2.438-2.31,4.171,4.171,0,0,1,3.369.228,3.535,3.535,0,0,0,1.758.392,3.735,3.735,0,0,0,2.186-.637,5.835,5.835,0,0,1,3.254-.922,5.91,5.91,0,0,1,3.284.924,3.752,3.752,0,0,0,2.187.635,3.391,3.391,0,0,0,1.753-.4,4.227,4.227,0,0,1,5.811,2.077,1.091,1.091,0,0,1-2,.864,2.021,2.021,0,0,0-1.18-1.106,2.062,2.062,0,0,0-1.625.1,5.517,5.517,0,0,1-2.756.649,5.882,5.882,0,0,1-3.267-.921,3.777,3.777,0,0,0-2.2-.638,3.71,3.71,0,0,0-2.169.633,5.858,5.858,0,0,1-3.271.926,5.7,5.7,0,0,1-2.758-.635,2.01,2.01,0,0,0-1.627-.114,2.059,2.059,0,0,0-1.175,1.119l-2.8,6.559a8.236,8.236,0,0,0-.676,3.25v31.719a8.4,8.4,0,0,0,.871,3.713l.57,1.124a1.09,1.09,0,0,1-.944,1.583c-1.362.226-8.525,5.513-17.061,13.057-4.029,3.561-7.667,7.023-10.243,9.749-4.184,4.429-4.36,5.6-4.366,5.723,0,3.009.593,5.141,8.261,5.141,3.309,0,6.744-.1,10.21-.293a1.091,1.091,0,1,1,.122,2.178C936.583,4848.481,933.107,4848.581,929.757,4848.581Zm23.393-35.85h0Z" transform="translate(-919.314 -4760.672)" fill="#303e58"/>
            <path id="Trazado_19655" data-name="Trazado 19655" d="M1142.527,5044.511a59.786,59.786,0,0,1-7.3-.439,1.091,1.091,0,0,1,.267-2.166,59.718,59.718,0,0,0,12.138.213,1.091,1.091,0,0,1,.178,2.174C1146.033,5044.439,1144.27,5044.511,1142.527,5044.511Z" transform="translate(-1095.191 -4990.773)" fill="#303e58"/>
            <path id="Trazado_19656" data-name="Trazado 19656" d="M1102.33,5037.705a1.1,1.1,0,0,1-.247-.028c-1.24-.287-1.919-.5-1.947-.5a1.091,1.091,0,0,1,.644-2.084h0c.006,0,.641.2,1.8.463a1.091,1.091,0,0,1-.245,2.154Z" transform="translate(-1066.635 -4985.162)" fill="#303e58"/>
            <path id="Trazado_19657" data-name="Trazado 19657" d="M1119.852,4984.343a1.083,1.083,0,0,1-.629-.2c-1.678-1.186-2.02-7.963-2.02-8.029a1.091,1.091,0,1,1,2.182,0c0,1.5.658,5.587,1.163,6.3a1.091,1.091,0,0,1-.7,1.932Zm.712-1.91h0Zm-.082-.072h0Z" transform="translate(-1081.229 -4936.056)" fill="#303e58"/>
            <path id="Trazado_19658" data-name="Trazado 19658" d="M1079.025,5075.312a1.091,1.091,0,0,1-.662-1.958l5.767-4.4a1.091,1.091,0,0,1,1.322,1.735l-5.767,4.4A1.085,1.085,0,0,1,1079.025,5075.312Z" transform="translate(-1049.098 -5012.731)" fill="#303e58"/>
            <path id="Trazado_19659" data-name="Trazado 19659" d="M978.966,5137.257a1.091,1.091,0,0,1-.7-1.925c4.282-3.606,11.2-9.915,11.268-9.978a1.091,1.091,0,1,1,1.471,1.611c-.07.064-7.018,6.4-11.333,10.036A1.088,1.088,0,0,1,978.966,5137.257Z" transform="translate(-967.229 -5058.824)" fill="#303e58"/>
          </g>
        </g>
      </g>
    </g>
  </g>
</svg>
