<svg xmlns="http://www.w3.org/2000/svg" width="654.573" height="379.712" viewBox="0 0 654.573 379.712">
  <g id="Grupo_13451" data-name="Grupo 13451" transform="translate(684 4567)">
    <g id="Grupo_13450" data-name="Grupo 13450" transform="translate(-1248.406 -4927.778)">
      <path id="Trazado_19818" data-name="Trazado 19818" d="M1113.813,740.49H677.172c-18.584-29.282-32.586-63.924-35.645-99.2s7.068-73.044,31.727-96.605c17.08-16.32,41.866-28.014,46.154-52.117,3.371-18.95-8.053-37.732-6.9-56.984,1.048-17.482,12.313-32.4,24.969-43.464,43.014-37.62,108.7-41.871,155.621-10.072,11.883,8.054,22.806,18.243,36.138,23.016,19.89,7.12,41.488,1.067,62.016-3.513s43.6-7.145,60.945,5.493c12.739,9.283,19.854,25.093,24.995,40.666a277.639,277.639,0,0,1,13.857,90.764c-.2,13.86-1.273,28.554,4.868,40.75,8.339,16.559,27.183,23.261,39.343,36.828,15.267,17.035,18.24,43.536,12.937,66.473S1126.206,720.954,1113.813,740.49Z" fill="#60c4bc"/>
      <g id="Grupo_13424" data-name="Grupo 13424">
        <path id="Trazado_19819" data-name="Trazado 19819" d="M725.751,577.06l-11.445,1.549L734.652,728.94H619.692l20.345-150.331-11.444-1.549-21.75,160.7a2.407,2.407,0,0,0,2.385,2.729H745.116a2.407,2.407,0,0,0,2.385-2.729Z" fill="#1a1f42"/>
        <g id="Grupo_13420" data-name="Grupo 13420">
          <g id="Grupo_13402" data-name="Grupo 13402">
            <path id="Trazado_19820" data-name="Trazado 19820" d="M737.82,700.132s5.515,2.314,4.8,10.52l-40.236,11.694s-1.943-2.754.249-5.132,18.933-12.358,18.933-12.358Z" fill="#be5c7e"/>
            <path id="Trazado_19821" data-name="Trazado 19821" d="M722.889,682.505l-1.324,22.351s9.485,1.581,16.255-4.724l4.863-15.416Z" fill="#fdbb93"/>
          </g>
          <g id="Grupo_13403" data-name="Grupo 13403">
            <path id="Trazado_19822" data-name="Trazado 19822" d="M783.883,716.762s5.287,2.795,3.845,10.9l-41.114,8.076s-1.691-2.916.7-5.09,19.955-10.629,19.955-10.629Z" fill="#be5c7e"/>
            <path id="Trazado_19823" data-name="Trazado 19823" d="M759.9,704.132l7.371,15.892a35.777,35.777,0,0,0,16.61-3.262l-4.626-15.455Z" fill="#fdbb93"/>
          </g>
          <path id="Trazado_19824" data-name="Trazado 19824" d="M757.856,468.1s-4.727,36.887-8.534,41.411c-2.039,2.422-40.792,26.218-40.792,26.218l5.379,9.576c.507-.264,42.068-14.817,48.051-21.2,6.957-7.423,19.017-38.756,19.017-38.756Z" fill="#fdbb93"/>
          <g id="Grupo_13404" data-name="Grupo 13404">
            <path id="Trazado_19825" data-name="Trazado 19825" d="M714.336,545.088s-9.023,12.112-12.614,12.042-18.662-6.549-17.888-12.042,25.123-9.577,25.123-9.577Z" fill="#fdbb93"/>
            <path id="Trazado_19826" data-name="Trazado 19826" d="M707.892,535.7s-12.227-4.513-13.706-2.4,5.705,5.783,5.705,5.783Z" fill="#fdbb93"/>
          </g>
          <path id="Trazado_19827" data-name="Trazado 19827" d="M767.466,558.84s-39.152,26.615-38.791,41.08,32.041,110.259,32.041,110.259,13.418,1.106,21.822-3.317l-16.01-91.489s70.276,10.214,78.563-2.66c10.562-16.409-20.493-55.1-20.493-55.1Z" fill="#be5c7e"/>
          <path id="Trazado_19828" data-name="Trazado 19828" d="M845.091,557.609s15.927,34.915,0,55.1c-12.627,16.006-83.851-5.244-83.851-5.244l-18.069,81.773s-18.431,1.548-22.338-3.686c0,0-1.884-94.912,9.244-106.475,13.7-14.232,71.6-17.629,71.6-17.629Z" fill="#be5c7e"/>
          <g id="Grupo_13419" data-name="Grupo 13419">
            <g id="Grupo_13406" data-name="Grupo 13406">
              <g id="Grupo_13405" data-name="Grupo 13405">
                <path id="Trazado_19829" data-name="Trazado 19829" d="M812.3,435.479c3.918,1.12,7.848,3.011,10.123,6.392a14.129,14.129,0,0,1,1.489,11.483A26.859,26.859,0,0,1,818,463.614a34.86,34.86,0,0,1-10.248,8.391,21.944,21.944,0,0,1-12.887,2.459,16.083,16.083,0,0,1-11.115-6.622,19.862,19.862,0,0,1-2.959-10.605,25.147,25.147,0,0,1,1.992-11.027c3.659-8.112,12.974-12.245,21.518-12A32.6,32.6,0,0,1,812.3,435.479Z" fill="#1c213c"/>
                <path id="Trazado_19830" data-name="Trazado 19830" d="M798.961,412.307c-3.7-4.789-13.562-21.491-30.547-21.975a26.019,26.019,0,0,0-19.169,7.716,12.745,12.745,0,0,0-3.5,5.728c-1.01,4.219,1.045,8.327,2.443,12.184a49.56,49.56,0,0,1,3.277,13.8c.319,5.287-.665,10.9,1.653,15.667a14.391,14.391,0,0,0,8.054,6.968c9.844,3.6,21.942-1.442,30.4-6.453a33.61,33.61,0,0,0,9.887-8.336,17.924,17.924,0,0,0,3.873-12.121C804.9,420.558,801.987,416.223,798.961,412.307Z" fill="#1c213c"/>
              </g>
            </g>
            <path id="Trazado_19831" data-name="Trazado 19831" d="M765.454,560.182s15.144-35.872-1.383-58.131c-9.208-12.4-10.9-28.923-3.167-39.515,5.158-7.066,17.414-15.731,26.031-17.245,9.5-1.669,27.45-.542,33.264,7.15,7.452,9.86,1.455,27.98,1.539,40.34.1,15.058,13.417,44.9,23.353,64.828C845.091,557.609,795.041,574.08,765.454,560.182Z" fill="#f0806f"/>
            <path id="Trazado_19832" data-name="Trazado 19832" d="M816.772,449.374c20.05,14.328,39.267,35.289,38.382,45.275-1.169,13.2-32.044,28.719-32.044,28.719v-16.46s12.9-10.819,12.9-11.7c0-1.664-16.454-10.52-16.454-10.52Z" fill="#fdbb93"/>
            <path id="Trazado_19833" data-name="Trazado 19833" d="M816.772,449.374S839.157,463,843.285,471.732c0,0-3.907,12.858-15.924,18.9l-8.4-4.264Z" fill="#f0806f"/>
            <g id="Grupo_13418" data-name="Grupo 13418">
              <g id="Grupo_13417" data-name="Grupo 13417">
                <path id="Trazado_19834" data-name="Trazado 19834" d="M787.269,412.824c.072.295.151.615.217.956.044.177.091.371.128.558.544,2.431,1.128,5.387,1.655,8.769.684,4.273.932,8.661,1.618,14.613a62.593,62.593,0,0,0,2.4,11.524c-2.987,6.167-15.757,6.232-15.591,4.217a9.288,9.288,0,0,0-.679-3.89,11.279,11.279,0,0,0-1.257-2.5,6.162,6.162,0,0,0-.7-.855,3.213,3.213,0,0,0-2.54-.993c-.5.017-1.006.051-1.5.11-1.309.125-2.6.343-3.9.469a26.331,26.331,0,0,1-4.437.125,9.309,9.309,0,0,1-6.871-3.127c-2.121-2.632-3.613-7.465-4.623-12.81a116.353,116.353,0,0,1-1.878-19.347,12.517,12.517,0,0,1,.874-4.441,15.671,15.671,0,0,1,11.167-9.526c10.142-2.466,19.984-3.393,24.654,11.389.231.721.542,1.806.886,3.2C787.014,411.752,787.14,412.265,787.269,412.824Z" fill="#fdbb93"/>
                <path id="Trazado_19835" data-name="Trazado 19835" d="M755.276,401.384a36.413,36.413,0,0,0,31.763,11.537,2.262,2.262,0,0,0,1.507-.64,2.33,2.33,0,0,0,.309-1.583,23.278,23.278,0,0,0-1.183-7.534,14.41,14.41,0,0,0-6.47-7.028,26.662,26.662,0,0,0-9.246-2.884,23.816,23.816,0,0,0-8.732.08,29.305,29.305,0,0,0-8.129,3.631c-2.369,1.389-4.77,2.892-6.368,5.125a10.7,10.7,0,0,0-1.214,9.854c.258.678.582,1.756,1.434,1.2a11.14,11.14,0,0,0,1.935-1.773,16.824,16.824,0,0,0,2.9-4.309A16.23,16.23,0,0,0,755.276,401.384Z" fill="#1c213c"/>
                <path id="Trazado_19836" data-name="Trazado 19836" d="M783.784,442.191a24.5,24.5,0,0,1-8.02,4.884,6.162,6.162,0,0,0-.7-.855,3.213,3.213,0,0,0-2.54-.993c-.5.017-1.006.051-1.5.11l0-.009S778.934,444.268,783.784,442.191Z" fill="#fdede4" style="mix-blend-mode: multiply;isolation: isolate"/>
                <g id="Grupo_13407" data-name="Grupo 13407">
                  <path id="Trazado_19837" data-name="Trazado 19837" d="M756.907,425.855c.174.708-.633,1.515-1.8,1.8s-2.257-.054-2.43-.762.632-1.514,1.8-1.8S756.733,425.147,756.907,425.855Z" fill="#fda294"/>
                  <path id="Trazado_19838" data-name="Trazado 19838" d="M768.719,422.718c.174.708-.632,1.515-1.8,1.8s-2.256-.054-2.43-.762.632-1.514,1.8-1.8S768.545,422.011,768.719,422.718Z" fill="#fda294"/>
                  <path id="Trazado_19839" data-name="Trazado 19839" d="M757.281,422.091a1.211,1.211,0,1,1-1.5-1.172A1.364,1.364,0,0,1,757.281,422.091Z" fill="#331812"/>
                  <path id="Trazado_19840" data-name="Trazado 19840" d="M764.952,420.2a1.211,1.211,0,1,1-1.5-1.172A1.365,1.365,0,0,1,764.952,420.2Z" fill="#331812"/>
                  <path id="Trazado_19841" data-name="Trazado 19841" d="M764.585,414.4a2.67,2.67,0,0,0-3.356-.054.3.3,0,0,0-.078.411.3.3,0,0,0,.411.078,2.077,2.077,0,0,1,2.634.011C764.489,415.089,764.878,414.643,764.585,414.4Z" fill="#1c213c"/>
                  <path id="Trazado_19842" data-name="Trazado 19842" d="M752.988,417.047a2.671,2.671,0,0,1,3.112-1.257.3.3,0,0,1,.221.356.3.3,0,0,1-.356.221,2.074,2.074,0,0,0-2.454.957C753.325,417.656,752.8,417.38,752.988,417.047Z" fill="#1c213c"/>
                  <path id="Trazado_19843" data-name="Trazado 19843" d="M761.473,428.08a1.7,1.7,0,0,1-.658-.221,1,1,0,0,1-.408-.474.618.618,0,0,1,.041-.571.582.582,0,0,1,.172-.167q.033-.018.066-.033l.053-.018c.007,0,.045-.008.053-.011h.075a.3.3,0,0,0,.017-.592,1.076,1.076,0,0,0-.907.465,1.175,1.175,0,0,0-.165,1,1.824,1.824,0,0,0,1.644,1.211.3.3,0,0,0,.3-.288A.3.3,0,0,0,761.473,428.08Z" fill="#d49e7e"/>
                  <path id="Trazado_19844" data-name="Trazado 19844" d="M766.1,432.477a.647.647,0,0,0-.9-.014,5.93,5.93,0,0,1-4.669,1.288.654.654,0,0,0-.787.427.638.638,0,0,0,.427.788,7.312,7.312,0,0,0,5.911-1.593A.641.641,0,0,0,766.1,432.477Z" fill="#e48e80"/>
                </g>
                <g id="Grupo_13412" data-name="Grupo 13412">
                  <g id="Grupo_13411" data-name="Grupo 13411">
                    <g id="Grupo_13408" data-name="Grupo 13408">
                      <path id="Trazado_19845" data-name="Trazado 19845" d="M781.079,441.984a49.228,49.228,0,0,1-8.4,3.249l-.17,0c-.09.009-.17,0-.26.012-.025.006-.037.009-.053,0a.77.77,0,0,0-.167.015c-.028-.006-.065,0-.093,0-.127.018-.269.027-.412.035a1.014,1.014,0,0,1-.192.021c-.2.024-.412.036-.644.053-.545.082-.864.121-.864.121a.874.874,0,0,1-.177.03c-4.389.54-10.608,1.385-13.836-2.711-2.12-2.633-3.612-7.472-4.621-12.809.754-.567,6.225-4.514,9.418-5.05,3.43-.593,12.854,2.243,15.906,1.664C776.512,426.612,778.782,438.251,781.079,441.984Z" fill="#fff"/>
                    </g>
                    <g id="Grupo_13409" data-name="Grupo 13409">
                      <path id="Trazado_19846" data-name="Trazado 19846" d="M783.707,417.17a1.3,1.3,0,0,0-1.8-.027,36.272,36.272,0,0,0-7.7,9.865,1.306,1.306,0,0,0,.43,1.753,1.288,1.288,0,0,0,1.753-.431,34.209,34.209,0,0,1,7.3-9.355A1.294,1.294,0,0,0,783.707,417.17Z" fill="#fff"/>
                    </g>
                    <g id="Grupo_13410" data-name="Grupo 13410">
                      <path id="Trazado_19847" data-name="Trazado 19847" d="M786.78,421.779a19.3,19.3,0,0,1-2.122,9.393c-.722,1.52-1.546,2.988-2.385,4.446a31.66,31.66,0,0,1-2.771,4.369,1.319,1.319,0,0,0-.027,1.8,1.284,1.284,0,0,0,1.805.028A33.658,33.658,0,0,0,784.3,437.2c.943-1.633,1.873-3.277,2.668-4.988a21.677,21.677,0,0,0,2.36-10.366C789.235,420.221,786.682,420.139,786.78,421.779Z" fill="#fff"/>
                    </g>
                  </g>
                </g>
                <g id="Grupo_13414" data-name="Grupo 13414">
                  <g id="Grupo_13413" data-name="Grupo 13413">
                    <path id="Trazado_19848" data-name="Trazado 19848" d="M756.327,426.314l-4.86,1.04a3.711,3.711,0,0,1-4.4-2.848l-.451-2.108a.988.988,0,0,1,.759-1.172l10.177-2.179a.988.988,0,0,1,1.172.759l.451,2.108A3.709,3.709,0,0,1,756.327,426.314Zm-8.837-4.549a.437.437,0,0,0-.334.518l.451,2.107a3.158,3.158,0,0,0,3.744,2.425l4.86-1.04a3.159,3.159,0,0,0,2.425-3.746l-.451-2.107a.437.437,0,0,0-.518-.335Z" fill="#fff"/>
                    <path id="Trazado_19849" data-name="Trazado 19849" d="M769.734,423.444l-4.861,1.041a3.711,3.711,0,0,1-4.4-2.849l-.451-2.108a.988.988,0,0,1,.76-1.172l10.177-2.179a.99.99,0,0,1,1.172.759l.451,2.108A3.71,3.71,0,0,1,769.734,423.444Zm-8.837-4.549a.437.437,0,0,0-.335.518l.451,2.108a3.157,3.157,0,0,0,3.745,2.424l4.86-1.04a3.158,3.158,0,0,0,2.425-3.745l-.452-2.108a.436.436,0,0,0-.517-.335Z" fill="#fff"/>
                  </g>
                  <path id="Trazado_19850" data-name="Trazado 19850" d="M760.36,420.645a2.706,2.706,0,0,0-1.559.33l-.3-.466a3.229,3.229,0,0,1,1.909-.413Z" fill="#fff"/>
                  <rect id="Rectángulo_3174" data-name="Rectángulo 3174" width="11.984" height="0.827" transform="matrix(0.967, -0.255, 0.255, 0.967, 771.555, 416.356)" fill="#fff"/>
                </g>
                <g id="Grupo_13416" data-name="Grupo 13416">
                  <path id="Trazado_19851" data-name="Trazado 19851" d="M781.139,417.544a8.76,8.76,0,0,0,.108,3.287l.018.073a7.546,7.546,0,0,0,1.01,2.342,3.878,3.878,0,0,0,4.168,1.684c4.158-1.023,5.411-6.7,4.24-10.263a6.632,6.632,0,0,0-.95-1.869c-2.048-2.786-5.527-1.356-7.178,1.057A8.894,8.894,0,0,0,781.139,417.544Z" fill="#fdbb93"/>
                  <g id="Grupo_13415" data-name="Grupo 13415">
                    <path id="Trazado_19852" data-name="Trazado 19852" d="M787.407,413.792a5.629,5.629,0,0,0-3.287,7.363c.138.353.7.179.565-.176a5.041,5.041,0,0,1,2.9-6.622C787.938,414.222,787.764,413.656,787.407,413.792Z" fill="#d49e7e"/>
                    <path id="Trazado_19853" data-name="Trazado 19853" d="M787.627,417.151c-.949-.89-2.322-.6-3.392-.125a.306.306,0,0,0-.2.371.3.3,0,0,0,.371.194c.863-.38,2.03-.741,2.817,0C787.506,417.849,787.905,417.412,787.627,417.151Z" fill="#d49e7e"/>
                  </g>
                </g>
              </g>
            </g>
            <path id="Trazado_19854" data-name="Trazado 19854" d="M822.036,485.219a26.263,26.263,0,0,1-6.4-7.056c-.468-.755-1.665-.061-1.194.7a28.082,28.082,0,0,0,6.894,7.551.694.694,0,0,0,.946-.248A.707.707,0,0,0,822.036,485.219Z" fill="#f0bfb7" style="mix-blend-mode: multiply;isolation: isolate"/>
          </g>
          <path id="Trazado_19855" data-name="Trazado 19855" d="M756.774,471.732a161.79,161.79,0,0,0-7.458,28.413A52.05,52.05,0,0,0,772.6,512.01Z" fill="#f0806f"/>
          <path id="Trazado_19856" data-name="Trazado 19856" d="M789.762,613.623l-29.135-6.354a.7.7,0,0,0-.85.483q-3.69,21.57-8.474,42.933-1.36,6.066-2.808,12.11c-.207.865,1.126,1.234,1.334.368q5.093-21.282,9.1-42.805,1.077-5.79,2.068-11.595l28.4,6.193C790.261,615.145,790.632,613.813,789.762,613.623Z" fill="#ce869f" style="mix-blend-mode: multiply;isolation: isolate"/>
        </g>
        <g id="Grupo_13421" data-name="Grupo 13421">
          <path id="Trazado_19857" data-name="Trazado 19857" d="M854.41,626.753l-7.965,1.078L860.6,732.452H780.6l14.159-104.621-7.965-1.078L771.658,738.591a1.674,1.674,0,0,0,1.66,1.9h94.569a1.675,1.675,0,0,0,1.66-1.9Z" fill="#1a1f42"/>
          <rect id="Rectángulo_3175" data-name="Rectángulo 3175" width="92.269" height="13.217" rx="6.608" transform="translate(774.468 616.902)" fill="#fdb761"/>
        </g>
        <g id="Grupo_13422" data-name="Grupo 13422">
          <rect id="Rectángulo_3176" data-name="Rectángulo 3176" width="0.955" height="12.564" transform="translate(727.614 532.035)" fill="#933657"/>
          <rect id="Rectángulo_3177" data-name="Rectángulo 3177" width="1.426" height="24.364" transform="translate(726.621 470.591)" fill="#933657"/>
          <rect id="Rectángulo_3178" data-name="Rectángulo 3178" width="0.917" height="4.659" transform="translate(786.577 487.89)" fill="#933657"/>
          <rect id="Rectángulo_3179" data-name="Rectángulo 3179" width="0.916" height="4.659" transform="translate(805.098 487.89)" fill="#933657"/>
          <rect id="Rectángulo_3180" data-name="Rectángulo 3180" width="4.43" height="9.216" transform="translate(821.71 506.908)" fill="#933657"/>
          <path id="Trazado_19858" data-name="Trazado 19858" d="M823.115,496.163v69.476H780.946l4.389-38.7-48.892-4.478v10.124a2.658,2.658,0,0,1-2.66,2.66H722.818a2.658,2.658,0,0,1-2.66-2.66V496.163a2.62,2.62,0,0,1,2.615-2.626h97.715A2.63,2.63,0,0,1,823.115,496.163Z" fill="#be5c7e"/>
          <path id="Trazado_19859" data-name="Trazado 19859" d="M811.6,501.2H783.9a5.7,5.7,0,1,0,0,11.4h27.7a5.7,5.7,0,1,0,0-11.4Z" fill="#cd92a7" style="mix-blend-mode: multiply;isolation: isolate"/>
          <path id="Trazado_19860" data-name="Trazado 19860" d="M815.016,514.851h-8.532a1.757,1.757,0,1,0,0,3.513h8.532a1.757,1.757,0,0,0,0-3.513Z" fill="#cd92a7" style="mix-blend-mode: multiply;isolation: isolate"/>
          <path id="Trazado_19861" data-name="Trazado 19861" d="M828.507,530.2h0a3.462,3.462,0,0,1-3.462-3.462V497a3.462,3.462,0,0,1,3.462-3.462h0A3.462,3.462,0,0,1,831.97,497V526.74A3.462,3.462,0,0,1,828.507,530.2Z" fill="#be5c7e"/>
          <rect id="Rectángulo_3181" data-name="Rectángulo 3181" width="8.351" height="18.459" rx="1.538" transform="translate(723.159 473.263)" fill="#fdb761"/>
          <rect id="Rectángulo_3182" data-name="Rectángulo 3182" width="10.387" height="3.208" transform="translate(781.841 491.441)" fill="#be5c7e"/>
          <rect id="Rectángulo_3183" data-name="Rectángulo 3183" width="10.387" height="3.208" transform="translate(800.363 491.441)" fill="#be5c7e"/>
          <rect id="Rectángulo_3184" data-name="Rectángulo 3184" width="113.648" height="8.554" rx="2.215" transform="translate(714.095 565.641)" fill="#d25c48"/>
          <rect id="Rectángulo_3185" data-name="Rectángulo 3185" width="4.239" height="12.755" rx="1.069" transform="translate(820.991 539.024)" fill="#be5c7e"/>
          <path id="Trazado_19862" data-name="Trazado 19862" d="M823.115,553.742v11.9H780.946l4.389-38.7-48.891-4.478v-7.61l57.489,5.133-3.6,33.757Z" fill="#cd92a7" style="mix-blend-mode: multiply;isolation: isolate"/>
          <path id="Trazado_19863" data-name="Trazado 19863" d="M725.595,519.213h0a2.435,2.435,0,0,1-2.436-2.435V502.067a2.436,2.436,0,0,1,2.436-2.436h0a2.436,2.436,0,0,1,2.435,2.436v14.711A2.435,2.435,0,0,1,725.595,519.213Z" fill="#fff" opacity="0.3" style="mix-blend-mode: overlay;isolation: isolate"/>
        </g>
        <g id="Grupo_13423" data-name="Grupo 13423">
          <path id="Trazado_19864" data-name="Trazado 19864" d="M897.671,577.06l-11.445,1.549L906.572,728.94H791.612l20.345-150.331-11.445-1.549-21.749,160.7a2.406,2.406,0,0,0,2.385,2.729H917.035a2.406,2.406,0,0,0,2.385-2.729Z" fill="#2d3561"/>
          <rect id="Rectángulo_3186" data-name="Rectángulo 3186" width="323.798" height="10.21" rx="1.351" transform="translate(601.356 574.192)" fill="#f0806f"/>
          <path id="Trazado_19865" data-name="Trazado 19865" d="M925.154,578.477v4.573A1.361,1.361,0,0,1,923.8,584.4h-321.1a1.36,1.36,0,0,1-1.351-1.352v-4.573Z" fill="#d4b3aa" style="mix-blend-mode: multiply;isolation: isolate"/>
        </g>
        <path id="Trazado_19866" data-name="Trazado 19866" d="M767.668,564.639l-51.275.046a27.54,27.54,0,0,0-13.27,19.463c-.644,4.286-.288,8.827-2.08,12.774-2.6,5.718-8.975,8.652-15.046,10.256s-12.552,2.447-17.76,5.957c-6.633,4.472-9.963,12.472-11.714,20.278,14.824,2.053,29.992,4.655,42.657,12.628.8-5.185,4.565-9.526,9.013-12.309s9.569-4.251,14.6-5.755,10.124-3.119,14.415-6.138a24.346,24.346,0,0,0,10.266-17.654c.425-5.418-1.1-10.837-.779-16.262C747.27,578.188,758.318,567.411,767.668,564.639Z" fill="#fff"/>
      </g>
      <g id="Grupo_13443" data-name="Grupo 13443">
        <path id="Trazado_19867" data-name="Trazado 19867" d="M971.678,577.06l-11.445,1.549L980.579,728.94H865.618l20.346-150.331-11.445-1.549-21.749,160.7a2.406,2.406,0,0,0,2.385,2.729H991.042a2.406,2.406,0,0,0,2.385-2.729Z" fill="#1a1f42"/>
        <g id="Grupo_13439" data-name="Grupo 13439">
          <path id="Trazado_19868" data-name="Trazado 19868" d="M1018.6,472.506s-7.62,36.009-12.319,47.285c-4.512,10.825-19.506,33.2-19.506,33.2l8.667,6.672s23.87-17.578,30.261-36.287C1030.072,510.6,1030.922,483.937,1018.6,472.506Z" fill="#fdbb93"/>
          <g id="Grupo_13425" data-name="Grupo 13425">
            <path id="Trazado_19869" data-name="Trazado 19869" d="M1029.809,716.762s5.288,2.795,3.846,10.9l-41.115,8.076s-1.691-2.916.7-5.09,19.955-10.629,19.955-10.629Z" fill="#fdb761"/>
            <path id="Trazado_19870" data-name="Trazado 19870" d="M1005.829,704.132l7.37,15.892a35.777,35.777,0,0,0,16.61-3.262l-4.626-15.455Z" fill="#fdbb93"/>
          </g>
          <g id="Grupo_13426" data-name="Grupo 13426">
            <path id="Trazado_19871" data-name="Trazado 19871" d="M997.391,717.082s5.546,2.241,4.939,10.456l-40.075,12.231s-1.98-2.728.18-5.135,18.766-12.61,18.766-12.61Z" fill="#fdb761"/>
            <path id="Trazado_19872" data-name="Trazado 19872" d="M979.764,702.4l1.437,19.624a35.767,35.767,0,0,0,16.19-4.942l1.023-13.242Z" fill="#fdbb93"/>
          </g>
          <g id="Grupo_13427" data-name="Grupo 13427">
            <path id="Trazado_19873" data-name="Trazado 19873" d="M995.444,559.666s-3.8,14.616-7.158,15.9-19.755.951-21.1-4.43,19.676-18.322,19.676-18.322Z" fill="#fdbb93"/>
            <path id="Trazado_19874" data-name="Trazado 19874" d="M985.942,553.392s-13.025.417-13.6,2.93,7.461,3.213,7.461,3.213Z" fill="#fdbb93"/>
          </g>
          <path id="Trazado_19875" data-name="Trazado 19875" d="M1013.393,558.84S974.24,585.455,974.6,599.92s32.041,110.259,32.041,110.259,13.417,1.106,21.822-3.317l-16.011-91.489s70.276,10.214,78.563-2.66c10.563-16.409-20.493-55.1-20.493-55.1Z" fill="#f0806f"/>
          <path id="Trazado_19876" data-name="Trazado 19876" d="M1091.017,557.609s22.119,53.364-7.9,61.138c-22.945,5.942-58.451-4.471-58.451-4.471L1001.1,710.3s-15.365,1.912-23.685-4.7c0,0,3.541-105.684,13.26-113.921s35.025-33.109,35.025-33.109Z" fill="#f0806f"/>
          <g id="Grupo_13438" data-name="Grupo 13438">
            <path id="Trazado_19877" data-name="Trazado 19877" d="M1065.567,418.627a22.089,22.089,0,0,0,3.23-10.821c.239-4.928-1.041-10.223-4.716-13.515-2.906-2.6-6.9-3.621-10.784-4.029s-7.823-.3-11.65-1.057c-3.494-.693-6.811-2.1-10.289-2.864s-7.324-.835-10.381.994a11.034,11.034,0,0,0-4.88,7.1,16.487,16.487,0,0,0,.647,8.722c2.526,7.587,9.091,13.286,16.364,16.608a64.2,64.2,0,0,0,14.511,4.355c2.492.484,5,.924,7.516,1.284,1.93.276,3.783-.685,5.386-1.7A16.515,16.515,0,0,0,1065.567,418.627Z" fill="#1c213c"/>
            <path id="Trazado_19878" data-name="Trazado 19878" d="M1013.393,558.84s21.894-30.872,8.294-57.523c-7.021-13.759-6.041-30.312,3.314-39.5,6.241-6.131,19.745-12.683,28.493-12.773,9.641-.1,27.171,3.938,31.654,12.475,5.747,10.942-3.123,27.843-5.054,40.051-2.352,14.873,4.907,34.638,10.923,56.042C1091.017,557.609,1036.17,567.68,1013.393,558.84Z" fill="#fdb761"/>
            <path id="Trazado_19879" data-name="Trazado 19879" d="M1082.268,457.931c17.447,17.4,34.738,43.274,32.09,51.77-3.942,12.651-33.093,15.664-33.093,15.664L1081,511.872s12.635-4.716,12.779-5.587c.271-1.642-14.52-13.06-14.52-13.06Z" fill="#fdbb93"/>
            <path id="Trazado_19880" data-name="Trazado 19880" d="M1078.616,455.3a122.678,122.678,0,0,1,36.012,37.741s-10.948,11.317-24.5,12.155l-11.732-10.41Z" fill="#fdb761"/>
            <path id="Trazado_19881" data-name="Trazado 19881" d="M1081.112,495.36a37,37,0,0,1-5.153-9.354c-.308-.826-1.645-.468-1.333.368a38.2,38.2,0,0,0,5.292,9.684.716.716,0,0,0,.946.248A.694.694,0,0,0,1081.112,495.36Z" fill="#fdd9ab" style="mix-blend-mode: multiply;isolation: isolate"/>
            <g id="Grupo_13437" data-name="Grupo 13437">
              <g id="Grupo_13436" data-name="Grupo 13436">
                <path id="Trazado_19882" data-name="Trazado 19882" d="M1059.114,417.062c.023.3.049.632.058.979.014.182.03.381.036.572.14,2.486.235,5.5.2,8.921-.021,4.327-.492,8.7-.785,14.681a62.647,62.647,0,0,0,.494,11.762c-3.952,5.6-16.562,3.581-16.07,1.62a9.289,9.289,0,0,0-.036-3.948,11.288,11.288,0,0,0-.833-2.668,6.218,6.218,0,0,0-.553-.958,3.216,3.216,0,0,0-2.345-1.393c-.5-.066-1-.114-1.5-.137-1.313-.089-2.618-.084-3.93-.174a26.182,26.182,0,0,1-4.4-.6,9.3,9.3,0,0,1-6.269-4.2c-1.664-2.943-2.348-7.955-2.474-13.393a116.2,116.2,0,0,1,1.3-19.394,12.541,12.541,0,0,1,1.585-4.239,15.674,15.674,0,0,1,12.571-7.579c10.408-.781,20.269-.092,22.468,15.254.111.748.241,1.869.352,3.3C1059.037,415.963,1059.078,416.491,1059.114,417.062Z" fill="#fdbb93"/>
                <path id="Trazado_19883" data-name="Trazado 19883" d="M1028.651,402.675a23.313,23.313,0,0,0,9.278,3.923c3.3.748,6.675,1.187,9.924,2.138a12.379,12.379,0,0,1,5.812,3.182c2.094,2.294,2.575,5.587,2.962,8.668a13.71,13.71,0,0,0,.548-21.751c-3.505-2.83-8.149-3.759-12.622-4.288a98.21,98.21,0,0,0-13.056-.669,52.254,52.254,0,0,0-6.489.314c-.92.13-.946.483-.809,1.366a9.726,9.726,0,0,0,.762,2.523A12.352,12.352,0,0,0,1028.651,402.675Z" fill="#1c213c"/>
                <path id="Trazado_19884" data-name="Trazado 19884" d="M1050.89,445.469a24.5,24.5,0,0,1-8.708,3.512,6.218,6.218,0,0,0-.553-.958,3.216,3.216,0,0,0-2.345-1.393c-.5-.066-1-.114-1.5-.137v-.008S1045.766,446.728,1050.89,445.469Z" fill="#fdede4" style="mix-blend-mode: multiply;isolation: isolate"/>
                <g id="Grupo_13428" data-name="Grupo 13428">
                  <path id="Trazado_19885" data-name="Trazado 19885" d="M1027.034,424.972c.056.727-.871,1.392-2.07,1.485s-2.218-.421-2.274-1.148.87-1.391,2.07-1.484S1026.978,424.245,1027.034,424.972Z" fill="#fda294"/>
                  <path id="Trazado_19886" data-name="Trazado 19886" d="M1039.2,423.8c.057.727-.87,1.391-2.07,1.484s-2.217-.421-2.274-1.147.871-1.392,2.07-1.485S1039.143,423.075,1039.2,423.8Z" fill="#fda294"/>
                  <path id="Trazado_19887" data-name="Trazado 19887" d="M1036.476,414.92a2.669,2.669,0,0,0-3.3-.6.3.3,0,0,0-.144.393.3.3,0,0,0,.393.144,2.077,2.077,0,0,1,2.6.44C1036.269,415.585,1036.726,415.209,1036.476,414.92Z" fill="#1c213c"/>
                  <path id="Trazado_19888" data-name="Trazado 19888" d="M1024.6,415.643a2.67,2.67,0,0,1,3.275-.733.3.3,0,0,1,.16.387.3.3,0,0,1-.387.16,2.077,2.077,0,0,0-2.577.544C1024.837,416.3,1024.365,415.942,1024.6,415.643Z" fill="#1c213c"/>
                  <path id="Trazado_19889" data-name="Trazado 19889" d="M1031.177,427.912a1.717,1.717,0,0,1-.613-.326,1.012,1.012,0,0,1-.326-.534.621.621,0,0,1,.134-.557.581.581,0,0,1,.2-.136c.023-.009.046-.016.07-.023a.482.482,0,0,0,.055-.009.493.493,0,0,0,.054,0q.037,0,.075.012a.3.3,0,1,0,.113-.581,1.079,1.079,0,0,0-.971.311,1.176,1.176,0,0,0-.326.963,1.826,1.826,0,0,0,1.425,1.463.3.3,0,0,0,.113-.581Z" fill="#d49e7e"/>
                  <path id="Trazado_19890" data-name="Trazado 19890" d="M1035.022,433a.646.646,0,0,0-.881-.16,5.921,5.921,0,0,1-4.816.51.655.655,0,0,0-.847.294.637.637,0,0,0,.294.846,7.307,7.307,0,0,0,6.091-.609A.639.639,0,0,0,1035.022,433Z" fill="#e48e80"/>
                  <path id="Trazado_19891" data-name="Trazado 19891" d="M1036.536,421.048a.343.343,0,0,1-.324-.227,1.453,1.453,0,0,0-2.69-.121.346.346,0,1,1-.632-.281,2.111,2.111,0,0,1,2.042-1.254,2.215,2.215,0,0,1,1.928,1.419.345.345,0,0,1-.2.443A.357.357,0,0,1,1036.536,421.048Z" fill="#331812"/>
                  <path id="Trazado_19892" data-name="Trazado 19892" d="M1024.731,421.288a.349.349,0,0,1-.118-.021.346.346,0,0,1-.206-.444,2.213,2.213,0,0,1,1.927-1.418,2.149,2.149,0,0,1,2.043,1.254.346.346,0,1,1-.632.28,1.487,1.487,0,0,0-1.378-.844,1.527,1.527,0,0,0-1.312.966A.345.345,0,0,1,1024.731,421.288Z" fill="#331812"/>
                </g>
                <g id="Grupo_13433" data-name="Grupo 13433">
                  <g id="Grupo_13432" data-name="Grupo 13432">
                    <g id="Grupo_13429" data-name="Grupo 13429">
                      <path id="Trazado_19893" data-name="Trazado 19893" d="M1048.256,444.825a49.348,49.348,0,0,1-8.82,1.835c-.052-.008-.116-.016-.168-.025-.09-.006-.169-.025-.259-.031-.025,0-.038,0-.051-.009a.736.736,0,0,0-.168-.012c-.026-.011-.065-.008-.091-.019-.128,0-.27-.017-.412-.032a.969.969,0,0,1-.193-.011c-.2-.009-.412-.032-.644-.052-.551-.009-.872-.022-.872-.022a.833.833,0,0,1-.18,0c-4.418-.183-10.692-.362-13.209-4.929-1.663-2.944-2.346-7.961-2.472-13.392.836-.436,6.877-3.439,10.115-3.447,3.48-.026,12.317,4.307,15.422,4.233C1046.254,428.913,1046.6,440.767,1048.256,444.825Z" fill="#fff"/>
                    </g>
                    <g id="Grupo_13430" data-name="Grupo 13430">
                      <path id="Trazado_19894" data-name="Trazado 19894" d="M1054.891,420.77a1.3,1.3,0,0,0-1.776-.321,36.273,36.273,0,0,0-9.209,8.478,1.306,1.306,0,0,0,.14,1.8,1.288,1.288,0,0,0,1.8-.139,34.179,34.179,0,0,1,8.725-8.041A1.293,1.293,0,0,0,1054.891,420.77Z" fill="#fff"/>
                    </g>
                    <g id="Grupo_13431" data-name="Grupo 13431">
                      <path id="Trazado_19895" data-name="Trazado 19895" d="M1057.172,425.818a19.286,19.286,0,0,1-3.623,8.921c-.96,1.383-2.013,2.7-3.078,4a31.731,31.731,0,0,1-3.446,3.859,1.318,1.318,0,0,0-.321,1.776,1.283,1.283,0,0,0,1.776.322,33.653,33.653,0,0,0,3.736-4.061c1.2-1.457,2.382-2.927,3.445-4.486a21.69,21.69,0,0,0,4.018-9.843C1059.848,424.681,1057.342,424.184,1057.172,425.818Z" fill="#fff"/>
                    </g>
                  </g>
                </g>
                <g id="Grupo_13435" data-name="Grupo 13435">
                  <path id="Trazado_19896" data-name="Trazado 19896" d="M1052.3,420.721a8.753,8.753,0,0,0-.428,3.261l.005.074a7.565,7.565,0,0,0,.615,2.475,3.878,3.878,0,0,0,3.838,2.341c4.27-.332,6.431-5.727,5.856-9.435a6.66,6.66,0,0,0-.633-2c-1.566-3.083-5.232-2.238-7.254-.126A8.894,8.894,0,0,0,1052.3,420.721Z" fill="#fdbb93"/>
                  <g id="Grupo_13434" data-name="Grupo 13434">
                    <path id="Trazado_19897" data-name="Trazado 19897" d="M1059.093,418.04a5.631,5.631,0,0,0-4.444,6.729c.079.37.666.291.586-.082a5.042,5.042,0,0,1,3.94-6.061C1059.546,418.55,1059.467,417.964,1059.093,418.04Z" fill="#d49e7e"/>
                    <path id="Trazado_19898" data-name="Trazado 19898" d="M1058.762,421.39c-.791-1.033-2.194-.967-3.326-.676a.3.3,0,0,0-.252.334.3.3,0,0,0,.334.252c.913-.235,2.123-.4,2.779.457C1058.529,422.059,1058.994,421.693,1058.762,421.39Z" fill="#d49e7e"/>
                  </g>
                </g>
              </g>
            </g>
            <path id="Trazado_19899" data-name="Trazado 19899" d="M1059.109,386.739a9.965,9.965,0,0,1,10.641-1.571,13.446,13.446,0,0,1,7.125,8.718,9.772,9.772,0,0,1-.234,6.723,7.4,7.4,0,0,1-6.022,4.046,10.172,10.172,0,0,1-6.985-2.3,18.823,18.823,0,0,1-4.781-5.948,13.632,13.632,0,0,1-1.774-5.248A5.549,5.549,0,0,1,1059.109,386.739Z" fill="#1c213c"/>
          </g>
          <path id="Trazado_19900" data-name="Trazado 19900" d="M1018.6,472.506s-8.29,29.87-13.967,37.4a49.312,49.312,0,0,0,27.868,3.883Z" fill="#fdb761"/>
          <path id="Trazado_19901" data-name="Trazado 19901" d="M1015.466,647.649q-5.148,19.172-9.381,38.572-1.193,5.469-2.311,10.956c-.177.868,1.155,1.24,1.333.367q3.971-19.449,8.859-38.694,1.38-5.427,2.833-10.833A.692.692,0,0,0,1015.466,647.649Z" fill="#f0bfb7" style="mix-blend-mode: multiply;isolation: isolate"/>
        </g>
        <g id="Grupo_13440" data-name="Grupo 13440">
          <path id="Trazado_19902" data-name="Trazado 19902" d="M1100.337,626.753l-7.965,1.078,14.159,104.621h-80.005l14.159-104.621-7.965-1.078-15.136,111.838a1.674,1.674,0,0,0,1.66,1.9h94.569a1.675,1.675,0,0,0,1.66-1.9Z" fill="#1a1f42"/>
          <rect id="Rectángulo_3187" data-name="Rectángulo 3187" width="92.269" height="13.217" rx="6.608" transform="translate(1020.394 616.902)" fill="#fdb761"/>
        </g>
        <g id="Grupo_13441" data-name="Grupo 13441">
          <rect id="Rectángulo_3188" data-name="Rectángulo 3188" width="0.955" height="12.564" transform="translate(973.541 532.035)" fill="#933657"/>
          <rect id="Rectángulo_3189" data-name="Rectángulo 3189" width="1.426" height="24.364" transform="translate(972.548 470.591)" fill="#933657"/>
          <rect id="Rectángulo_3190" data-name="Rectángulo 3190" width="0.916" height="4.659" transform="translate(1032.503 487.89)" fill="#933657"/>
          <rect id="Rectángulo_3191" data-name="Rectángulo 3191" width="0.916" height="4.659" transform="translate(1051.025 487.89)" fill="#933657"/>
          <rect id="Rectángulo_3192" data-name="Rectángulo 3192" width="4.43" height="9.216" transform="translate(1067.636 506.908)" fill="#933657"/>
          <path id="Trazado_19903" data-name="Trazado 19903" d="M1069.041,496.163v69.476h-42.168l4.388-38.7-48.891-4.478v10.124a2.659,2.659,0,0,1-2.66,2.66H968.744a2.659,2.659,0,0,1-2.66-2.66V496.163a2.62,2.62,0,0,1,2.615-2.626h97.716A2.63,2.63,0,0,1,1069.041,496.163Z" fill="#be5c7e"/>
          <path id="Trazado_19904" data-name="Trazado 19904" d="M1057.529,501.2h-27.7a5.7,5.7,0,1,0,0,11.4h27.7a5.7,5.7,0,1,0,0-11.4Z" fill="#cd92a7" style="mix-blend-mode: multiply;isolation: isolate"/>
          <path id="Trazado_19905" data-name="Trazado 19905" d="M1060.942,514.851h-8.532a1.757,1.757,0,0,0,0,3.513h8.532a1.757,1.757,0,1,0,0-3.513Z" fill="#cd92a7" style="mix-blend-mode: multiply;isolation: isolate"/>
          <path id="Trazado_19906" data-name="Trazado 19906" d="M1074.434,530.2h0a3.463,3.463,0,0,1-3.463-3.462V497a3.463,3.463,0,0,1,3.463-3.462h0A3.462,3.462,0,0,1,1077.9,497V526.74A3.462,3.462,0,0,1,1074.434,530.2Z" fill="#be5c7e"/>
          <path id="Trazado_19907" data-name="Trazado 19907" d="M1081,511.872s-4.2-2.868-7.325-2.524c-3.618.4-7.242,19.062-2.029,19.106a18.4,18.4,0,0,0,9.619-3.089Z" fill="#fdbb93"/>
          <rect id="Rectángulo_3193" data-name="Rectángulo 3193" width="8.351" height="18.459" rx="1.538" transform="translate(969.085 473.263)" fill="#f0806f"/>
          <rect id="Rectángulo_3194" data-name="Rectángulo 3194" width="10.387" height="3.208" transform="translate(1027.768 491.441)" fill="#be5c7e"/>
          <rect id="Rectángulo_3195" data-name="Rectángulo 3195" width="10.387" height="3.208" transform="translate(1046.289 491.441)" fill="#be5c7e"/>
          <rect id="Rectángulo_3196" data-name="Rectángulo 3196" width="113.648" height="8.554" rx="2.215" transform="translate(960.022 565.641)" fill="#d25c48"/>
          <rect id="Rectángulo_3197" data-name="Rectángulo 3197" width="4.239" height="12.755" rx="1.069" transform="translate(1066.917 539.024)" fill="#be5c7e"/>
          <path id="Trazado_19908" data-name="Trazado 19908" d="M1069.041,553.742v11.9h-42.168l4.389-38.7-48.891-4.478v-7.61l57.489,5.133-3.6,33.757Z" fill="#cd92a7" style="mix-blend-mode: multiply;isolation: isolate"/>
          <path id="Trazado_19909" data-name="Trazado 19909" d="M971.521,519.213h0a2.436,2.436,0,0,1-2.436-2.435V502.067a2.436,2.436,0,0,1,2.436-2.436h0a2.436,2.436,0,0,1,2.436,2.436v14.711A2.436,2.436,0,0,1,971.521,519.213Z" fill="#fff" opacity="0.3" style="mix-blend-mode: overlay;isolation: isolate"/>
        </g>
        <g id="Grupo_13442" data-name="Grupo 13442">
          <path id="Trazado_19910" data-name="Trazado 19910" d="M1143.6,577.06l-11.445,1.549L1152.5,728.94h-114.96l20.346-150.331-11.445-1.549-21.75,160.7a2.407,2.407,0,0,0,2.385,2.729h135.888a2.407,2.407,0,0,0,2.385-2.729Z" fill="#2d3561"/>
          <rect id="Rectángulo_3198" data-name="Rectángulo 3198" width="323.798" height="10.21" rx="1.351" transform="translate(847.282 574.192)" fill="#be5c7e"/>
          <path id="Trazado_19911" data-name="Trazado 19911" d="M1171.08,578.477v4.573a1.36,1.36,0,0,1-1.351,1.352h-321.1a1.36,1.36,0,0,1-1.351-1.352v-4.573Z" fill="#ce869f" style="mix-blend-mode: multiply;isolation: isolate"/>
          <path id="Trazado_19912" data-name="Trazado 19912" d="M1020.394,564.639s-17.389-1.693-17.389,91.532l-64.042-2.027s-.741-89.5,23.274-89.5Z" fill="#fff"/>
        </g>
      </g>
      <g id="Grupo_13449" data-name="Grupo 13449">
        <g id="Grupo_13444" data-name="Grupo 13444">
          <path id="Trazado_19913" data-name="Trazado 19913" d="M1143.018,694.709h28.389s-14.578-103.584-56.779-141.182C1114.628,553.527,1116.162,628.722,1143.018,694.709Z" fill="#fdb761"/>
          <path id="Trazado_19914" data-name="Trazado 19914" d="M1159.131,694.709h25.32s25.832-49.618,34.528-107.677C1218.979,587.032,1181.638,620.537,1159.131,694.709Z" fill="#fdb761"/>
          <path id="Trazado_19915" data-name="Trazado 19915" d="M1171.407,696.5s6.394-60.872-8.44-111.257c0,0-13.555,16.88-12.021,109.467Z" fill="#e39b41"/>
          <path id="Trazado_19916" data-name="Trazado 19916" d="M1162.967,693.685h-26.855l7.417,46.8h38.876l7.417-46.8Z" fill="#be5c7e"/>
          <path id="Trazado_19917" data-name="Trazado 19917" d="M1189.822,693.685s-12.91,38.926-46.293,46.8h38.876Z" fill="#ce869f" style="mix-blend-mode: multiply;isolation: isolate"/>
        </g>
        <g id="Grupo_13448" data-name="Grupo 13448">
          <g id="Grupo_13445" data-name="Grupo 13445">
            <rect id="Rectángulo_3199" data-name="Rectángulo 3199" width="72.581" height="72.581" transform="translate(564.406 667.909)" fill="#2d3561"/>
            <rect id="Rectángulo_3200" data-name="Rectángulo 3200" width="24.987" height="72.581" transform="translate(636.987 667.909)" fill="#1a1f42"/>
            <rect id="Rectángulo_3201" data-name="Rectángulo 3201" width="9.221" height="14.427" transform="translate(596.086 667.909)" fill="#1a1f42"/>
          </g>
          <g id="Grupo_13446" data-name="Grupo 13446">
            <rect id="Rectángulo_3202" data-name="Rectángulo 3202" width="72.581" height="72.581" transform="translate(649.48 667.909)" fill="#2d3561"/>
            <rect id="Rectángulo_3203" data-name="Rectángulo 3203" width="24.987" height="72.581" transform="translate(722.061 667.909)" fill="#1a1f42"/>
            <rect id="Rectángulo_3204" data-name="Rectángulo 3204" width="9.222" height="14.427" transform="translate(681.16 667.909)" fill="#1a1f42"/>
          </g>
          <g id="Grupo_13447" data-name="Grupo 13447">
            <rect id="Rectángulo_3205" data-name="Rectángulo 3205" width="72.581" height="72.581" transform="translate(1006.397 667.909)" fill="#2d3561"/>
            <rect id="Rectángulo_3206" data-name="Rectángulo 3206" width="24.987" height="72.581" transform="translate(1078.978 667.909)" fill="#1a1f42"/>
            <rect id="Rectángulo_3207" data-name="Rectángulo 3207" width="9.221" height="14.427" transform="translate(1038.077 667.909)" fill="#1a1f42"/>
          </g>
        </g>
      </g>
    </g>
  </g>
</svg>
